<svg width="310" height="112" viewBox="0 0 310 112" fill="none" xmlns="http://www.w3.org/2000/svg">
<path d="M201.956 39.8468L206.661 41.9209L184.3 93.6745L179.646 91.575L201.956 39.8468ZM215.825 55.233V66.7853H230.9V55.233H235.459V83H230.9V70.6188H215.825V83H211.267V55.233H215.825ZM248.81 55.233V83H244.251V55.233H248.81ZM246.582 44.8204C247.273 44.8204 247.878 45.0621 248.396 45.5456C248.948 45.9946 249.224 46.7198 249.224 47.7214C249.224 48.6884 248.948 49.4137 248.396 49.8972C247.878 50.3807 247.273 50.6224 246.582 50.6224C245.823 50.6224 245.184 50.3807 244.666 49.8972C244.148 49.4137 243.889 48.6884 243.889 47.7214C243.889 46.7198 244.148 45.9946 244.666 45.5456C245.184 45.0621 245.823 44.8204 246.582 44.8204ZM261.596 65.3348C261.596 66.958 262.045 68.1668 262.943 68.9611C263.875 69.7209 265.205 70.1008 266.932 70.1008C268.659 70.1008 270.23 69.8418 271.646 69.3237C273.062 68.7711 274.512 68.0459 275.997 67.1479V55.233H280.556V83H275.997V70.6188C274.443 71.6204 272.907 72.4147 271.387 73.0018C269.902 73.5544 268.106 73.8307 265.999 73.8307C263.167 73.8307 260.957 73.0881 259.368 71.6031C257.814 70.118 257.037 68.1322 257.037 65.6456V55.233H261.596V65.3348Z" fill="#0D3A48"/>
<path d="M23.069 82.1518H48.9261V92H2.29341L26.3967 62.8152C28.7651 59.9072 30.7437 57.389 32.3326 55.2604C33.9515 53.1319 35.1806 51.3482 36.0201 49.9091C37.7289 47.0911 38.5833 44.5579 38.5833 42.3094C38.5833 39.0717 37.4441 36.3585 35.1656 34.17C32.8872 31.9816 30.0692 30.8873 26.7115 30.8873C19.6964 30.8873 15.6791 35.0394 14.6598 43.3437H4.22707C5.90591 28.7138 13.2958 21.3989 26.3967 21.3989C32.7223 21.3989 38.0287 23.4075 42.3157 27.4247C46.6327 31.4419 48.7912 36.4185 48.7912 42.3544C48.7912 46.1318 47.7869 49.8342 45.7783 53.4617C44.759 55.3504 43.26 57.5988 41.2814 60.207C39.3328 62.7852 36.8595 65.8431 33.8616 69.3807L23.069 82.1518ZM93.4453 32.3713H59.179V22.5681H110.938L67.1385 94.3833L58.8193 89.122L93.4453 32.3713ZM144.665 12.7199V21.5338C148.202 22.1034 151.095 23.2726 153.344 25.0414C155.592 26.8101 157.736 29.5233 159.774 33.1807L151.005 38.0823C148.367 33.2857 144.92 30.8873 140.663 30.8873C138.024 30.8873 135.836 31.6668 134.097 33.2257C132.358 34.7846 131.489 36.7333 131.489 39.0717C131.489 41.2002 132.193 42.969 133.602 44.378C134.982 45.757 137.77 47.3909 141.967 49.2796C145.594 50.9284 148.592 52.4874 150.96 53.9563C153.329 55.3953 155.113 56.7894 156.312 58.1384C159.699 61.7959 161.393 66.2179 161.393 71.4043C161.393 76.5007 159.864 80.9976 156.806 84.8949C153.779 88.7622 149.731 91.3704 144.665 92.7195V102.028H136.795V92.9893C130.919 92.03 126.437 90.0064 123.35 86.9185C120.262 83.8307 117.983 79.064 116.514 72.6184L126.407 70.5499C127.757 75.1067 129.405 78.3594 131.354 80.3081C133.393 82.1668 136.106 83.0962 139.493 83.0962C142.791 83.0962 145.549 82.0319 147.768 79.9034C149.956 77.8048 151.05 75.0917 151.05 71.764C151.05 68.7961 150.136 66.4127 148.307 64.614C147.378 63.7446 145.999 62.7702 144.17 61.691C142.371 60.5818 140.063 59.3826 137.245 58.0935C131.429 55.4853 127.607 53.0869 125.778 50.8985C122.87 47.6307 121.416 43.7184 121.416 39.1616C121.416 37.0031 121.761 34.9945 122.45 33.1358C123.14 31.2771 124.129 29.5982 125.418 28.0993C126.737 26.5703 128.356 25.2512 130.275 24.142C132.193 23.0328 134.367 22.1634 136.795 21.5338V12.7199H144.665Z" fill="#0D3A48"/>
</svg>
