<svg width="310" height="112" viewBox="0 0 310 112" fill="none" xmlns="http://www.w3.org/2000/svg">
<path d="M201.956 39.8468L206.661 41.9209L184.3 93.6745L179.646 91.575L201.956 39.8468ZM215.825 55.233V66.7853H230.9V55.233H235.459V83H230.9V70.6188H215.825V83H211.267V55.233H215.825ZM248.81 55.233V83H244.251V55.233H248.81ZM246.582 44.8204C247.273 44.8204 247.878 45.0621 248.396 45.5456C248.948 45.9946 249.224 46.7198 249.224 47.7214C249.224 48.6884 248.948 49.4137 248.396 49.8972C247.878 50.3807 247.273 50.6224 246.582 50.6224C245.823 50.6224 245.184 50.3807 244.666 49.8972C244.148 49.4137 243.889 48.6884 243.889 47.7214C243.889 46.7198 244.148 45.9946 244.666 45.5456C245.184 45.0621 245.823 44.8204 246.582 44.8204ZM261.596 65.3348C261.596 66.958 262.045 68.1668 262.943 68.9611C263.875 69.7209 265.205 70.1008 266.932 70.1008C268.659 70.1008 270.23 69.8418 271.646 69.3237C273.062 68.7711 274.512 68.0459 275.997 67.1479V55.233H280.556V83H275.997V70.6188C274.443 71.6204 272.907 72.4147 271.387 73.0018C269.902 73.5544 268.106 73.8307 265.999 73.8307C263.167 73.8307 260.957 73.0881 259.368 71.6031C257.814 70.118 257.037 68.1322 257.037 65.6456V55.233H261.596V65.3348Z" fill="#0D3A48"/>
<path d="M23.8335 59.7573V50.8085C28.2704 50.8085 31.2534 50.3139 32.7823 49.3246C35.5104 47.5858 36.8745 44.7977 36.8745 40.9603C36.8745 37.9924 35.8851 35.5791 33.9065 33.7204C31.9579 31.8317 29.4246 30.8873 26.3068 30.8873C23.3988 30.8873 21.1504 31.5918 19.5615 33.0009C18.0325 34.4399 16.8933 36.8682 16.1438 40.2858H5.71105C6.7903 33.7503 9.00876 28.9687 12.3664 25.9407C15.7241 22.8829 20.4159 21.3539 26.4417 21.3539C32.5275 21.3539 37.489 23.1527 41.3264 26.7502C45.1637 30.3177 47.0824 34.9195 47.0824 40.5556C47.0824 46.9112 44.5641 51.8578 39.5276 55.3953C45.2836 58.783 48.1616 64.2842 48.1616 71.8989C48.1616 78.1346 46.0631 83.2311 41.866 87.1883C37.6689 91.1456 32.2876 93.1242 25.7222 93.1242C17.358 93.1242 11.1523 90.0513 7.10508 83.9056C5.42624 81.3274 4.36198 77.7599 3.91229 73.203H14.0303C14.5699 76.5607 15.874 79.1389 17.9426 80.9377C20.0411 82.7064 22.7692 83.5908 26.1269 83.5908C29.5146 83.5908 32.3176 82.4666 34.5361 80.2182C36.7545 77.9098 37.8638 74.9868 37.8638 71.4492C37.8638 66.7725 36.1999 63.4448 32.8722 61.4661C30.9236 60.3269 27.9107 59.7573 23.8335 59.7573ZM91.8264 32.3713H57.5601V22.5681H109.319L65.5196 94.3833L57.2004 89.122L91.8264 32.3713ZM143.046 12.7199V21.5338C146.583 22.1034 149.476 23.2726 151.725 25.0414C153.973 26.8101 156.117 29.5233 158.155 33.1807L149.387 38.0823C146.748 33.2857 143.301 30.8873 139.044 30.8873C136.406 30.8873 134.217 31.6668 132.478 33.2257C130.739 34.7846 129.87 36.7333 129.87 39.0717C129.87 41.2002 130.575 42.969 131.984 44.378C133.363 45.757 136.151 47.3909 140.348 49.2796C143.975 50.9284 146.973 52.4874 149.342 53.9563C151.71 55.3953 153.494 56.7894 154.693 58.1384C158.081 61.7959 159.774 66.2179 159.774 71.4043C159.774 76.5007 158.245 80.9976 155.188 84.8949C152.16 88.7622 148.112 91.3704 143.046 92.7195V102.028H135.176V92.9893C129.3 92.03 124.819 90.0064 121.731 86.9185C118.643 83.8307 116.364 79.064 114.895 72.6184L124.789 70.5499C126.138 75.1067 127.787 78.3594 129.735 80.3081C131.774 82.1668 134.487 83.0962 137.875 83.0962C141.172 83.0962 143.93 82.0319 146.149 79.9034C148.337 77.8048 149.432 75.0917 149.432 71.764C149.432 68.7961 148.517 66.4127 146.688 64.614C145.759 63.7446 144.38 62.7702 142.551 61.691C140.753 60.5818 138.444 59.3826 135.626 58.0935C129.81 55.4853 125.988 53.0869 124.159 50.8985C121.251 47.6307 119.797 43.7184 119.797 39.1616C119.797 37.0031 120.142 34.9945 120.831 33.1358C121.521 31.2771 122.51 29.5982 123.799 28.0993C125.118 26.5703 126.737 25.2512 128.656 24.142C130.575 23.0328 132.748 22.1634 135.176 21.5338V12.7199H143.046Z" fill="#0D3A48"/>
</svg>
