<svg width="310" height="112" viewBox="0 0 310 112" fill="none" xmlns="http://www.w3.org/2000/svg">
<path d="M201.956 39.8468L206.661 41.9209L184.3 93.6745L179.646 91.575L201.956 39.8468ZM215.825 55.233V66.7853H230.9V55.233H235.459V83H230.9V70.6188H215.825V83H211.267V55.233H215.825ZM248.81 55.233V83H244.251V55.233H248.81ZM246.582 44.8204C247.273 44.8204 247.878 45.0621 248.396 45.5456C248.948 45.9946 249.224 46.7198 249.224 47.7214C249.224 48.6884 248.948 49.4137 248.396 49.8972C247.878 50.3807 247.273 50.6224 246.582 50.6224C245.823 50.6224 245.184 50.3807 244.666 49.8972C244.148 49.4137 243.889 48.6884 243.889 47.7214C243.889 46.7198 244.148 45.9946 244.666 45.5456C245.184 45.0621 245.823 44.8204 246.582 44.8204ZM261.596 65.3348C261.596 66.958 262.045 68.1668 262.943 68.9611C263.875 69.7209 265.205 70.1008 266.932 70.1008C268.659 70.1008 270.23 69.8418 271.646 69.3237C273.062 68.7711 274.512 68.0459 275.997 67.1479V55.233H280.556V83H275.997V70.6188C274.443 71.6204 272.907 72.4147 271.387 73.0018C269.902 73.5544 268.106 73.8307 265.999 73.8307C263.167 73.8307 260.957 73.0881 259.368 71.6031C257.814 70.118 257.037 68.1322 257.037 65.6456V55.233H261.596V65.3348Z" fill="#0D3A48"/>
<path d="M45.4185 72.6184H52.7934V82.1518H45.4185V92H34.9408V82.1518H0.854408L45.4185 17.3967V72.6184ZM34.9408 72.6184V49.3695L18.9319 72.6184H34.9408ZM60.7529 56.8344C60.7529 45.772 63.3311 36.9431 68.4876 30.3477C73.1044 24.3818 78.6955 21.3989 85.261 21.3989C91.8264 21.3989 97.4175 24.3818 102.034 30.3477C107.191 36.9431 109.769 45.9219 109.769 57.284C109.769 68.6162 107.191 77.58 102.034 84.1754C97.4175 90.1413 91.8414 93.1242 85.3059 93.1242C78.7705 93.1242 73.1643 90.1413 68.4876 84.1754C63.3311 77.58 60.7529 68.4663 60.7529 56.8344ZM71.0508 56.8793C71.0508 64.584 72.3849 70.9846 75.053 76.081C77.7212 81.0876 81.1238 83.5908 85.261 83.5908C89.3681 83.5908 92.7708 81.0876 95.4689 76.081C98.167 71.1045 99.5161 64.8238 99.5161 57.2391C99.5161 49.6543 98.167 43.3587 95.4689 38.3522C92.7708 33.3756 89.3681 30.8873 85.261 30.8873C81.1838 30.8873 77.7961 33.3756 75.098 38.3522C72.3999 43.2987 71.0508 49.4744 71.0508 56.8793ZM147.093 12.7199V21.5338C150.631 22.1034 153.524 23.2726 155.772 25.0414C158.021 26.8101 160.164 29.5233 162.203 33.1807L153.434 38.0823C150.796 33.2857 147.348 30.8873 143.091 30.8873C140.453 30.8873 138.264 31.6668 136.525 33.2257C134.787 34.7846 133.917 36.7333 133.917 39.0717C133.917 41.2002 134.622 42.969 136.031 44.378C137.41 45.757 140.198 47.3909 144.395 49.2796C148.022 50.9284 151.02 52.4874 153.389 53.9563C155.757 55.3953 157.541 56.7894 158.74 58.1384C162.128 61.7959 163.822 66.2179 163.822 71.4043C163.822 76.5007 162.293 80.9976 159.235 84.8949C156.207 88.7622 152.16 91.3704 147.093 92.7195V102.028H139.224V92.9893C133.348 92.03 128.866 90.0064 125.778 86.9185C122.69 83.8307 120.412 79.064 118.943 72.6184L128.836 70.5499C130.185 75.1067 131.834 78.3594 133.782 80.3081C135.821 82.1668 138.534 83.0962 141.922 83.0962C145.219 83.0962 147.978 82.0319 150.196 79.9034C152.384 77.8048 153.479 75.0917 153.479 71.764C153.479 68.7961 152.564 66.4127 150.736 64.614C149.806 63.7446 148.427 62.7702 146.598 61.691C144.8 60.5818 142.491 59.3826 139.673 58.0935C133.857 55.4853 130.035 53.0869 128.206 50.8985C125.298 47.6307 123.844 43.7184 123.844 39.1616C123.844 37.0031 124.189 34.9945 124.879 33.1358C125.568 31.2771 126.557 29.5982 127.846 28.0993C129.166 26.5703 130.784 25.2512 132.703 24.142C134.622 23.0328 136.795 22.1634 139.224 21.5338V12.7199H147.093Z" fill="#0D3A48"/>
</svg>
