<svg width="41" height="23" viewBox="0 0 41 23" fill="none" xmlns="http://www.w3.org/2000/svg">
<path fill-rule="evenodd" clip-rule="evenodd" d="M23.0664 13.9172C15.3928 17.7989 6.56728 21.0843 0.779732 22.9239L0.533852 22.1503C6.29305 20.3197 15.0758 17.0496 22.7 13.1929C26.513 11.2641 30.0229 9.19529 32.7174 7.09409C34.9653 5.34116 36.6008 3.59969 37.4013 1.93405L35.2051 3.18455C35.0103 3.29546 34.7625 3.22746 34.6516 3.03268C34.5407 2.8379 34.6087 2.59009 34.8035 2.47918L37.9776 0.6718C38.1724 0.56089 38.4202 0.628883 38.5311 0.823666L40.3385 3.99783C40.4494 4.19261 40.3814 4.44042 40.1866 4.55133C39.9919 4.66224 39.744 4.59425 39.6331 4.39947L38.2647 1.99611C37.4279 3.94027 35.6007 5.87499 33.2165 7.73418C30.4638 9.88078 26.9024 11.9768 23.0664 13.9172Z" fill="#565656"/>
</svg>
