<svg width="10" height="45" viewBox="0 0 10 45" fill="none" xmlns="http://www.w3.org/2000/svg">
<path fill-rule="evenodd" clip-rule="evenodd" d="M2.11798 20.24C0.995767 28.7659 0.817563 38.1815 0.99781 44.2517L1.80915 44.2276C1.62979 38.1871 1.80775 28.817 2.92274 20.3459C3.48037 16.1094 4.27051 12.1125 5.36112 8.8743C6.27097 6.17281 7.37275 4.05295 8.67945 2.74621L8.22657 5.23253C8.1864 5.45304 8.33261 5.66437 8.55312 5.70454C8.77364 5.7447 8.98497 5.5985 9.02513 5.37799L9.6797 1.78446C9.71986 1.56394 9.57366 1.35261 9.35314 1.31244L5.75961 0.657881C5.5391 0.617714 5.32777 0.763916 5.2876 0.984433C5.24744 1.20495 5.39364 1.41628 5.61416 1.45644L8.33505 1.95206C6.77754 3.38524 5.55688 5.74997 4.59188 8.61522C3.4777 11.9234 2.67897 15.9779 2.11798 20.24Z" fill="#565656"/>
</svg>
