<svg width="21" height="21" viewBox="0 0 21 21" fill="none" xmlns="http://www.w3.org/2000/svg">
<mask id="mask0_273_747" style="mask-type:luminance" maskUnits="userSpaceOnUse" x="0" y="0" width="21" height="22">
<path d="M21 0H0V21.0003H21V0Z" fill="white"/>
</mask>
<g mask="url(#mask0_273_747)">
<path fill-rule="evenodd" clip-rule="evenodd" d="M21.0002 10.5003C21.0002 10.1381 20.706 9.84406 20.3436 9.84406H3.28108C2.91867 9.84406 2.62451 10.1381 2.62451 10.5003V20.3442C2.62451 20.7065 2.91867 21.0005 3.28108 21.0005H20.3436C20.706 21.0005 21.0002 20.7065 21.0002 20.3442V10.5003ZM3.93764 11.1566V19.6879H19.687V11.1566H3.93764Z" fill="#0D0D0D"/>
<path fill-rule="evenodd" clip-rule="evenodd" d="M20.9998 3.28131C20.9998 2.91844 20.7058 2.62488 20.3435 2.62488H17.7185C17.3563 2.62488 17.0623 2.91844 17.0623 3.28131V10.5002C17.0623 10.863 17.3563 11.1566 17.7185 11.1566H20.3435C20.7058 11.1566 20.9998 10.863 20.9998 10.5002V3.28131ZM18.3748 3.93775V9.84373H19.6873V3.93775H18.3748Z" fill="#0D0D0D"/>
<path fill-rule="evenodd" clip-rule="evenodd" d="M17.7185 5.90642V5.25043C15.9064 5.25043 14.4373 6.71922 14.4373 8.53163C14.4373 9.56065 14.4373 10.5002 14.4373 10.5002C14.4373 10.8628 14.7313 11.1562 15.0935 11.1562H17.7185C18.0808 11.1562 18.3748 10.8628 18.3748 10.5002V5.90642H17.7185ZM17.0623 6.67512C16.2975 6.94463 15.7498 7.67412 15.7498 8.53163V9.84424H17.0623V6.67512Z" fill="#0D0D0D"/>
<path fill-rule="evenodd" clip-rule="evenodd" d="M12.4687 4.59418H7.21875C6.8565 4.59418 6.5625 4.88818 6.5625 5.25044C6.5625 5.61269 6.8565 5.9067 7.21875 5.9067H12.4687C12.831 5.9067 13.125 5.61269 13.125 5.25044C13.125 4.88818 12.831 4.59418 12.4687 4.59418Z" fill="#0D0D0D"/>
<path fill-rule="evenodd" clip-rule="evenodd" d="M11.8125 5.25044C11.8125 6.3372 10.9305 7.21921 9.84375 7.21921C8.757 7.21921 7.875 6.3372 7.875 5.25044C7.875 4.88818 7.581 4.59418 7.21875 4.59418C6.8565 4.59418 6.5625 4.88818 6.5625 5.25044C6.5625 7.06171 8.0325 8.53173 9.84375 8.53173C11.655 8.53173 13.125 7.06171 13.125 5.25044C13.125 4.88818 12.831 4.59418 12.4687 4.59418C12.1065 4.59418 11.8125 4.88818 11.8125 5.25044Z" fill="#0D0D0D"/>
<path fill-rule="evenodd" clip-rule="evenodd" d="M1.31221 5.25036C1.31221 3.07748 3.07714 1.31254 5.24998 1.31254C7.42283 1.31254 9.18775 3.07748 9.18775 5.25036C9.18775 5.61235 9.48175 5.90636 9.84373 5.90636C10.2057 5.90636 10.4997 5.61235 10.4997 5.25036C10.4997 2.35258 8.14772 0.000549316 5.24998 0.000549316C2.35224 0.000549316 0.000244141 2.35258 0.000244141 5.25036C0.000244141 5.61235 0.294241 5.90636 0.656229 5.90636C1.01822 5.90636 1.31221 5.61235 1.31221 5.25036Z" fill="#0D0D0D"/>
<path fill-rule="evenodd" clip-rule="evenodd" d="M-0.000244141 5.25044V20.3444C-0.000244141 20.7066 0.293756 21.0007 0.656006 21.0007C1.01826 21.0007 1.31226 20.7066 1.31226 20.3444V5.25044C1.31226 4.88818 1.01826 4.59418 0.656006 4.59418C0.293756 4.59418 -0.000244141 4.88818 -0.000244141 5.25044Z" fill="#0D0D0D"/>
</g>
</svg>
