<svg width="29" height="20" viewBox="0 0 29 20" fill="none" xmlns="http://www.w3.org/2000/svg">
<path fill-rule="evenodd" clip-rule="evenodd" d="M12.4265 17.98L14.4985 20L16.5706 17.98C16.0187 17.4435 15.2746 17.1428 14.4993 17.1428C13.724 17.1428 12.9784 17.4435 12.4265 17.98ZM8.2853 13.94L10.3574 15.96C11.4623 14.8891 12.9501 14.289 14.5 14.289C16.0499 14.289 17.5377 14.8891 18.6427 15.96L20.7147 13.94C19.0587 12.3306 16.8261 11.4282 14.5 11.4282C12.1739 11.4282 9.94128 12.3306 8.2853 13.94ZM0 5.85857L2.0706 7.87857C8.92475 1.19429 20.0753 1.19429 26.928 7.87857L29 5.85857C20.9902 -1.95286 8.00835 -1.95286 0 5.85857ZM24.8559 9.89857L22.7853 11.9186C18.2178 7.46286 10.7837 7.46286 6.21325 11.9186L4.14265 9.89857C9.86145 4.32 19.1357 4.32 24.8559 9.89857Z" fill="#0D0D0D"/>
</svg>
