<svg width="27" height="29" viewBox="0 0 27 29" fill="none" xmlns="http://www.w3.org/2000/svg">
<path d="M13.6366 28.8309C14.6625 28.1784 15.6914 27.5288 16.7172 26.8763C17.1816 26.5819 17.652 26.2905 18.1042 25.9749C19.1787 25.2252 20.1863 24.3724 21.0817 23.4133C22.8541 21.5103 24.2017 19.2552 25.0546 16.7998C25.7496 14.7936 26.047 12.6782 26.047 10.5597V6.52002C26.047 5.97675 25.6677 5.50327 25.1547 5.34848C24.7845 5.23619 24.4172 5.12085 24.0621 4.97213C24.1592 5.01159 24.2564 5.05408 24.3535 5.09354C23.7191 4.82342 23.1243 4.47742 22.578 4.05858L22.8238 4.24979C22.2836 3.83094 21.7979 3.34837 21.3791 2.80812L21.5703 3.05396C21.1515 2.50765 20.8024 1.90974 20.5323 1.27541C20.5718 1.37253 20.6143 1.46965 20.6537 1.56678C20.5627 1.34825 20.4777 1.12365 20.4048 0.899058C20.2409 0.38613 19.7826 0.00674462 19.2333 0.00674462H8.3404C7.83961 0.00674462 7.33579 -0.00843078 6.835 0.00674462H6.81375C6.26137 0.00674462 5.80611 0.38613 5.64221 0.899058C5.56937 1.12669 5.48742 1.34825 5.39334 1.56678C5.43279 1.46965 5.47528 1.37253 5.51474 1.27541C5.24462 1.90974 4.89558 2.50461 4.47674 3.05396L4.66795 2.80812C4.24911 3.34837 3.7635 3.83094 3.22325 4.24979L3.4691 4.05858C2.92278 4.47742 2.32487 4.82342 1.69357 5.09354C1.7907 5.05408 1.88782 5.01159 1.98494 4.97213C1.6268 5.12085 1.26259 5.23619 0.892313 5.34848C0.379385 5.50327 0 5.97675 0 6.52002V10.1803C0 10.8238 0 11.4672 0.0455262 12.1106C0.142649 13.4188 0.364209 14.7238 0.731454 15.9834C1.45987 18.4843 2.72247 20.7879 4.39783 22.7759C5.69988 24.3208 7.26901 25.5712 8.96866 26.6487L12.3285 28.7793C12.3558 28.7975 12.3862 28.8157 12.4135 28.8339C12.9507 29.1739 13.7762 28.9644 14.0737 28.3969C14.3893 27.7959 14.2102 27.1009 13.6366 26.7367C13.0903 26.3907 12.544 26.0447 12.0007 25.6987C11.3026 25.2556 10.6076 24.8155 9.90953 24.3724C9.42089 24.0628 8.94438 23.732 8.48305 23.3799L8.72889 23.5711C7.58163 22.6818 6.5497 21.6499 5.66042 20.5026L5.85163 20.7485C4.94718 19.5739 4.19448 18.287 3.61478 16.9212C3.65424 17.0184 3.69673 17.1155 3.73618 17.2126C3.14434 15.8074 2.74068 14.3323 2.53733 12.8208C2.5525 12.9271 2.56768 13.0363 2.57982 13.1426C2.44931 12.1592 2.42806 11.1758 2.42806 10.1894V6.53217C2.13063 6.92369 1.83319 7.31218 1.53575 7.70371C2.58285 7.38806 3.59657 6.96922 4.48585 6.32881C5.53902 5.57004 6.4374 4.63524 7.10512 3.51833C7.47237 2.90525 7.76677 2.23753 7.98529 1.55767C7.59377 1.85511 7.20528 2.15255 6.81375 2.44998H17.7067C18.2074 2.44998 18.7113 2.46212 19.2121 2.44998H19.2333C18.8418 2.15255 18.4533 1.85511 18.0618 1.55767C18.8236 3.93414 20.5536 6.00103 22.8238 7.06937C23.3701 7.32736 23.9316 7.52767 24.5113 7.70371C24.2139 7.31218 23.9164 6.92369 23.619 6.53217V10.8359C23.619 11.6068 23.5674 12.3777 23.4672 13.1426C23.4824 13.0363 23.4976 12.9271 23.5097 12.8208C23.3033 14.3293 22.8997 15.8074 22.3109 17.2126C22.3503 17.1155 22.3928 17.0184 22.4323 16.9212C21.8526 18.287 21.0999 19.5739 20.1954 20.7485L20.3866 20.5026C19.4973 21.6499 18.4654 22.6818 17.3182 23.5711L17.564 23.3799C16.8841 23.905 16.1618 24.3572 15.4394 24.8185C14.6382 25.3284 13.8369 25.8353 13.0357 26.3452C12.8293 26.4757 12.6199 26.6092 12.4135 26.7397C12.1494 26.9067 11.94 27.1586 11.855 27.4651C11.7761 27.7565 11.8125 28.1419 11.9764 28.3999C12.3224 28.9341 13.063 29.1951 13.6366 28.8309Z" fill="#0D0D0D"/>
<path d="M6.83809 14.4416L9.95512 17.5586L10.3982 18.0017C10.8626 18.4661 11.6517 18.4661 12.1161 18.0017L14.5229 15.5949L18.3319 11.7859L19.2091 10.9087C19.6583 10.4595 19.6917 9.634 19.2091 9.19088C18.7235 8.74472 17.9708 8.71134 17.4912 9.19088L15.0844 11.5977L11.2754 15.4067L10.3982 16.2839H12.1161L8.99907 13.1668L8.55595 12.7237C8.10676 12.2745 7.28122 12.2411 6.83809 12.7237C6.39194 13.2093 6.35855 13.959 6.83809 14.4416Z" fill="#0D0D0D"/>
</svg>
