<svg width="26" height="28" viewBox="0 0 26 28" fill="none" xmlns="http://www.w3.org/2000/svg">
<path d="M18.837 18.2326V15.9535L15.6 19.2093L18.837 22.4651V20.186H26V18.2326H18.837ZM22.763 23.7674H15.6V25.7209H22.763V28L26 24.7442L22.763 21.4884V23.7674ZM9.75 5.2093C11.18 5.2093 12.35 4.03721 12.35 2.60465C12.35 1.17209 11.18 0 9.75 0C8.32 0 7.15 1.17209 7.15 2.60465C7.15 4.03721 8.32 5.2093 9.75 5.2093ZM4.875 9.63721L1.3 28H4.03L6.305 17.5814L9.1 20.186V28H11.7V18.1674L9.035 15.4977L9.815 11.5907C11.505 13.6744 14.04 14.9767 16.9 14.9767V12.3721C14.495 12.3721 12.415 11.0698 11.245 9.1814L10.01 7.09767C9.555 6.31628 8.71 5.86047 7.8 5.86047C7.475 5.86047 7.15 5.92558 6.825 6.05581L0 8.85581V14.9767H2.6V10.614L4.875 9.63721Z" fill="#0D0D0D"/>
</svg>
