<svg width="26" height="26" viewBox="0 0 26 26" fill="none" xmlns="http://www.w3.org/2000/svg">
<path d="M13 5.2H9.1C8.75522 5.2 8.42456 5.33696 8.18076 5.58076C7.93696 5.82456 7.8 6.15522 7.8 6.5V19.5C7.8 19.8448 7.93696 20.1754 8.18076 20.4192C8.42456 20.663 8.75522 20.8 9.1 20.8C9.44478 20.8 9.77544 20.663 10.0192 20.4192C10.263 20.1754 10.4 19.8448 10.4 19.5V15.6H13C14.3791 15.6 15.7018 15.0521 16.677 14.077C17.6521 13.1018 18.2 11.7791 18.2 10.4C18.2 9.02087 17.6521 7.69823 16.677 6.72304C15.7018 5.74786 14.3791 5.2 13 5.2ZM13 13H10.4V7.8H13C13.6896 7.8 14.3509 8.07393 14.8385 8.56152C15.3261 9.04912 15.6 9.71044 15.6 10.4C15.6 11.0896 15.3261 11.7509 14.8385 12.2385C14.3509 12.7261 13.6896 13 13 13ZM22.1 0H3.9C2.86566 0 1.87368 0.410892 1.14228 1.14228C0.410892 1.87368 0 2.86566 0 3.9V22.1C0 23.1343 0.410892 24.1263 1.14228 24.8577C1.87368 25.5891 2.86566 26 3.9 26H22.1C23.1343 26 24.1263 25.5891 24.8577 24.8577C25.5891 24.1263 26 23.1343 26 22.1V3.9C26 2.86566 25.5891 1.87368 24.8577 1.14228C24.1263 0.410892 23.1343 0 22.1 0ZM23.4 22.1C23.4 22.4448 23.263 22.7754 23.0192 23.0192C22.7754 23.263 22.4448 23.4 22.1 23.4H3.9C3.55522 23.4 3.22456 23.263 2.98076 23.0192C2.73696 22.7754 2.6 22.4448 2.6 22.1V3.9C2.6 3.55522 2.73696 3.22456 2.98076 2.98076C3.22456 2.73696 3.55522 2.6 3.9 2.6H22.1C22.4448 2.6 22.7754 2.73696 23.0192 2.98076C23.263 3.22456 23.4 3.55522 23.4 3.9V22.1Z" fill="#0D0D0D"/>
</svg>
