<svg width="200" height="52" viewBox="0 0 200 52" fill="none" xmlns="http://www.w3.org/2000/svg">
<path d="M0 0H200V12.6L193.074 25.2L200 38.6V52H0V38.6L8.65801 25.6L0 12.6V0Z" fill="#00303E"/>
<path d="M65.0626 31L63.9426 28.424H59.3826L58.2146 31H56.4546L61.7666 19.704L66.8226 31H65.0626ZM60.0546 26.888H63.2866L61.7026 23.272L60.0546 26.888ZM67.8826 24.264H73.7386V31H72.1706V25.704H69.4506V31H67.8826V24.264ZM80.6544 25.048V24.264H82.2224V31H80.6544V30.296C80.1317 30.904 79.4597 31.208 78.6384 31.208C77.6464 31.208 76.8517 30.856 76.2544 30.152C75.6677 29.448 75.3744 28.6053 75.3744 27.624C75.3744 26.5573 75.689 25.704 76.3184 25.064C76.9584 24.4133 77.737 24.088 78.6544 24.088C79.497 24.088 80.1637 24.408 80.6544 25.048ZM78.8464 25.496C78.2917 25.496 77.8384 25.704 77.4864 26.12C77.145 26.536 76.9744 27.048 76.9744 27.656C76.9744 28.2533 77.145 28.76 77.4864 29.176C77.8384 29.592 78.2917 29.8 78.8464 29.8C79.3797 29.8 79.8277 29.6133 80.1904 29.24C80.5637 28.8667 80.7504 28.344 80.7504 27.672C80.7504 26.9787 80.5637 26.4453 80.1904 26.072C79.8277 25.688 79.3797 25.496 78.8464 25.496ZM85.7788 30.216V34.664H84.2108V24.264H85.7788V25C86.2908 24.392 86.9574 24.088 87.7788 24.088C88.6961 24.088 89.4694 24.4133 90.0988 25.064C90.7388 25.704 91.0588 26.5467 91.0588 27.592C91.0588 28.6693 90.7281 29.544 90.0668 30.216C89.4054 30.8773 88.6481 31.208 87.7948 31.208C86.9948 31.208 86.3228 30.8773 85.7788 30.216ZM87.5868 25.496C87.0534 25.496 86.6001 25.688 86.2268 26.072C85.8641 26.4453 85.6828 26.9787 85.6828 27.672C85.6828 28.344 85.8641 28.8667 86.2268 29.24C86.6001 29.6133 87.0534 29.8 87.5868 29.8C88.1414 29.8 88.5894 29.592 88.9308 29.176C89.2828 28.76 89.4588 28.2533 89.4588 27.656C89.4588 27.048 89.2828 26.536 88.9308 26.12C88.5894 25.704 88.1414 25.496 87.5868 25.496ZM97.3351 25.704H95.3671V31H93.7991V25.704H91.8311V24.264H97.3351V25.704ZM103.217 25.048V24.264H104.785V31H103.217V30.296C102.694 30.904 102.022 31.208 101.201 31.208C100.209 31.208 99.4142 30.856 98.8169 30.152C98.2302 29.448 97.9369 28.6053 97.9369 27.624C97.9369 26.5573 98.2515 25.704 98.8809 25.064C99.5209 24.4133 100.3 24.088 101.217 24.088C102.06 24.088 102.726 24.408 103.217 25.048ZM101.409 25.496C100.854 25.496 100.401 25.704 100.049 26.12C99.7075 26.536 99.5369 27.048 99.5369 27.656C99.5369 28.2533 99.7075 28.76 100.049 29.176C100.401 29.592 100.854 29.8 101.409 29.8C101.942 29.8 102.39 29.6133 102.753 29.24C103.126 28.8667 103.313 28.344 103.313 27.672C103.313 26.9787 103.126 26.4453 102.753 26.072C102.39 25.688 101.942 25.496 101.409 25.496ZM106.005 31L107.637 23.656L110.421 28.792L113.205 23.656L114.837 31H113.237L112.565 27.624L110.421 31.512L108.277 27.624L107.605 31H106.005ZM120.775 28.728L122.087 29.464C121.788 29.9973 121.409 30.408 120.951 30.696C120.428 31.0373 119.767 31.208 118.967 31.208C118.028 31.208 117.271 30.92 116.695 30.344C116.033 29.6827 115.703 28.824 115.703 27.768C115.703 26.6587 116.06 25.736 116.775 25C117.383 24.392 118.135 24.088 119.031 24.088C119.905 24.088 120.625 24.3813 121.191 24.968C121.82 25.6187 122.135 26.568 122.135 27.816V28.008H117.303C117.345 28.5733 117.537 29.0267 117.879 29.368C118.167 29.656 118.567 29.8 119.079 29.8C119.495 29.8 119.852 29.688 120.151 29.464C120.396 29.272 120.604 29.0267 120.775 28.728ZM117.414 26.728H120.535C120.471 26.3547 120.311 26.0507 120.055 25.816C119.777 25.56 119.425 25.432 118.999 25.432C118.551 25.432 118.183 25.576 117.895 25.864C117.66 26.0773 117.5 26.3653 117.414 26.728ZM123.773 31V24.264H125.341V26.76H128.125V24.264H129.693V31H128.125V28.2H125.341V31H123.773ZM136.32 25.704H134.352V31H132.784V25.704H130.816V24.264H136.32V25.704ZM137.445 24.264H139.013V28.088L143.621 23.656V31H142.053V27.08L137.445 31.512V24.264Z" fill="white"/>
</svg>
