<svg width="14" height="18" viewBox="0 0 14 18" fill="none" xmlns="http://www.w3.org/2000/svg">
<path d="M11.5825 4.09507V1.71197H12.3064C12.4984 1.71197 12.6825 1.6357 12.8183 1.49994C12.954 1.36419 13.0303 1.18006 13.0303 0.988066C13.0303 0.796074 12.954 0.611946 12.8183 0.476187C12.6825 0.340429 12.4984 0.26416 12.3064 0.26416H0.723906C0.531914 0.26416 0.347786 0.340429 0.212027 0.476187C0.0762684 0.611946 0 0.796074 0 0.988066C0 1.18006 0.0762684 1.36419 0.212027 1.49994C0.347786 1.6357 0.531914 1.71197 0.723906 1.71197H1.44781V4.09507C1.44475 5.03683 1.70558 5.96061 2.20074 6.76169C2.6959 7.56277 3.40558 8.20911 4.24933 8.62744L4.8965 8.95103L4.24933 9.27461C3.40558 9.69294 2.6959 10.3393 2.20074 11.1404C1.70558 11.9415 1.44475 12.8652 1.44781 13.807V16.1901H0.723906C0.531914 16.1901 0.347786 16.2664 0.212027 16.4021C0.0762684 16.5379 0 16.722 0 16.914C0 17.106 0.0762684 17.2901 0.212027 17.4259C0.347786 17.5616 0.531914 17.6379 0.723906 17.6379H12.3064C12.4984 17.6379 12.6825 17.5616 12.8183 17.4259C12.954 17.2901 13.0303 17.106 13.0303 16.914C13.0303 16.722 12.954 16.5379 12.8183 16.4021C12.6825 16.2664 12.4984 16.1901 12.3064 16.1901H11.5825V13.807C11.5856 12.8652 11.3247 11.9415 10.8296 11.1404C10.3344 10.3393 9.62473 9.69294 8.78098 9.27461L8.13381 8.95103L8.78098 8.62744C9.62473 8.20911 10.3344 7.56277 10.8296 6.76169C11.3247 5.96061 11.5856 5.03683 11.5825 4.09507ZM2.89562 4.09507V1.71197H10.1347V4.09507C10.137 4.76774 9.95077 5.4276 9.59711 5.99981C9.24345 6.57201 8.73651 7.03365 8.13381 7.33238L6.51515 8.1417L4.8965 7.33238C4.29379 7.03365 3.78686 6.57201 3.43319 5.99981C3.07953 5.4276 2.8933 4.76774 2.89562 4.09507ZM10.1347 13.807V16.1901H2.89562V13.807C2.8933 13.1343 3.07953 12.4745 3.43319 11.9023C3.78686 11.33 4.29379 10.8684 4.8965 10.5697L6.51515 9.76036L8.13381 10.5697C8.73651 10.8684 9.24345 11.33 9.59711 11.9023C9.95077 12.4745 10.137 13.1343 10.1347 13.807Z" fill="#00303E"/>
<path d="M5.54435 6.03724C5.71588 6.12129 5.91368 6.13414 6.09464 6.07299C6.2756 6.01184 6.42506 5.88165 6.51045 5.71078C6.59583 5.53991 6.61022 5.34222 6.55049 5.16079C6.49075 4.97936 6.36172 4.82889 6.19153 4.74217C6.07098 4.6825 5.96957 4.59023 5.89881 4.47583C5.82806 4.36144 5.79078 4.22951 5.79121 4.095C5.79121 3.90301 5.71494 3.71888 5.57918 3.58312C5.44342 3.44736 5.25929 3.37109 5.0673 3.37109C4.87531 3.37109 4.69118 3.44736 4.55542 3.58312C4.41966 3.71888 4.34339 3.90301 4.34339 4.095C4.34214 4.49861 4.45398 4.8945 4.66625 5.23779C4.87851 5.58107 5.18271 5.85802 5.54435 6.03724ZM7.48587 11.8647C7.31434 11.7806 7.11655 11.7678 6.93558 11.8289C6.75462 11.8901 6.60516 12.0203 6.51978 12.1911C6.43439 12.362 6.42 12.5597 6.47974 12.7411C6.53947 12.9226 6.6685 13.073 6.8387 13.1597C6.95924 13.2194 7.06065 13.3117 7.13141 13.4261C7.20217 13.5405 7.23945 13.6724 7.23902 13.8069C7.23902 13.9989 7.31529 14.183 7.45104 14.3188C7.5868 14.4546 7.77093 14.5308 7.96292 14.5308C8.15491 14.5308 8.33904 14.4546 8.4748 14.3188C8.61056 14.183 8.68683 13.9989 8.68683 13.8069C8.68809 13.4033 8.57624 13.0074 8.36397 12.6641C8.15171 12.3208 7.84751 12.0439 7.48587 11.8647Z" fill="#00303E"/>
</svg>
