<svg width="21" height="22" viewBox="0 0 21 22" fill="none" xmlns="http://www.w3.org/2000/svg">
<mask id="mask0_239_25" style="mask-type:luminance" maskUnits="userSpaceOnUse" x="0" y="0" width="21" height="22">
<path d="M21 0.26416H0V21.2644H21V0.26416Z" fill="white"/>
</mask>
<g mask="url(#mask0_239_25)">
<path fill-rule="evenodd" clip-rule="evenodd" d="M21.0004 10.7644C21.0004 10.4022 20.7062 10.1082 20.3438 10.1082H3.28132C2.91891 10.1082 2.62476 10.4022 2.62476 10.7644V20.6083C2.62476 20.9706 2.91891 21.2646 3.28132 21.2646H20.3438C20.7062 21.2646 21.0004 20.9706 21.0004 20.6083V10.7644ZM3.93788 11.4207V19.952H19.6873V11.4207H3.93788Z" fill="white"/>
<path fill-rule="evenodd" clip-rule="evenodd" d="M21 3.54547C21 3.1826 20.706 2.88904 20.3437 2.88904H17.7187C17.3565 2.88904 17.0625 3.1826 17.0625 3.54547V10.7643C17.0625 11.1272 17.3565 11.4208 17.7187 11.4208H20.3437C20.706 11.4208 21 11.1272 21 10.7643V3.54547ZM18.375 4.20191V10.1079H19.6875V4.20191H18.375Z" fill="white"/>
<path fill-rule="evenodd" clip-rule="evenodd" d="M17.7186 6.17052V5.51453C15.9065 5.51453 14.4374 6.98332 14.4374 8.79573C14.4374 9.82475 14.4374 10.7643 14.4374 10.7643C14.4374 11.1269 14.7314 11.4203 15.0936 11.4203H17.7186C18.0809 11.4203 18.3749 11.1269 18.3749 10.7643V6.17052H17.7186ZM17.0624 6.93922C16.2976 7.20872 15.7499 7.93822 15.7499 8.79573V10.1083H17.0624V6.93922Z" fill="white"/>
<path fill-rule="evenodd" clip-rule="evenodd" d="M12.4687 4.85828H7.21875C6.8565 4.85828 6.5625 5.15228 6.5625 5.51454C6.5625 5.87679 6.8565 6.17079 7.21875 6.17079H12.4687C12.831 6.17079 13.125 5.87679 13.125 5.51454C13.125 5.15228 12.831 4.85828 12.4687 4.85828Z" fill="white"/>
<path fill-rule="evenodd" clip-rule="evenodd" d="M11.8125 5.51454C11.8125 6.6013 10.9305 7.48331 9.84375 7.48331C8.757 7.48331 7.875 6.6013 7.875 5.51454C7.875 5.15228 7.581 4.85828 7.21875 4.85828C6.8565 4.85828 6.5625 5.15228 6.5625 5.51454C6.5625 7.32581 8.0325 8.79583 9.84375 8.79583C11.655 8.79583 13.125 7.32581 13.125 5.51454C13.125 5.15228 12.831 4.85828 12.4687 4.85828C12.1065 4.85828 11.8125 5.15228 11.8125 5.51454Z" fill="white"/>
<path fill-rule="evenodd" clip-rule="evenodd" d="M1.31234 5.51446C1.31234 3.34158 3.07726 1.57664 5.2501 1.57664C7.42295 1.57664 9.18787 3.34158 9.18787 5.51446C9.18787 5.87645 9.48187 6.17045 9.84385 6.17045C10.2058 6.17045 10.4998 5.87645 10.4998 5.51446C10.4998 2.61668 8.14784 0.264648 5.2501 0.264648C2.35236 0.264648 0.000366211 2.61668 0.000366211 5.51446C0.000366211 5.87645 0.294363 6.17045 0.656351 6.17045C1.01834 6.17045 1.31234 5.87645 1.31234 5.51446Z" fill="white"/>
<path fill-rule="evenodd" clip-rule="evenodd" d="M-0.00012207 5.51454V20.6085C-0.00012207 20.9707 0.293878 21.2647 0.656128 21.2647C1.01838 21.2647 1.31238 20.9707 1.31238 20.6085V5.51454C1.31238 5.15228 1.01838 4.85828 0.656128 4.85828C0.293878 4.85828 -0.00012207 5.15228 -0.00012207 5.51454Z" fill="white"/>
</g>
</svg>
