<svg width="21" height="12" viewBox="0 0 21 12" fill="none" xmlns="http://www.w3.org/2000/svg">
<path d="M10.5 0C7.65975 0 5.08275 0.7845 3.1725 2.1075C1.263 3.42825 0 5.34 0 7.5C0 7.69891 0.0790176 7.88968 0.21967 8.03033C0.360322 8.17098 0.551088 8.25 0.75 8.25C0.948912 8.25 1.13968 8.17098 1.28033 8.03033C1.42098 7.88968 1.5 7.69891 1.5 7.5C1.5 5.92125 2.412 4.458 4.0275 3.3405C5.64075 2.22225 7.938 1.5 10.5 1.5C13.0612 1.5 15.36 2.22225 16.9748 3.3405C18.5895 4.458 19.5 5.92125 19.5 7.5C19.5 7.69891 19.579 7.88968 19.7197 8.03033C19.8603 8.17098 20.0511 8.25 20.25 8.25C20.4489 8.25 20.6397 8.17098 20.7803 8.03033C20.921 7.88968 21 7.69891 21 7.5C21 5.34 19.7385 3.429 17.8283 2.1075C15.9187 0.78375 13.3403 0 10.5 0Z" fill="#0D0D0D"/>
<path d="M10.5 4.49994C8.4375 4.49994 6.75 6.18744 6.75 8.24994C6.75 10.3124 8.4375 11.9999 10.5 11.9999C12.5625 11.9999 14.25 10.3124 14.25 8.24994C14.25 6.18744 12.5625 4.49994 10.5 4.49994ZM10.5 5.99994C11.7517 5.99994 12.75 6.99894 12.75 8.24994C12.75 9.50244 11.7517 10.4999 10.5 10.4999C9.24825 10.4999 8.25 9.50244 8.25 8.24994C8.25 6.99894 9.24825 5.99994 10.5 5.99994Z" fill="#0D0D0D"/>
</svg>
