<svg width="22" height="23" viewBox="0 0 22 23" fill="none" xmlns="http://www.w3.org/2000/svg">
<path d="M17.7419 0.26416H3.54839C3.08241 0.26416 2.62099 0.355942 2.19048 0.534265C1.75997 0.712588 1.3688 0.973961 1.0393 1.30346C0.373847 1.96891 9.21102e-09 2.87146 9.21102e-09 3.81255V12.3287C-6.72239e-05 13.2624 0.367929 14.1586 1.0242 14.8228C1.68047 15.4871 2.57212 15.8659 3.50581 15.8771H17.7419C18.683 15.8771 19.5856 15.5032 20.251 14.8378C20.9165 14.1723 21.2903 13.2698 21.2903 12.3287V3.81255C21.2903 2.87146 20.9165 1.96891 20.251 1.30346C19.5856 0.638007 18.683 0.26416 17.7419 0.26416ZM17.0323 14.4577H4.25807V12.3287C4.25807 12.1405 4.33284 11.96 4.46593 11.8269C4.59902 11.6938 4.77953 11.619 4.96774 11.619H16.3226C16.5108 11.619 16.6913 11.6938 16.8244 11.8269C16.9575 11.96 17.0323 12.1405 17.0323 12.3287V14.4577ZM19.871 12.3287C19.8712 12.7691 19.7348 13.1988 19.4806 13.5585C19.2264 13.9182 18.8669 14.1903 18.4516 14.3371V12.3287C18.4516 11.764 18.2273 11.2225 17.828 10.8232C17.4288 10.424 16.8872 10.1997 16.3226 10.1997H4.96774C4.40309 10.1997 3.86156 10.424 3.46229 10.8232C3.06302 11.2225 2.83871 11.764 2.83871 12.3287V14.3229C2.42571 14.1769 2.06781 13.907 1.8138 13.5501C1.55979 13.1933 1.42205 12.7667 1.41936 12.3287V3.81255C1.41936 3.24789 1.64366 2.70637 2.04294 2.3071C2.44221 1.90782 2.98373 1.68352 3.54839 1.68352H17.7419C18.3066 1.68352 18.8481 1.90782 19.2474 2.3071C19.6467 2.70637 19.871 3.24789 19.871 3.81255V12.3287Z" fill="white"/>
<path d="M17.742 3.10278H14.9033C14.7151 3.10278 14.5346 3.17755 14.4015 3.31064C14.2684 3.44373 14.1936 3.62424 14.1936 3.81246C14.1936 4.00068 14.2684 4.18119 14.4015 4.31428C14.5346 4.44737 14.7151 4.52214 14.9033 4.52214H17.742C17.9302 4.52214 18.1107 4.44737 18.2438 4.31428C18.3769 4.18119 18.4517 4.00068 18.4517 3.81246C18.4517 3.62424 18.3769 3.44373 18.2438 3.31064C18.1107 3.17755 17.9302 3.10278 17.742 3.10278Z" fill="white"/>
<path fill-rule="evenodd" clip-rule="evenodd" d="M10.6451 22.2642C10.8945 22.2642 11.0967 22.0656 11.0967 21.8207V20.0465C11.0967 19.8016 10.8945 19.603 10.6451 19.603C10.3958 19.603 10.1935 19.8016 10.1935 20.0465V21.8207C10.1935 22.0656 10.3958 22.2642 10.6451 22.2642ZM15.3632 21.3303C15.5863 21.2207 15.6767 20.9544 15.5652 20.7352L14.662 18.9611C14.5504 18.742 14.2792 18.6532 14.0561 18.7627C13.833 18.8723 13.7426 19.1387 13.8542 19.3578L14.7574 21.1319C14.8689 21.3511 15.1401 21.4399 15.3632 21.3303ZM5.92723 21.3303C6.15031 21.4399 6.42158 21.3511 6.53312 21.1319L7.43633 19.3578C7.54787 19.1387 7.45745 18.8723 7.23437 18.7627C7.01129 18.6532 6.74002 18.742 6.62848 18.9611L5.72527 20.7352C5.61372 20.9544 5.70414 21.2207 5.92723 21.3303Z" fill="white"/>
</svg>
