<svg width="21" height="22" viewBox="0 0 21 22" fill="none" xmlns="http://www.w3.org/2000/svg">
<path d="M18.9 14.9642L18.9 19.1642L14.7 19.1642C14.4215 19.1642 14.1545 19.2748 13.9575 19.4717C13.7606 19.6686 13.65 19.9357 13.65 20.2142C13.65 20.4926 13.7606 20.7597 13.9575 20.9566C14.1545 21.1535 14.4215 21.2642 14.7 21.2642L19.95 21.2642C20.2285 21.2642 20.4955 21.1535 20.6925 20.9566C20.8894 20.7597 21 20.4926 21 20.2142L21 14.9642C21 14.6857 20.8894 14.4186 20.6925 14.2217C20.4955 14.0248 20.2285 13.9142 19.95 13.9142C19.6715 13.9142 19.4044 14.0248 19.2075 14.2217C19.0106 14.4186 18.9 14.6857 18.9 14.9642ZM-8.72042e-07 1.31416L-6.42557e-07 6.56416C-6.30385e-07 6.84264 0.110624 7.10971 0.307537 7.30662C0.50445 7.50354 0.771522 7.61416 1.05 7.61416C1.32848 7.61416 1.59555 7.50354 1.79246 7.30662C1.98937 7.10971 2.1 6.84264 2.1 6.56416L2.1 2.36416L6.3 2.36416C6.57848 2.36416 6.84555 2.25354 7.04246 2.05662C7.23937 1.85971 7.35 1.59264 7.35 1.31416C7.35 1.03568 7.23937 0.768612 7.04246 0.571697C6.84555 0.374784 6.57848 0.26416 6.3 0.26416L1.05 0.26416C0.771522 0.26416 0.50445 0.374784 0.307537 0.571697C0.110624 0.768612 -8.84215e-07 1.03568 -8.72042e-07 1.31416Z" fill="white"/>
</svg>
