<svg width="25" height="21" viewBox="0 0 25 21" fill="none" xmlns="http://www.w3.org/2000/svg">
<path d="M2 10V20C2 20.2652 1.89464 20.5196 1.70711 20.7071C1.51957 20.8946 1.26522 21 1 21C0.734784 21 0.48043 20.8946 0.292893 20.7071C0.105357 20.5196 0 20.2652 0 20V10C0 9.73478 0.105357 9.48043 0.292893 9.29289C0.48043 9.10536 0.734784 9 1 9C1.26522 9 1.51957 9.10536 1.70711 9.29289C1.89464 9.48043 2 9.73478 2 10Z" fill="#0D0D0D"/>
<path d="M24 19H1C0.734784 19 0.48043 18.8946 0.292893 18.7071C0.105357 18.5196 0 18.2652 0 18V12C0 11.7348 0.105357 11.4804 0.292893 11.2929C0.48043 11.1054 0.734784 11 1 11H24C24.2652 11 24.5196 11.1054 24.7071 11.2929C24.8946 11.4804 25 11.7348 25 12V18C25 18.2652 24.8946 18.5196 24.7071 18.7071C24.5196 18.8946 24.2652 19 24 19ZM2 17H23V13H2V17ZM14 9.008H11C10.7348 9.008 10.4804 8.90264 10.2929 8.71511C10.1054 8.52757 10 8.27322 10 8.008V7H7V8C7 8.26522 6.89464 8.51957 6.70711 8.70711C6.51957 8.89464 6.26522 9 6 9H3C2.73478 9 2.48043 8.89464 2.29289 8.70711C2.10536 8.51957 2 8.26522 2 8V3C2 1.346 3.346 0 5 0H20C21.654 0 23 1.346 23 3V8C23 8.26522 22.8946 8.51957 22.7071 8.70711C22.5196 8.89464 22.2652 9 22 9H19C18.7348 9 18.4804 8.89464 18.2929 8.70711C18.1054 8.51957 18 8.26522 18 8V7H15V8.008C15 8.27322 14.8946 8.52757 14.7071 8.71511C14.5196 8.90264 14.2652 9.008 14 9.008ZM12 7.008L13 7C13 5.897 13.897 5 15 5H18C19.103 5 20 5.897 20 7H21V3C21 2.449 20.551 2 20 2H5C4.449 2 4 2.449 4 3V7H5C5 5.897 5.897 5 7 5H10C11.103 5 12 5.897 12 7V7.008Z" fill="#0D0D0D"/>
<path d="M25 10V20C25 20.2652 24.8946 20.5196 24.7071 20.7071C24.5196 20.8946 24.2652 21 24 21C23.7348 21 23.4804 20.8946 23.2929 20.7071C23.1054 20.5196 23 20.2652 23 20V10C23 9.73478 23.1054 9.48043 23.2929 9.29289C23.4804 9.10536 23.7348 9 24 9C24.2652 9 24.5196 9.10536 24.7071 9.29289C24.8946 9.48043 25 9.73478 25 10Z" fill="#0D0D0D"/>
</svg>
