<svg width="21" height="13" viewBox="0 0 21 13" fill="none" xmlns="http://www.w3.org/2000/svg">
<path d="M10.5 0.26416C7.65975 0.26416 5.08275 1.04866 3.1725 2.37166C1.263 3.69241 0 5.60416 0 7.76416C0 7.96307 0.0790176 8.15384 0.21967 8.29449C0.360322 8.43514 0.551088 8.51416 0.75 8.51416C0.948912 8.51416 1.13968 8.43514 1.28033 8.29449C1.42098 8.15384 1.5 7.96307 1.5 7.76416C1.5 6.18541 2.412 4.72216 4.0275 3.60466C5.64075 2.48641 7.938 1.76416 10.5 1.76416C13.0612 1.76416 15.36 2.48641 16.9748 3.60466C18.5895 4.72216 19.5 6.18541 19.5 7.76416C19.5 7.96307 19.579 8.15384 19.7197 8.29449C19.8603 8.43514 20.0511 8.51416 20.25 8.51416C20.4489 8.51416 20.6397 8.43514 20.7803 8.29449C20.921 8.15384 21 7.96307 21 7.76416C21 5.60416 19.7385 3.69316 17.8283 2.37166C15.9187 1.04791 13.3403 0.26416 10.5 0.26416Z" fill="white"/>
<path d="M10.5 4.76404C8.4375 4.76404 6.75 6.45154 6.75 8.51404C6.75 10.5765 8.4375 12.264 10.5 12.264C12.5625 12.264 14.25 10.5765 14.25 8.51404C14.25 6.45154 12.5625 4.76404 10.5 4.76404ZM10.5 6.26404C11.7517 6.26404 12.75 7.26304 12.75 8.51404C12.75 9.76654 11.7517 10.764 10.5 10.764C9.24825 10.764 8.25 9.76654 8.25 8.51404C8.25 7.26304 9.24825 6.26404 10.5 6.26404Z" fill="white"/>
</svg>
