<svg width="22" height="22" viewBox="0 0 22 22" fill="none" xmlns="http://www.w3.org/2000/svg">
<path d="M17.7749 0H3.58135C3.11537 0 2.65395 0.0917818 2.22344 0.270105C1.79293 0.448428 1.40176 0.709801 1.07226 1.0393C0.406806 1.70475 0.032959 2.6073 0.032959 3.54839V12.0645C0.0328918 12.9983 0.400888 13.8944 1.05716 14.5587C1.71343 15.2229 2.60507 15.6017 3.53877 15.6129H17.7749C18.716 15.6129 19.6185 15.2391 20.284 14.5736C20.9494 13.9082 21.3233 13.0056 21.3233 12.0645V3.54839C21.3233 2.6073 20.9494 1.70475 20.284 1.0393C19.6185 0.373847 18.716 0 17.7749 0ZM17.0652 14.1936H4.29103V12.0645C4.29103 11.8763 4.3658 11.6958 4.49889 11.5627C4.63198 11.4296 4.81249 11.3548 5.0007 11.3548H16.3555C16.5438 11.3548 16.7243 11.4296 16.8574 11.5627C16.9905 11.6958 17.0652 11.8763 17.0652 12.0645V14.1936ZM19.9039 12.0645C19.9042 12.505 19.7678 12.9347 19.5136 13.2944C19.2594 13.6541 18.8999 13.9261 18.4846 14.0729V12.0645C18.4846 11.4999 18.2603 10.9583 17.861 10.5591C17.4617 10.1598 16.9202 9.93549 16.3555 9.93549H5.0007C4.43605 9.93549 3.89452 10.1598 3.49525 10.5591C3.09598 10.9583 2.87167 11.4999 2.87167 12.0645V14.0587C2.45867 13.9127 2.10077 13.6429 1.84676 13.286C1.59275 12.9291 1.45501 12.5026 1.45231 12.0645V3.54839C1.45231 2.98373 1.67662 2.44221 2.07589 2.04294C2.47517 1.64366 3.01669 1.41936 3.58135 1.41936H17.7749C18.3396 1.41936 18.8811 1.64366 19.2804 2.04294C19.6796 2.44221 19.9039 2.98373 19.9039 3.54839V12.0645Z" fill="#0D0D0D"/>
<path d="M17.775 2.83862H14.9362C14.748 2.83862 14.5675 2.91339 14.4344 3.04648C14.3013 3.17957 14.2266 3.36008 14.2266 3.5483C14.2266 3.73652 14.3013 3.91703 14.4344 4.05012C14.5675 4.18321 14.748 4.25798 14.9362 4.25798H17.775C17.9632 4.25798 18.1437 4.18321 18.2768 4.05012C18.4099 3.91703 18.4846 3.73652 18.4846 3.5483C18.4846 3.36008 18.4099 3.17957 18.2768 3.04648C18.1437 2.91339 17.9632 2.83862 17.775 2.83862Z" fill="#0D0D0D"/>
<path fill-rule="evenodd" clip-rule="evenodd" d="M10.6781 22C10.9275 22 11.1297 21.8014 11.1297 21.5565V19.7824C11.1297 19.5374 10.9275 19.3388 10.6781 19.3388C10.4287 19.3388 10.2265 19.5374 10.2265 19.7824V21.5565C10.2265 21.8014 10.4287 22 10.6781 22ZM15.3962 21.0661C15.6193 20.9566 15.7097 20.6902 15.5982 20.4711L14.6949 18.6969C14.5834 18.4778 14.3122 18.389 14.0891 18.4986C13.866 18.6081 13.7756 18.8745 13.8871 19.0936L14.7903 20.8678C14.9019 21.0869 15.1731 21.1757 15.3962 21.0661ZM5.96019 21.0661C6.18327 21.1757 6.45454 21.0869 6.56608 20.8678L7.46929 19.0936C7.58083 18.8745 7.49041 18.6081 7.26733 18.4986C7.04425 18.389 6.77298 18.4778 6.66144 18.6969L5.75823 20.4711C5.64668 20.6902 5.7371 20.9566 5.96019 21.0661Z" fill="#0D0D0D"/>
</svg>
