<svg width="21" height="21" viewBox="0 0 21 21" fill="none" xmlns="http://www.w3.org/2000/svg">
<path d="M18.9 14.7L18.9 18.9L14.7 18.9C14.4215 18.9 14.1545 19.0106 13.9575 19.2075C13.7606 19.4045 13.65 19.6715 13.65 19.95C13.65 20.2285 13.7606 20.4955 13.9575 20.6925C14.1545 20.8894 14.4215 21 14.7 21L19.95 21C20.2285 21 20.4955 20.8894 20.6925 20.6925C20.8894 20.4955 21 20.2285 21 19.95L21 14.7C21 14.4215 20.8894 14.1545 20.6925 13.9575C20.4955 13.7606 20.2285 13.65 19.95 13.65C19.6715 13.65 19.4044 13.7606 19.2075 13.9575C19.0106 14.1545 18.9 14.4215 18.9 14.7ZM-8.72042e-07 1.05L-6.42557e-07 6.3C-6.30385e-07 6.57848 0.110624 6.84555 0.307537 7.04246C0.50445 7.23938 0.771522 7.35 1.05 7.35C1.32848 7.35 1.59555 7.23938 1.79246 7.04246C1.98937 6.84555 2.1 6.57848 2.1 6.3L2.1 2.1L6.3 2.1C6.57848 2.1 6.84555 1.98938 7.04246 1.79246C7.23937 1.59555 7.35 1.32848 7.35 1.05C7.35 0.771524 7.23937 0.504451 7.04246 0.307537C6.84555 0.110624 6.57848 -2.87554e-07 6.3 -2.75382e-07L1.05 -4.5897e-08C0.771522 -3.37243e-08 0.50445 0.110624 0.307537 0.307537C0.110624 0.504452 -8.84215e-07 0.771524 -8.72042e-07 1.05Z" fill="#0D0D0D"/>
</svg>
