<svg width="22" height="16" viewBox="0 0 22 16" fill="none" xmlns="http://www.w3.org/2000/svg">
<path fill-rule="evenodd" clip-rule="evenodd" d="M9.427 13.7492L10.9989 15.2642L12.5708 13.7492C12.1521 13.3468 11.5876 13.1212 10.9994 13.1212C10.4113 13.1212 9.84569 13.3468 9.427 13.7492ZM6.2854 10.7192L7.8573 12.2342C8.69551 11.431 9.82421 10.9809 11 10.9809C12.1758 10.9809 13.3045 11.431 14.1427 12.2342L15.7146 10.7192C14.4583 9.51208 12.7646 8.83532 11 8.83532C9.23535 8.83532 7.54166 9.51208 6.2854 10.7192ZM0 4.65809L1.5708 6.17309C6.7705 1.15987 15.2295 1.15987 20.4281 6.17309L22 4.65809C15.9236 -1.20048 6.0753 -1.20048 0 4.65809ZM18.8562 7.68809L17.2854 9.20309C13.8204 5.8613 8.1807 5.8613 4.7135 9.20309L3.1427 7.68809C7.4811 3.50416 14.5167 3.50416 18.8562 7.68809Z" fill="white"/>
</svg>
