<svg width="20" height="23" viewBox="0 0 20 23" fill="none" xmlns="http://www.w3.org/2000/svg">
<path d="M17.9663 20.6038H17.1214V18.9814C17.106 18.5435 16.9212 18.1287 16.6059 17.8244C16.2907 17.5202 15.8695 17.3503 15.4314 17.3506H14.5357L13.8006 6.7713H15.4314C15.5573 6.80803 15.6901 6.81494 15.8191 6.79147C15.9482 6.76801 16.07 6.71481 16.175 6.63611C16.2799 6.5574 16.3651 6.45534 16.4238 6.33801C16.4824 6.22067 16.513 6.09129 16.513 5.96011C16.513 5.82893 16.4824 5.69956 16.4238 5.58222C16.3651 5.46489 16.2799 5.36283 16.175 5.28412C16.07 5.20542 15.9482 5.15222 15.8191 5.12876C15.6901 5.10529 15.5573 5.1122 15.4314 5.14893H14.5864C14.5598 3.8296 14.0111 2.57466 13.0608 1.65915C12.1104 0.743642 10.8359 0.24226 9.51647 0.264895C8.19707 0.24226 6.92251 0.743642 5.97216 1.65915C5.02181 2.57466 4.47318 3.8296 4.44654 5.14893H3.60155C3.47562 5.1122 3.34286 5.10529 3.2138 5.12876C3.08473 5.15222 2.96291 5.20542 2.85796 5.28412C2.75302 5.36283 2.66784 5.46489 2.60917 5.58222C2.55051 5.69956 2.51997 5.82893 2.51997 5.96011C2.51997 6.09129 2.55051 6.22067 2.60917 6.33801C2.66784 6.45534 2.75302 6.5574 2.85796 6.63611C2.96291 6.71481 3.08473 6.76801 3.2138 6.79147C3.34286 6.81494 3.47562 6.80803 3.60155 6.7713H5.23238L4.49724 17.3506H3.60155C3.1634 17.3503 2.74228 17.5202 2.42699 17.8244C2.11171 18.1287 1.92691 18.5435 1.91157 18.9814V20.6038H1.06659C0.941267 20.5697 0.809784 20.565 0.682348 20.59C0.554912 20.615 0.434952 20.669 0.331784 20.7479C0.228615 20.8268 0.145014 20.9284 0.0874735 21.0448C0.0299325 21.1612 0 21.2893 0 21.4192C0 21.549 0.0299325 21.6772 0.0874735 21.7936C0.145014 21.91 0.228615 22.0116 0.331784 22.0905C0.434952 22.1693 0.554912 22.2234 0.682348 22.2484C0.809784 22.2734 0.941267 22.2686 1.06659 22.2346H17.9663C18.0917 22.2686 18.2232 22.2734 18.3506 22.2484C18.478 22.2234 18.598 22.1693 18.7012 22.0905C18.8043 22.0116 18.8879 21.91 18.9455 21.7936C19.003 21.6772 19.0329 21.549 19.0329 21.4192C19.0329 21.2893 19.003 21.1612 18.9455 21.0448C18.8879 20.9284 18.8043 20.8268 18.7012 20.7479C18.598 20.669 18.478 20.615 18.3506 20.59C18.2232 20.565 18.0917 20.5697 17.9663 20.6038ZM9.51647 1.89572C9.95217 1.88676 10.3854 1.96387 10.7912 2.12262C11.1971 2.28137 11.5676 2.51866 11.8816 2.82087C12.1956 3.12308 12.4468 3.48428 12.621 3.88377C12.7951 4.28327 12.8887 4.7132 12.8964 5.14893H6.13652C6.14421 4.7132 6.2378 4.28327 6.41195 3.88377C6.58609 3.48428 6.83735 3.12308 7.15134 2.82087C7.46533 2.51866 7.83586 2.28137 8.24172 2.12262C8.64757 1.96387 9.08076 1.88676 9.51647 1.89572ZM6.9308 6.7713H12.1021L12.8373 17.3506H6.19566L6.9308 6.7713ZM3.60155 20.6038V18.9814H15.4314V20.6038H3.60155Z" fill="white"/>
</svg>
