<svg width="36" height="21" viewBox="0 0 36 21" fill="none" xmlns="http://www.w3.org/2000/svg">
<path fill-rule="evenodd" clip-rule="evenodd" d="M3.27273 2.42308C3.27273 1.08481 4.37163 0 5.72727 0H30.2727C31.6284 0 32.7273 1.08481 32.7273 2.42308V4.84615H33.5455C34.9011 4.84615 36 5.93097 36 7.26923V16.9615C36 18.2998 34.9011 19.3846 33.5455 19.3846V20.1923C33.5455 20.6384 33.1792 21 32.7273 21C32.2754 21 31.9091 20.6384 31.9091 20.1923V19.3846C30.5534 19.3846 29.4545 18.2998 29.4545 16.9615V16.1538H6.54545V16.9615C6.54545 18.2998 5.44655 19.3846 4.09091 19.3846V20.1923C4.09091 20.6384 3.72461 21 3.27273 21C2.82085 21 2.45455 20.6384 2.45455 20.1923V19.3846C1.0989 19.3846 0 18.2998 0 16.9615V7.26923C0 5.93097 1.0989 4.84615 2.45455 4.84615H3.27273V2.42308ZM31.0909 2.42308V4.98403C30.1376 5.31663 29.4545 6.21422 29.4545 7.26923V9.69231H27.8182V4.84615C27.8182 3.95398 27.0856 3.23077 26.1818 3.23077H22.0909C21.1871 3.23077 20.4545 3.95398 20.4545 4.84615V9.69231H18.8182V1.61538H30.2727C30.7246 1.61538 31.0909 1.97699 31.0909 2.42308ZM17.1818 1.61538V9.69231H15.5455V4.84615C15.5455 3.95398 14.8129 3.23077 13.9091 3.23077H9.81818C8.91442 3.23077 8.18182 3.95398 8.18182 4.84615V9.69231H6.54545V7.26923C6.54545 6.21422 5.86244 5.31663 4.90909 4.98403V2.42308C4.90909 1.97699 5.27539 1.61538 5.72727 1.61538H17.1818ZM22.0909 11.3077H26.1818H31.0909V14.5385H4.90909V11.3077H9.81818H13.9091H22.0909ZM26.1818 4.84615V9.69231H22.0909V4.84615H26.1818ZM9.81818 9.69231H13.9091V4.84615H9.81818V9.69231ZM32.7273 11.3077C32.7273 10.4155 31.9947 9.69231 31.0909 9.69231V7.26923C31.0909 6.82314 31.4572 6.46154 31.9091 6.46154H33.5455C33.9973 6.46154 34.3636 6.82314 34.3636 7.26923V16.9615C34.3636 17.4076 33.9973 17.7692 33.5455 17.7692H31.9091C31.4572 17.7692 31.0909 17.4076 31.0909 16.9615V16.1538C31.9947 16.1538 32.7273 15.4306 32.7273 14.5385V11.3077ZM4.90909 16.1538C4.00533 16.1538 3.27273 15.4306 3.27273 14.5385V11.3077C3.27273 10.4155 4.00533 9.69231 4.90909 9.69231V7.26923C4.90909 6.82314 4.54279 6.46154 4.09091 6.46154H2.45455C2.00266 6.46154 1.63636 6.82314 1.63636 7.26923V16.9615C1.63636 17.4076 2.00266 17.7692 2.45455 17.7692H4.09091C4.54279 17.7692 4.90909 17.4076 4.90909 16.9615V16.1538Z" fill="#0D0D0D"/>
</svg>
