<svg width="22" height="15" viewBox="0 0 22 15" fill="none" xmlns="http://www.w3.org/2000/svg">
<path fill-rule="evenodd" clip-rule="evenodd" d="M9.427 13.485L10.9989 15L12.5708 13.485C12.1521 13.0827 11.5876 12.8571 10.9994 12.8571C10.4113 12.8571 9.84569 13.0827 9.427 13.485ZM6.2854 10.455L7.8573 11.97C8.69551 11.1669 9.82421 10.7168 11 10.7168C12.1758 10.7168 13.3045 11.1669 14.1427 11.97L15.7146 10.455C14.4583 9.24792 12.7646 8.57116 11 8.57116C9.23535 8.57116 7.54166 9.24792 6.2854 10.455ZM0 4.39393L1.5708 5.90893C6.7705 0.895714 15.2295 0.895714 20.4281 5.90893L22 4.39393C15.9236 -1.46464 6.0753 -1.46464 0 4.39393ZM18.8562 7.42393L17.2854 8.93893C13.8204 5.59714 8.1807 5.59714 4.7135 8.93893L3.1427 7.42393C7.4811 3.24 14.5167 3.24 18.8562 7.42393Z" fill="#0D0D0D"/>
</svg>
