<svg width="20" height="22" viewBox="0 0 20 22" fill="none" xmlns="http://www.w3.org/2000/svg">
<path d="M17.9663 20.3396H17.1214V18.7172C17.106 18.2793 16.9212 17.8645 16.6059 17.5603C16.2907 17.256 15.8695 17.0861 15.4314 17.0864H14.5357L13.8006 6.50714H15.4314C15.5573 6.54387 15.6901 6.55078 15.8191 6.52731C15.9482 6.50385 16.07 6.45065 16.175 6.37194C16.2799 6.29324 16.3651 6.19118 16.4238 6.07384C16.4824 5.95651 16.513 5.82713 16.513 5.69595C16.513 5.56477 16.4824 5.4354 16.4238 5.31806C16.3651 5.20073 16.2799 5.09867 16.175 5.01996C16.07 4.94126 15.9482 4.88806 15.8191 4.8646C15.6901 4.84113 15.5573 4.84803 15.4314 4.88477H14.5864C14.5598 3.56544 14.0111 2.3105 13.0608 1.39499C12.1104 0.479482 10.8359 -0.0219006 9.51647 0.000734403C8.19707 -0.0219006 6.92251 0.479482 5.97216 1.39499C5.02181 2.3105 4.47318 3.56544 4.44654 4.88477H3.60155C3.47562 4.84803 3.34286 4.84113 3.2138 4.8646C3.08473 4.88806 2.96291 4.94126 2.85796 5.01996C2.75302 5.09867 2.66784 5.20073 2.60917 5.31806C2.55051 5.4354 2.51997 5.56477 2.51997 5.69595C2.51997 5.82713 2.55051 5.95651 2.60917 6.07384C2.66784 6.19118 2.75302 6.29324 2.85796 6.37194C2.96291 6.45065 3.08473 6.50385 3.2138 6.52731C3.34286 6.55078 3.47562 6.54387 3.60155 6.50714H5.23238L4.49724 17.0864H3.60155C3.1634 17.0861 2.74228 17.256 2.42699 17.5603C2.11171 17.8645 1.92691 18.2793 1.91157 18.7172V20.3396H1.06659C0.941267 20.3055 0.809784 20.3008 0.682348 20.3258C0.554912 20.3508 0.434952 20.4049 0.331784 20.4837C0.228615 20.5626 0.145014 20.6642 0.0874735 20.7806C0.0299325 20.897 0 21.0251 0 21.155C0 21.2849 0.0299325 21.413 0.0874735 21.5294C0.145014 21.6458 0.228615 21.7474 0.331784 21.8263C0.434952 21.9052 0.554912 21.9592 0.682348 21.9842C0.809784 22.0092 0.941267 22.0045 1.06659 21.9704H17.9663C18.0917 22.0045 18.2232 22.0092 18.3506 21.9842C18.478 21.9592 18.598 21.9052 18.7012 21.8263C18.8043 21.7474 18.8879 21.6458 18.9455 21.5294C19.003 21.413 19.0329 21.2849 19.0329 21.155C19.0329 21.0251 19.003 20.897 18.9455 20.7806C18.8879 20.6642 18.8043 20.5626 18.7012 20.4837C18.598 20.4049 18.478 20.3508 18.3506 20.3258C18.2232 20.3008 18.0917 20.3055 17.9663 20.3396ZM9.51647 1.63156C9.95217 1.6226 10.3854 1.69971 10.7912 1.85846C11.1971 2.01721 11.5676 2.2545 11.8816 2.55671C12.1956 2.85892 12.4468 3.22012 12.621 3.61961C12.7951 4.01911 12.8887 4.44904 12.8964 4.88477H6.13652C6.14421 4.44904 6.2378 4.01911 6.41195 3.61961C6.58609 3.22012 6.83735 2.85892 7.15134 2.55671C7.46533 2.2545 7.83586 2.01721 8.24172 1.85846C8.64757 1.69971 9.08076 1.6226 9.51647 1.63156ZM6.9308 6.50714H12.1021L12.8373 17.0864H6.19566L6.9308 6.50714ZM3.60155 20.3396V18.7172H15.4314V20.3396H3.60155Z" fill="#0D0D0D"/>
</svg>
