<svg width="24" height="23" viewBox="0 0 24 23" fill="none" xmlns="http://www.w3.org/2000/svg">
<path d="M15.2973 6.1271L15.2975 6.12707L15.2962 6.12253C15.0841 5.38038 14.4455 4.9 13.7 4.9H11.25C10.5061 4.9 9.86327 5.37968 9.70243 6.12806L9.5208 6.9H7.5C5.72848 6.9 4.25695 8.19433 3.96467 9.9H2.3C1.54477 9.9 0.9 10.5448 0.9 11.3C0.9 11.5173 0.954443 11.7325 1.06056 11.9447L1.06055 11.9447L1.06128 11.9461L1.71056 13.1947C1.71067 13.195 1.71079 13.1952 1.71091 13.1954C1.97641 13.7258 2.50904 14.1 3.15 14.1H3.9V20C3.9 21.1552 4.84477 22.1 6 22.1H18C19.1552 22.1 20.1 21.1552 20.1 20V14.1H20.9C21.4841 14.1 22.0719 13.7816 22.3402 13.1931L22.9894 11.8947C23.0956 11.6825 23.15 11.4673 23.15 11.25H23.1503L23.1497 11.2423C23.0959 10.5424 22.4544 9.9 21.7 9.9H20.0353C19.743 8.19433 18.2715 6.9 16.5 6.9H15.4792L15.2973 6.1271ZM14.153 6.42425L14.2719 6.9H10.818L10.8979 6.42063C10.9403 6.25867 11.1048 6.1 11.3 6.1H13.75C13.956 6.1 14.112 6.21981 14.1519 6.41961L14.1518 6.41963L14.153 6.42425ZM2.73944 12.6553L2.73945 12.6553L2.73872 12.6539L2.1 11.4256V11.4254V11.4251V11.4248V11.4245V11.4242V11.4239V11.4236V11.4233V11.423V11.4228V11.4225V11.4222V11.4219V11.4216V11.4213V11.421V11.4207V11.4204V11.4201V11.4198V11.4195V11.4192V11.4189V11.4187V11.4184V11.4181V11.4178V11.4175V11.4172V11.4169V11.4166V11.4163V11.416V11.4157V11.4154V11.4151V11.4148V11.4146V11.4143V11.414V11.4137V11.4134V11.4131V11.4128V11.4125V11.4122V11.4119V11.4116V11.4113V11.411V11.4107V11.4104V11.4102V11.4099V11.4096V11.4093V11.409V11.4087V11.4084V11.4081V11.4078V11.4075V11.4072V11.4069V11.4066V11.4063V11.4061V11.4058V11.4055V11.4052V11.4049V11.4046V11.4043V11.404V11.4037V11.4034V11.4031V11.4028V11.4025V11.4022V11.402V11.4017V11.4014V11.4011V11.4008V11.4005V11.4002V11.3999V11.3996V11.3993V11.399V11.3987V11.3984V11.3981V11.3979V11.3976V11.3973V11.397V11.3967V11.3964V11.3961V11.3958V11.3955V11.3952V11.3949V11.3946V11.3943V11.394V11.3938V11.3935V11.3932V11.3929V11.3926V11.3923V11.392V11.3917V11.3914V11.3911V11.3908V11.3905V11.3902V11.3899V11.3896V11.3894V11.3891V11.3888V11.3885V11.3882V11.3879V11.3876V11.3873V11.387V11.3867V11.3864V11.3861V11.3858V11.3855V11.3853V11.385V11.3847V11.3844V11.3841V11.3838V11.3835V11.3832V11.3829V11.3826V11.3823V11.382V11.3817V11.3814V11.3812V11.3809V11.3806V11.3803V11.38V11.3797V11.3794V11.3791V11.3788V11.3785V11.3782V11.3779V11.3776V11.3773V11.3771V11.3768V11.3765V11.3762V11.3759V11.3756V11.3753V11.375V11.3747V11.3744V11.3741V11.3738V11.3735V11.3732V11.3729V11.3727V11.3724V11.3721V11.3718V11.3715V11.3712V11.3709V11.3706V11.3703V11.37V11.3697V11.3694V11.3691V11.3688V11.3686V11.3683V11.368V11.3677V11.3674V11.3671V11.3668V11.3665V11.3662V11.3659V11.3656V11.3653V11.365V11.3647V11.3645V11.3642V11.3639V11.3636V11.3633V11.363V11.3627V11.3624V11.3621V11.3618V11.3615V11.3612V11.3609V11.3606V11.3604V11.3601V11.3598V11.3595V11.3592V11.3589V11.3586V11.3583V11.358V11.3577V11.3574V11.3571V11.3568V11.3565V11.3562V11.356V11.3557V11.3554V11.3551V11.3548V11.3545V11.3542V11.3539V11.3536V11.3533V11.353V11.3527V11.3524V11.3521V11.3519V11.3516V11.3513V11.351V11.3507V11.3504V11.3501V11.3498V11.3495V11.3492V11.3489V11.3486V11.3483V11.348V11.3478V11.3475V11.3472V11.3469V11.3466V11.3463V11.346V11.3457V11.3454V11.3451V11.3448V11.3445V11.3442V11.3439V11.3437V11.3434V11.3431V11.3428V11.3425V11.3422V11.3419V11.3416V11.3413V11.341V11.3407V11.3404V11.3401V11.3398V11.3396V11.3393V11.339V11.3387V11.3384V11.3381V11.3378V11.3375V11.3372V11.3369V11.3366V11.3363V11.336V11.3357V11.3354V11.3352V11.3349V11.3346V11.3343V11.334V11.3337V11.3334V11.3331V11.3328V11.3325V11.3322V11.3319V11.3316V11.3313V11.3311V11.3308V11.3305V11.3302V11.3299V11.3296V11.3293V11.329V11.3287V11.3284V11.3281V11.3278V11.3275V11.3272V11.327V11.3267V11.3264V11.3261V11.3258V11.3255V11.3252V11.3249V11.3246V11.3243V11.324V11.3237V11.3234V11.3231V11.3229V11.3226V11.3223V11.322V11.3217V11.3214V11.3211V11.3208V11.3205V11.3202V11.3199V11.3196V11.3193V11.319V11.3188V11.3185V11.3182V11.3179V11.3176V11.3173V11.317V11.3167V11.3164V11.3161V11.3158V11.3155V11.3152V11.3149V11.3146V11.3144V11.3141V11.3138V11.3135V11.3132V11.3129V11.3126V11.3123V11.312V11.3117V11.3114V11.3111V11.3108V11.3105V11.3103V11.31V11.3097V11.3094V11.3091V11.3088V11.3085V11.3082V11.3079V11.3076V11.3073V11.307V11.3067V11.3064V11.3062V11.3059V11.3056V11.3053V11.305V11.3047V11.3044V11.3041V11.3038V11.3035V11.3032V11.3029V11.3026V11.3023V11.3021V11.3018V11.3015V11.3012V11.3009V11.3006V11.3003V11.3C2.1 11.2575 2.12225 11.2067 2.16446 11.1645C2.20668 11.1222 2.25752 11.1 2.3 11.1H3.9V12.9H3.1C3.0175 12.9 2.94977 12.8797 2.89297 12.8418C2.83554 12.8035 2.78351 12.7434 2.73944 12.6553ZM21.8793 11.3793L21.8678 11.3908L21.8606 11.4053L21.2134 12.6996C21.1179 12.8411 20.9952 12.95 20.85 12.95H20.1V11.15H21.7C21.7425 11.15 21.7933 11.1722 21.8355 11.2145C21.8764 11.2553 21.8986 11.3043 21.8999 11.3459C21.8997 11.3468 21.8994 11.3481 21.8989 11.3496C21.897 11.3554 21.8921 11.3665 21.8793 11.3793ZM18.14 5.02L18.1343 5.02426L18.1293 5.02929C17.9042 5.25441 17.8276 5.61905 18.0793 5.87071C18.1858 5.9772 18.3601 6.1 18.55 6.1C18.614 6.1 18.6875 6.08456 18.7504 6.06362C18.8099 6.04379 18.8785 6.01287 18.9207 5.97071C19.3329 5.55853 19.6 5.08456 19.6 4.5C19.6 3.91512 19.3325 3.44029 18.8685 3.02713C18.7442 2.90421 18.5765 2.86071 18.4218 2.87545C18.2695 2.88995 18.1191 2.96175 18.0243 3.08431C17.9036 3.20837 17.8608 3.37463 17.8755 3.52823C17.8901 3.68227 17.9634 3.83439 18.0887 3.92899C18.2056 4.0227 18.2824 4.11236 18.3304 4.20304C18.3781 4.29315 18.4 4.38924 18.4 4.5C18.4 4.71852 18.3148 4.88889 18.14 5.02ZM16.05 3.9V3.95662L16.0985 3.98575C16.2115 4.05351 16.2853 4.12929 16.3316 4.21153C16.3779 4.29377 16.4 4.38866 16.4 4.5C16.4 4.71852 16.3148 4.88889 16.14 5.02L16.1343 5.02426L16.1293 5.02929C15.9042 5.25441 15.8276 5.61905 16.0793 5.87071C16.1858 5.9772 16.3601 6.1 16.55 6.1C16.614 6.1 16.6875 6.08456 16.7504 6.06362C16.8099 6.04379 16.8785 6.01287 16.9207 5.97071C17.3329 5.55853 17.6 5.08456 17.6 4.5C17.6 3.97182 17.3881 3.49538 16.9684 3.12697L16.9207 3.07929L16.9211 3.07885L16.9125 3.07191C16.7949 2.97788 16.7178 2.88793 16.6696 2.79696C16.6219 2.70685 16.6 2.61076 16.6 2.5C16.6 2.28148 16.6852 2.11111 16.86 1.98L16.8657 1.97574L16.8707 1.97071C17.091 1.75046 17.169 1.39666 16.9366 1.14578C16.8587 0.951412 16.6578 0.9 16.5 0.9C16.3773 0.9 16.2109 0.957727 16.1053 1.01056L16.0908 1.01781L16.0793 1.02929C15.6671 1.44147 15.4 1.91544 15.4 2.5C15.4 3.02817 15.6119 3.5046 16.0316 3.87301C16.0399 3.88136 16.0457 3.88715 16.05 3.89162L16.05 3.9ZM7.5 8.1H16.5C17.6084 8.1 18.5406 8.85612 18.8227 9.9H5.17726C5.45935 8.85612 6.39157 8.1 7.5 8.1ZM18.9 20C18.9 20.4948 18.4948 20.9 18 20.9H6C5.50523 20.9 5.1 20.4948 5.1 20V13.5V11.1H18.9V13.5V20Z" fill="#0D0D0D" stroke="black" stroke-width="0.2"/>
<path d="M18.5 2.6C18.8314 2.6 19.1 2.33137 19.1 2C19.1 1.66863 18.8314 1.4 18.5 1.4C18.1686 1.4 17.9 1.66863 17.9 2C17.9 2.33137 18.1686 2.6 18.5 2.6Z" fill="#0D0D0D" stroke="black" stroke-width="0.2"/>
</svg>
