<svg width="17" height="20" viewBox="0 0 17 20" fill="none" xmlns="http://www.w3.org/2000/svg">
<path fill-rule="evenodd" clip-rule="evenodd" d="M8.39121 1.9956e-05C10.6144 0.0100212 12.7393 0.910133 14.2936 2.49033C15.8577 4.08053 16.7332 6.23079 16.7234 8.46107V8.51108C16.6644 11.5415 14.992 14.3318 12.9065 16.5121C11.726 17.7422 10.4177 18.8324 8.99128 19.7525C8.60763 20.0825 8.0469 20.0825 7.66325 19.7525C5.54823 18.3523 3.67915 16.5921 2.1642 14.5418C0.836169 12.7616 0.0786983 10.6213 0 8.39106C0.0196746 3.74048 3.77752 -0.00998128 8.39121 1.9956e-05ZM8.39112 11.2616C9.08957 11.2616 9.7585 10.9916 10.2504 10.5015C10.7619 9.99143 11.0482 9.31234 11.0482 8.60125C11.0482 7.12107 9.85688 5.93092 8.39112 5.93092C6.92536 5.93092 5.74489 7.12107 5.74489 8.60125C5.74489 10.0624 6.90569 11.2416 8.36161 11.2616H8.39112Z" fill="#00303E"/>
</svg>
