<svg width="17" height="21" viewBox="0 0 17 21" fill="none" xmlns="http://www.w3.org/2000/svg">
<path fill-rule="evenodd" clip-rule="evenodd" d="M8.39121 0.477559C10.6144 0.48756 12.7393 1.38767 14.2936 2.96787C15.8577 4.55807 16.7332 6.70833 16.7234 8.93861V8.98862C16.6644 12.019 14.992 14.8093 12.9065 16.9896C11.726 18.2198 10.4177 19.3099 8.99128 20.23C8.60763 20.5601 8.0469 20.5601 7.66325 20.23C5.54823 18.8298 3.67915 17.0696 2.1642 15.0194C0.836169 13.2391 0.0786983 11.0989 0 8.8686C0.0196746 4.21802 3.77752 0.467558 8.39121 0.477559ZM8.39112 11.7391C9.08957 11.7391 9.7585 11.4691 10.2504 10.979C10.7619 10.469 11.0482 9.78988 11.0482 9.07879C11.0482 7.59861 9.85688 6.40846 8.39112 6.40846C6.92536 6.40846 5.74489 7.59861 5.74489 9.07879C5.74489 10.54 6.90569 11.7191 8.36161 11.7391H8.39112Z" fill="#00303E"/>
</svg>
