<svg width="192" height="56" viewBox="0 0 192 56" fill="none" xmlns="http://www.w3.org/2000/svg">
<path d="M27.572 -3.96625e-06L0 27.572L27.572 55.144L55.1441 27.572L27.572 -3.96625e-06Z" fill="#E4E9ED"/>
<path d="M25.1559 13.5104C25.5241 13.1545 27.1367 11.4577 27.8608 10.7105C28.5849 9.96327 28.6202 9.85595 28.6202 9.7133C28.62 9.66451 28.6051 9.61692 28.5775 9.5767C28.5498 9.53648 28.5108 9.5055 28.4653 9.48779C28.3825 9.45246 28.358 9.42801 28.358 9.38046C28.358 9.33291 28.4287 9.30981 28.536 9.30981C28.8797 9.30981 28.8444 9.34514 29.2478 9.34514C29.616 9.34514 30.3157 9.30981 30.5059 9.30981C30.6716 9.30981 30.7069 9.34514 30.7069 9.39269C30.7069 9.44024 30.6838 9.46333 30.5711 9.47556C30.3641 9.49155 30.1604 9.53731 29.9665 9.61141C29.6703 9.7296 29.4448 9.87225 28.733 10.5624C27.6882 11.5704 26.3365 12.9113 26.0281 13.255C26.7753 14.0701 28.9354 16.2682 29.4924 16.7872C30.4651 17.7001 30.8808 17.9623 31.45 18.0683C31.563 18.0924 31.6782 18.1042 31.7937 18.1036C31.8888 18.1036 31.9595 18.1267 31.9595 18.1865C31.9595 18.2463 31.9119 18.2694 31.7815 18.2694H30.9039C29.8714 18.2694 29.5983 18.1335 29.0413 17.7001C28.3295 17.1431 26.1884 14.8472 25.1505 13.6069V14.8296C25.1505 15.968 25.1505 16.9054 25.2102 17.4108C25.2456 17.7545 25.3176 18.0153 25.6735 18.0629C25.8393 18.086 26.0811 18.1104 26.1477 18.1104C26.255 18.1104 26.2835 18.158 26.2835 18.1933C26.2835 18.2531 26.236 18.2762 26.1055 18.2762C25.4534 18.2762 24.7062 18.2408 24.6465 18.2408C24.5867 18.2408 23.887 18.2762 23.5311 18.2762C23.3953 18.2762 23.3409 18.2639 23.3409 18.1933C23.3409 18.158 23.364 18.1104 23.4768 18.1104C23.5804 18.1084 23.6837 18.0966 23.7851 18.0751C24.0229 18.0275 24.0935 17.7545 24.1411 17.4108C24.2009 16.9122 24.2009 15.9748 24.2009 14.8296V12.7524C24.2009 10.902 24.2009 10.5692 24.1778 10.1901C24.1547 9.78259 24.0419 9.5856 23.7702 9.52583C23.6301 9.495 23.4871 9.47906 23.3436 9.47828C23.2485 9.47828 23.2078 9.45518 23.2078 9.40763C23.2078 9.33699 23.2676 9.31253 23.398 9.31253C23.7892 9.31253 24.584 9.34785 24.6437 9.34785C24.7035 9.34785 25.4507 9.31253 25.8067 9.31253C25.9425 9.31253 25.9968 9.33563 25.9968 9.3954C25.9968 9.45518 25.9737 9.46605 25.861 9.47828L25.6002 9.50137C25.2795 9.53669 25.1845 9.77308 25.1614 10.1901C25.1369 10.5692 25.1369 10.902 25.1369 12.7524V13.5104H25.1559Z" fill="#00303E"/>
<path d="M38.0415 24.1315C37.7807 23.4671 37.6027 23.3367 37.187 23.2185C37.0392 23.1842 36.8877 23.1682 36.7359 23.171C36.724 23.1736 36.7116 23.1733 36.6997 23.1702C36.6879 23.1672 36.6769 23.1614 36.6676 23.1533C36.6584 23.1453 36.6512 23.1352 36.6465 23.1239C36.6419 23.1126 36.6399 23.1003 36.6408 23.0881C36.6408 23.0175 36.759 23.0052 36.9492 23.0052C37.5185 23.0052 38.1597 23.0406 38.3078 23.0406C38.426 23.0406 38.9368 23.0052 39.3878 23.0052C39.6011 23.0052 39.7084 23.0283 39.7084 23.0881C39.7084 23.1479 39.6731 23.171 39.5902 23.171C39.4376 23.1659 39.2852 23.1861 39.1392 23.2308C39.0912 23.2485 39.0503 23.2812 39.0224 23.324C38.9945 23.3668 38.9811 23.4175 38.9843 23.4685C39.0343 23.7299 39.1141 23.9847 39.2221 24.2279L41.643 30.5275C42.3318 28.938 43.9212 24.7972 44.1821 23.9426C44.2382 23.7979 44.2743 23.6461 44.2894 23.4916C44.292 23.4363 44.2788 23.3814 44.2514 23.3333C44.224 23.2852 44.1834 23.2458 44.1345 23.2199C43.9875 23.1812 43.8354 23.1652 43.6835 23.1723C43.6129 23.1723 43.5477 23.1601 43.5477 23.1017C43.5477 23.0433 43.6183 23.0066 43.8085 23.0066C44.2826 23.0066 44.8288 23.0419 44.9714 23.0419C45.042 23.0419 45.5528 23.0066 45.8965 23.0066C46.0324 23.0066 46.099 23.0297 46.099 23.0895C46.099 23.1493 46.0514 23.1723 45.9631 23.1723C45.7645 23.1642 45.5674 23.2112 45.3939 23.3082C45.239 23.4155 45.061 23.6166 44.7418 24.4236C44.6059 24.7564 44.0177 26.1801 43.4131 27.6392C42.689 29.3714 42.1552 30.6525 41.8821 31.2339C41.5492 31.9458 41.503 32.136 41.3835 32.136C41.2476 32.136 41.1824 31.9702 40.9569 31.401L38.0415 24.1315Z" fill="#00303E"/>
<path d="M24.1423 40.3036C24.1423 38.4532 24.1423 38.1204 24.1192 37.7414C24.0961 37.3338 24.001 37.1477 23.6084 37.0621C23.4739 37.0378 23.3375 37.026 23.2008 37.0268C23.1899 37.0285 23.1788 37.028 23.1681 37.0254C23.1574 37.0228 23.1473 37.018 23.1384 37.0114C23.1296 37.0049 23.1221 36.9966 23.1165 36.9871C23.1109 36.9776 23.1072 36.9671 23.1057 36.9561C23.1057 36.8855 23.1655 36.861 23.2959 36.861C23.8298 36.861 24.577 36.8963 24.6368 36.8963C24.7726 36.8963 25.6693 36.861 26.0361 36.861C26.7833 36.861 27.578 36.9317 28.2097 37.3827C28.4585 37.5729 28.661 37.8168 28.8021 38.0963C28.9433 38.3758 29.0194 38.6836 29.0249 38.9966C29.0249 39.8743 28.6567 40.7532 27.5889 41.7368C28.5616 42.9826 29.3686 44.0382 30.056 44.7745C30.6972 45.4538 31.2067 45.5815 31.5028 45.629C31.656 45.6534 31.811 45.6652 31.9661 45.6643C31.9895 45.6612 32.0133 45.6666 32.033 45.6796C32.0527 45.6926 32.0671 45.7122 32.0734 45.735C32.0734 45.8056 32.0028 45.8301 31.7881 45.8301H30.9459C30.2815 45.8301 29.9854 45.7703 29.677 45.6046C29.1662 45.3329 28.7518 44.75 28.0753 43.8602C27.5767 43.2081 27.0197 42.4134 26.7819 42.1036C26.7633 42.0807 26.7396 42.0624 26.7128 42.0501C26.6859 42.0379 26.6566 42.032 26.6271 42.033L25.168 42.0099C25.1558 42.009 25.1435 42.0109 25.1322 42.0156C25.1209 42.0202 25.1108 42.0275 25.1028 42.0367C25.0947 42.0459 25.0889 42.0569 25.0859 42.0687C25.0828 42.0806 25.0825 42.093 25.0851 42.105V42.3903C25.0851 43.5287 25.0851 44.4661 25.1449 44.9715C25.1802 45.3152 25.2522 45.576 25.6082 45.6236C25.7852 45.6487 25.9634 45.6645 26.1421 45.6711C26.153 45.6685 26.1645 45.6684 26.1755 45.6707C26.1866 45.6729 26.197 45.6776 26.206 45.6843C26.2151 45.6911 26.2226 45.6997 26.228 45.7096C26.2333 45.7195 26.2365 45.7305 26.2371 45.7418C26.2371 45.8016 26.1774 45.8369 26.047 45.8369C25.3949 45.8369 24.6463 45.8016 24.5879 45.8016C24.5757 45.8016 23.8285 45.8369 23.4725 45.8369C23.3367 45.8369 23.2823 45.8138 23.2823 45.7418C23.283 45.7305 23.2862 45.7195 23.2915 45.7096C23.2969 45.6997 23.3044 45.6911 23.3134 45.6843C23.3225 45.6776 23.3329 45.6729 23.344 45.6707C23.355 45.6684 23.3664 45.6685 23.3774 45.6711C23.4973 45.667 23.6166 45.6511 23.7334 45.6236C23.9711 45.576 24.0295 45.3152 24.0771 44.9715C24.1369 44.4729 24.1369 43.5355 24.1369 42.3903V40.3036H24.1423ZM25.0933 41.336C25.0935 41.3641 25.1013 41.3915 25.1159 41.4154C25.1305 41.4394 25.1513 41.4589 25.1761 41.4719C25.3541 41.5792 25.9002 41.6621 26.4219 41.6621C26.7346 41.6794 27.0451 41.6007 27.3118 41.4366C27.7275 41.1513 28.0358 40.5114 28.0358 39.6093C28.0358 38.1258 27.2534 37.236 25.9831 37.236C25.7164 37.2299 25.4498 37.2535 25.1884 37.3066C25.1603 37.3165 25.1361 37.335 25.119 37.3593C25.102 37.3837 25.093 37.4127 25.0933 37.4425V41.3225V41.336Z" fill="#00303E"/>
<path d="M11.6709 31.9024C11.5052 31.8195 11.4929 31.7665 11.4929 31.4513C11.4929 30.8577 11.5405 30.3835 11.5527 30.1933C11.5649 30.0575 11.588 30.0031 11.6478 30.0031C11.7076 30.0031 11.7307 30.0385 11.7307 30.139C11.727 30.2861 11.7388 30.4332 11.766 30.5778C11.944 31.4554 12.7265 31.7883 13.5226 31.7883C14.6611 31.7883 15.2194 30.9731 15.2194 30.2096C15.2194 29.3945 14.8757 28.9163 13.8609 28.074L13.3269 27.6352C12.0689 26.6027 11.785 25.8691 11.785 25.054C11.785 23.7851 12.736 22.9184 14.2412 22.9184C14.6124 22.9131 14.9828 22.9528 15.3444 23.0366C15.4804 23.0715 15.6198 23.0915 15.7601 23.0963C15.8552 23.0963 15.8783 23.1194 15.8783 23.1792C15.8783 23.239 15.8308 23.6302 15.8308 24.4372C15.8308 24.6274 15.8076 24.7089 15.7479 24.7089C15.6881 24.7089 15.665 24.6491 15.6528 24.554C15.6307 24.3496 15.5785 24.1495 15.4979 23.9604C15.4272 23.8245 15.1066 23.3314 14.0144 23.3314C13.1993 23.3314 12.5553 23.8422 12.5553 24.7076C12.5553 25.3868 12.8637 25.8107 14.0021 26.7005L14.335 26.9614C15.7357 28.0645 16.0671 28.8008 16.0671 29.7491C16.0647 30.1334 15.9723 30.5117 15.7972 30.8538C15.6222 31.1959 15.3693 31.4922 15.0591 31.719C14.5262 32.0632 13.9012 32.2371 13.2672 32.2176C12.718 32.2357 12.172 32.1279 11.6709 31.9024Z" fill="#00303E"/>
<path d="M14.2129 14.1898L40.9774 40.9544" stroke="#00303E" stroke-width="0.33" stroke-miterlimit="10"/>
<path d="M40.9774 14.1898L14.2129 40.9544" stroke="#00303E" stroke-width="0.33" stroke-miterlimit="10"/>
<path d="M85.6216 27.977H83.0396L75.1094 19.7844V27.977H73.1091V11.1023H75.1094V19.0112L82.7772 11.1023H85.3307L77.3509 19.373L85.6216 27.977Z" fill="#00303E"/>
<path d="M101.745 11.1023L95.5033 21.9265V27.977H93.503V21.9762L87.261 11.1023H89.5237L94.489 19.7347L99.4613 11.1023H101.745Z" fill="#00303E"/>
<path d="M106.668 11.1023H104.667V27.977H106.668V11.1023Z" fill="#00303E"/>
<path d="M122.188 11.1023H124.308L118.237 27.977H115.655L109.604 11.1023H111.725L116.932 25.7569L122.188 11.1023Z" fill="#00303E"/>
<path d="M145.737 11.1023H147.858L141.786 27.977H139.205L133.154 11.1023H135.275L140.488 25.7569L145.737 11.1023Z" fill="#00303E"/>
<path d="M152.78 11.1023H150.78V27.977H152.78V11.1023Z" fill="#00303E"/>
<path d="M167.726 13.0104H159.023V18.3586H167.144V20.2667H159.023V26.0761H167.726V27.977H157.022V11.1023H167.726V13.0104Z" fill="#00303E"/>
<path d="M189.929 11.1023H192L187.297 27.977H184.765L183.055 21.8769L180.984 13.514H180.622L178.551 21.8769L176.863 27.977H174.309L169.607 11.1023H171.678L173.919 19.1815L175.608 25.9271L177.267 19.1815L179.509 11.1023H182.091L184.332 19.1815L186.02 25.9555L187.709 19.1815L189.929 11.1023Z" fill="#00303E"/>
<path d="M76.8696 43.5609L74.8693 41.2344H73.5287V43.5609H73.0818V37.7516H75.2807C75.798 37.724 76.3061 37.8967 76.6993 38.2339C77.0156 38.5685 77.1918 39.0113 77.1918 39.4717C77.1918 39.9321 77.0156 40.3749 76.6993 40.7095C76.3307 41.0492 75.8458 41.2345 75.3445 41.2273L77.3519 43.5609H76.8696ZM73.5287 38.1772V40.8442H75.2452C75.6649 40.8748 76.0799 40.7399 76.4014 40.4683C76.5314 40.3443 76.634 40.1943 76.7024 40.0281C76.7708 39.862 76.8036 39.6832 76.7986 39.5036C76.8048 39.3266 76.7731 39.1503 76.7059 38.9864C76.6386 38.8225 76.5372 38.6748 76.4085 38.5531C76.0823 38.2856 75.6659 38.1536 75.2452 38.1843H73.5287V38.1772Z" fill="#00303E"/>
<path d="M86.2978 43.561L85.482 41.5962H82.6448L81.8574 43.5327H81.3325L83.73 37.7233H84.3188L86.7163 43.5327H86.2978V43.561ZM82.8221 41.2132H85.3047L84.0421 38.1489L82.8221 41.2132Z" fill="#00303E"/>
<path d="M91.5953 37.7518H91.1555V43.5611H91.5953V37.7518Z" fill="#00303E"/>
<path d="M96.9085 43.1355H99.8664V43.5611H96.4688V37.7518H96.9085V43.1355Z" fill="#00303E"/>
<path d="M110.101 37.7518H110.562L108.874 43.5611H108.292L107.682 41.4615L106.803 38.298H106.717L105.838 41.4615L105.235 43.5611H104.653L102.958 37.7518H103.412L104.228 40.5323L104.944 43.1071L105.661 40.5323L106.469 37.7518H107.058L107.859 40.5323L108.576 43.1142L109.299 40.5323L110.101 37.7518Z" fill="#00303E"/>
<path d="M118.925 43.561L118.173 41.5962H115.336L114.548 43.5327H114.073L116.471 37.7233H117.059L119.457 43.5327H118.925V43.561ZM115.449 41.2132H117.96L116.698 38.1489L115.449 41.2132Z" fill="#00303E"/>
<path d="M127.36 37.7518L125.168 41.3835V43.5611H124.722V41.4048L122.53 37.7518H123.04L124.949 40.9083L126.857 37.7518H127.36Z" fill="#00303E"/>
<path d="M139.56 40.4044L140.269 40.5817C140.465 40.6384 140.656 40.7071 140.843 40.7874C141.013 40.8507 141.169 40.9445 141.305 41.064C141.415 41.174 141.505 41.304 141.567 41.4471C141.642 41.6191 141.679 41.8056 141.673 41.9933C141.687 42.2319 141.64 42.4702 141.538 42.686C141.435 42.9017 141.279 43.088 141.085 43.2275C140.646 43.5295 140.121 43.6813 139.588 43.6602C138.994 43.693 138.406 43.523 137.921 43.1778C137.516 42.8531 137.243 42.3914 137.155 41.8798H137.595C137.697 42.312 137.956 42.691 138.321 42.9427C138.687 43.1945 139.134 43.3011 139.574 43.2417C140.002 43.264 140.427 43.1497 140.787 42.9154C140.931 42.8146 141.047 42.6793 141.125 42.5219C141.203 42.3645 141.24 42.1901 141.234 42.0145C141.241 41.8718 141.208 41.7299 141.139 41.6047C141.07 41.4795 140.968 41.3758 140.843 41.3052C140.392 41.0947 139.915 40.9444 139.425 40.8583C139.056 40.7732 138.758 40.6952 138.531 40.6243C138.307 40.5526 138.09 40.4575 137.886 40.3405C137.704 40.2427 137.554 40.0951 137.453 39.9149C137.359 39.728 137.313 39.521 137.318 39.312C137.311 39.0828 137.36 38.8553 137.46 38.649C137.56 38.4427 137.708 38.2638 137.893 38.1274C138.306 37.8328 138.804 37.6809 139.311 37.6948C139.831 37.6711 140.345 37.8046 140.787 38.0778C141.157 38.32 141.426 38.6879 141.546 39.1134H141.106C140.958 38.7773 140.705 38.4978 140.386 38.3164C140.067 38.135 139.697 38.0613 139.333 38.1062C138.92 38.0866 138.512 38.201 138.169 38.4325C138.028 38.5334 137.913 38.6679 137.837 38.8239C137.76 38.9799 137.723 39.1525 137.73 39.3262C137.725 39.4567 137.756 39.586 137.82 39.6999C137.883 39.8138 137.977 39.9078 138.091 39.9717C138.54 40.1904 139.018 40.3433 139.51 40.4257" fill="#00303E"/>
<path d="M149.973 37.7518V38.1774H147.994V43.5611H147.554V38.1774H145.582V37.7518H149.973Z" fill="#00303E"/>
<path d="M157.889 43.561L157.102 41.5962H154.265L153.477 43.5327H152.974L155.371 37.7233H155.96L158.357 43.5327H157.882L157.889 43.561ZM154.414 41.2132H156.925L155.662 38.1489L154.414 41.2132Z" fill="#00303E"/>
<path d="M165.748 37.7518V38.1774H163.776V43.5611H163.336V38.1774H161.365V37.7518H165.748Z" fill="#00303E"/>
<path d="M170.606 37.7518H170.166V43.5611H170.606V37.7518Z" fill="#00303E"/>
<path d="M178.224 37.6666C178.619 37.6562 179.011 37.727 179.377 37.8747C179.744 38.0223 180.075 38.2436 180.352 38.5249C180.863 39.0177 181.185 39.6727 181.266 40.3775C181.346 41.0823 181.179 41.7932 180.793 42.3882C180.406 42.9832 179.825 43.4255 179.149 43.6391C178.472 43.8527 177.743 43.8244 177.085 43.559C176.427 43.2937 175.882 42.8078 175.543 42.1846C175.204 41.5614 175.092 40.8398 175.227 40.1433C175.361 39.4468 175.734 38.8188 176.281 38.367C176.828 37.9151 177.515 37.6675 178.224 37.6666ZM180.026 38.8299C179.544 38.3564 178.896 38.0911 178.221 38.0911C177.545 38.0911 176.897 38.3564 176.416 38.8299C175.945 39.3244 175.683 39.9809 175.683 40.6635C175.683 41.3461 175.945 42.0026 176.416 42.4971C176.907 42.947 177.554 43.1887 178.221 43.1713C178.887 43.1539 179.521 42.8788 179.988 42.4038C180.456 41.9288 180.721 41.291 180.728 40.6244C180.735 39.9579 180.484 39.3146 180.026 38.8299Z" fill="#00303E"/>
<path d="M189.985 37.7518H190.425V43.5611H189.836L186.198 38.2838L186.226 41.1281V43.5611H185.786V37.7518H186.368L190.021 43.0291L189.985 40.1847V37.7518Z" fill="#00303E"/>
</svg>
