<svg width="693" height="571" viewBox="0 0 693 571" fill="none" xmlns="http://www.w3.org/2000/svg">
<g opacity="0.15">
<path d="M360.75 -1.53261e-05L0.75 360L360.75 720L720.75 360L360.75 -1.53261e-05Z" fill="#C6CED5"/>
<path d="M329.202 176.402C334.009 171.754 355.064 149.599 364.518 139.844C373.973 130.088 374.434 128.686 374.434 126.824C374.431 126.187 374.237 125.565 373.876 125.04C373.516 124.515 373.006 124.111 372.412 123.879C371.33 123.418 371.011 123.099 371.011 122.478C371.011 121.857 371.933 121.556 373.334 121.556C377.822 121.556 377.361 122.017 382.629 122.017C387.436 122.017 396.571 121.556 399.055 121.556C401.219 121.556 401.68 122.017 401.68 122.638C401.68 123.258 401.378 123.56 399.906 123.72C397.203 123.929 394.544 124.526 392.012 125.493C388.145 127.037 385.201 128.899 375.906 137.91C362.266 151.072 344.616 168.579 340.59 173.067C350.346 183.71 378.549 212.41 385.822 219.186C398.522 231.106 403.95 234.529 411.382 235.913C412.857 236.227 414.362 236.382 415.87 236.374C417.112 236.374 418.034 236.675 418.034 237.456C418.034 238.236 417.413 238.538 415.71 238.538H404.252C390.771 238.538 387.206 236.764 379.933 231.106C370.638 223.833 342.683 193.856 329.131 177.661V193.625C329.131 208.49 329.131 220.729 329.911 227.327C330.373 231.815 331.313 235.221 335.96 235.842C338.124 236.143 341.282 236.463 342.151 236.463C343.552 236.463 343.925 237.083 343.925 237.545C343.925 238.325 343.304 238.627 341.601 238.627C333.087 238.627 323.331 238.165 322.55 238.165C321.77 238.165 312.635 238.627 307.987 238.627C306.214 238.627 305.504 238.467 305.504 237.545C305.504 237.083 305.805 236.463 307.278 236.463C308.631 236.437 309.98 236.282 311.304 236.001C314.408 235.381 315.331 231.815 315.952 227.327C316.732 220.818 316.732 208.578 316.732 193.625V166.504C316.732 142.345 316.732 137.999 316.431 133.05C316.129 127.728 314.657 125.156 311.109 124.376C309.28 123.974 307.413 123.765 305.539 123.755C304.298 123.755 303.766 123.454 303.766 122.833C303.766 121.91 304.546 121.591 306.249 121.591C311.358 121.591 321.734 122.052 322.515 122.052C323.295 122.052 333.051 121.591 337.699 121.591C339.472 121.591 340.182 121.893 340.182 122.673C340.182 123.454 339.88 123.596 338.408 123.755L335.002 124.057C330.816 124.518 329.575 127.604 329.273 133.05C328.954 137.999 328.954 142.345 328.954 166.504V176.402H329.202Z" fill="#00303E"/>
<path d="M497.447 315.078C494.041 306.404 491.717 304.701 486.289 303.158C484.359 302.71 482.381 302.501 480.4 302.537C480.244 302.571 480.082 302.568 479.927 302.528C479.772 302.488 479.629 302.412 479.508 302.307C479.388 302.202 479.294 302.07 479.233 301.923C479.172 301.775 479.147 301.615 479.159 301.455C479.159 300.533 480.702 300.373 483.185 300.373C490.617 300.373 498.99 300.835 500.923 300.835C502.466 300.835 509.136 300.373 515.025 300.373C517.81 300.373 519.211 300.675 519.211 301.455C519.211 302.236 518.75 302.537 517.668 302.537C515.675 302.471 513.685 302.734 511.779 303.318C511.153 303.549 510.618 303.976 510.254 304.535C509.89 305.094 509.715 305.756 509.757 306.422C510.409 309.835 511.451 313.162 512.861 316.338L544.47 398.589C553.463 377.835 574.217 323.77 577.622 312.613C578.355 310.723 578.827 308.741 579.024 306.724C579.058 306.001 578.886 305.284 578.527 304.656C578.169 304.028 577.64 303.515 577.001 303.176C575.081 302.671 573.096 302.461 571.113 302.555C570.19 302.555 569.339 302.396 569.339 301.633C569.339 300.87 570.261 300.391 572.744 300.391C578.935 300.391 586.066 300.852 587.928 300.852C588.851 300.852 595.52 300.391 600.008 300.391C601.781 300.391 602.651 300.693 602.651 301.473C602.651 302.254 602.03 302.555 600.877 302.555C598.283 302.448 595.711 303.062 593.445 304.329C591.422 305.73 589.099 308.355 584.93 318.892C583.156 323.238 575.476 341.827 567.582 360.878C558.128 383.494 551.157 400.221 547.592 407.813C543.246 417.107 542.643 419.591 541.082 419.591C539.308 419.591 538.457 417.427 535.512 409.994L497.447 315.078Z" fill="#00303E"/>
<path d="M315.97 526.232C315.97 502.072 315.97 497.727 315.669 492.778C315.367 487.456 314.126 485.026 308.999 483.909C307.243 483.591 305.462 483.437 303.678 483.448C303.536 483.47 303.39 483.464 303.25 483.43C303.11 483.395 302.979 483.333 302.863 483.247C302.747 483.162 302.65 483.053 302.577 482.929C302.503 482.805 302.455 482.668 302.436 482.525C302.436 481.603 303.217 481.283 304.919 481.283C311.891 481.283 321.646 481.745 322.427 481.745C324.2 481.745 335.908 481.283 340.697 481.283C350.453 481.283 360.83 482.206 369.078 488.095C372.325 490.578 374.969 493.763 376.812 497.413C378.655 501.062 379.65 505.08 379.721 509.168C379.721 520.626 374.913 532.103 360.971 544.945C373.672 561.211 384.208 574.993 393.184 584.608C401.556 593.477 408.208 595.144 412.075 595.765C414.075 596.083 416.098 596.237 418.124 596.226C418.429 596.185 418.739 596.255 418.997 596.425C419.254 596.594 419.442 596.851 419.525 597.148C419.525 598.071 418.603 598.39 415.8 598.39H404.802C396.129 598.39 392.261 597.609 388.235 595.445C381.565 591.898 376.155 584.288 367.322 572.67C360.812 564.156 353.539 553.779 350.435 549.735C350.192 549.435 349.883 549.196 349.532 549.036C349.181 548.876 348.799 548.8 348.413 548.812L329.363 548.511C329.203 548.499 329.043 548.524 328.895 548.585C328.747 548.646 328.616 548.74 328.511 548.861C328.406 548.981 328.33 549.125 328.29 549.279C328.25 549.434 328.247 549.596 328.28 549.752V553.477C328.28 568.342 328.28 580.581 329.061 587.18C329.522 591.667 330.462 595.073 335.11 595.694C337.421 596.021 339.748 596.228 342.081 596.315C342.224 596.281 342.373 596.279 342.518 596.308C342.662 596.338 342.798 596.399 342.916 596.487C343.034 596.575 343.132 596.687 343.202 596.817C343.272 596.947 343.313 597.09 343.322 597.237C343.322 598.017 342.542 598.479 340.839 598.479C332.325 598.479 322.551 598.017 321.788 598.017C321.629 598.017 311.873 598.479 307.225 598.479C305.452 598.479 304.742 598.177 304.742 597.237C304.751 597.09 304.792 596.947 304.862 596.817C304.932 596.687 305.03 596.575 305.148 596.487C305.266 596.399 305.403 596.338 305.547 596.308C305.691 596.279 305.84 596.281 305.983 596.315C307.549 596.261 309.106 596.053 310.631 595.694C313.735 595.073 314.498 591.667 315.119 587.18C315.899 580.67 315.899 568.43 315.899 553.477V526.232H315.97ZM328.387 539.713C328.39 540.078 328.492 540.437 328.683 540.749C328.873 541.061 329.145 541.316 329.469 541.486C331.792 542.888 338.923 543.97 345.735 543.97C349.817 544.195 353.871 543.168 357.353 541.025C362.781 537.3 366.807 528.946 366.807 517.167C366.807 497.798 356.59 486.179 340.005 486.179C336.523 486.099 333.042 486.409 329.628 487.102C329.262 487.231 328.946 487.471 328.723 487.789C328.501 488.107 328.383 488.487 328.387 488.875V539.535V539.713Z" fill="#00303E"/>
<path d="M153.134 416.54C150.97 415.458 150.811 414.766 150.811 410.651C150.811 402.899 151.432 396.709 151.591 394.225C151.751 392.451 152.052 391.742 152.833 391.742C153.613 391.742 153.915 392.203 153.915 393.516C153.866 395.436 154.021 397.357 154.376 399.245C156.7 410.704 166.917 415.05 177.312 415.05C192.176 415.05 199.466 404.407 199.466 394.438C199.466 383.795 194.979 377.552 181.728 366.554L174.757 360.825C158.332 347.344 154.625 337.765 154.625 327.122C154.625 310.555 167.041 299.238 186.695 299.238C191.54 299.17 196.377 299.688 201.098 300.781C202.874 301.237 204.694 301.499 206.526 301.562C207.768 301.562 208.069 301.863 208.069 302.644C208.069 303.424 207.448 308.533 207.448 319.069C207.448 321.553 207.147 322.617 206.366 322.617C205.586 322.617 205.284 321.836 205.125 320.595C204.837 317.925 204.155 315.313 203.102 312.843C202.18 311.069 197.994 304.631 183.732 304.631C173.09 304.631 164.682 311.3 164.682 322.599C164.682 331.468 168.708 337.002 183.573 348.621L187.919 352.027C206.207 366.43 210.535 376.044 210.535 388.425C210.503 393.442 209.296 398.383 207.011 402.849C204.725 407.316 201.424 411.185 197.373 414.145C190.416 418.64 182.255 420.91 173.977 420.655C166.806 420.892 159.677 419.484 153.134 416.54V416.54Z" fill="#00303E"/>
<path d="M186.324 185.272L535.781 534.729" stroke="#323E42" stroke-width="2" stroke-miterlimit="10"/>
<path d="M535.781 185.272L186.324 534.729" stroke="#323E42" stroke-width="2" stroke-miterlimit="10"/>
</g>
</svg>
