<svg width="720" height="720" viewBox="0 0 720 720" fill="none" xmlns="http://www.w3.org/2000/svg">
<g opacity="0.15">
<path d="M360 1.51915e-05L0 360L360 720L720 360L360 1.51915e-05Z" fill="#C6CED5"/>
<path d="M328.452 176.402C333.259 171.754 354.314 149.6 363.768 139.844C373.223 130.088 373.684 128.686 373.684 126.824C373.681 126.187 373.487 125.565 373.126 125.04C372.766 124.515 372.256 124.111 371.662 123.879C370.58 123.418 370.261 123.099 370.261 122.478C370.261 121.857 371.183 121.556 372.584 121.556C377.072 121.556 376.611 122.017 381.879 122.017C386.686 122.017 395.821 121.556 398.305 121.556C400.469 121.556 400.93 122.017 400.93 122.638C400.93 123.259 400.628 123.56 399.156 123.72C396.453 123.929 393.794 124.526 391.262 125.493C387.395 127.037 384.451 128.899 375.156 137.91C361.516 151.072 343.866 168.579 339.84 173.067C349.596 183.71 377.799 212.41 385.072 219.186C397.772 231.106 403.2 234.529 410.632 235.913C412.107 236.227 413.612 236.382 415.12 236.374C416.362 236.374 417.284 236.675 417.284 237.456C417.284 238.236 416.663 238.538 414.96 238.538H403.502C390.021 238.538 386.456 236.764 379.183 231.106C369.888 223.833 341.933 193.856 328.381 177.661V193.625C328.381 208.49 328.381 220.729 329.161 227.328C329.623 231.815 330.563 235.221 335.21 235.842C337.374 236.143 340.532 236.463 341.401 236.463C342.802 236.463 343.175 237.083 343.175 237.545C343.175 238.325 342.554 238.627 340.851 238.627C332.337 238.627 322.581 238.165 321.8 238.165C321.02 238.165 311.885 238.627 307.237 238.627C305.464 238.627 304.754 238.467 304.754 237.545C304.754 237.083 305.055 236.463 306.528 236.463C307.881 236.437 309.23 236.282 310.554 236.001C313.658 235.381 314.581 231.815 315.202 227.328C315.982 220.818 315.982 208.578 315.982 193.625V166.504C315.982 142.345 315.982 137.999 315.681 133.05C315.379 127.728 313.907 125.157 310.359 124.376C308.53 123.974 306.663 123.765 304.789 123.755C303.548 123.755 303.016 123.454 303.016 122.833C303.016 121.91 303.796 121.591 305.499 121.591C310.608 121.591 320.984 122.052 321.765 122.052C322.545 122.052 332.301 121.591 336.949 121.591C338.722 121.591 339.432 121.893 339.432 122.673C339.432 123.454 339.13 123.596 337.658 123.755L334.252 124.057C330.066 124.518 328.825 127.604 328.523 133.05C328.204 137.999 328.204 142.345 328.204 166.504V176.402H328.452Z" fill="#00303E"/>
<path d="M496.697 315.078C493.291 306.404 490.967 304.701 485.539 303.158C483.609 302.71 481.631 302.501 479.65 302.537C479.494 302.571 479.332 302.568 479.177 302.528C479.022 302.488 478.879 302.412 478.758 302.307C478.638 302.202 478.544 302.07 478.483 301.923C478.422 301.775 478.397 301.615 478.409 301.455C478.409 300.533 479.952 300.373 482.435 300.373C489.867 300.373 498.24 300.835 500.173 300.835C501.716 300.835 508.386 300.373 514.275 300.373C517.06 300.373 518.461 300.675 518.461 301.455C518.461 302.236 518 302.537 516.918 302.537C514.925 302.471 512.935 302.734 511.029 303.318C510.403 303.549 509.868 303.976 509.504 304.535C509.14 305.094 508.965 305.756 509.007 306.422C509.659 309.835 510.701 313.162 512.111 316.338L543.72 398.589C552.713 377.835 573.467 323.77 576.872 312.613C577.605 310.723 578.077 308.741 578.274 306.724C578.308 306.001 578.136 305.284 577.777 304.656C577.419 304.028 576.89 303.515 576.251 303.176C574.331 302.671 572.346 302.461 570.363 302.555C569.44 302.555 568.589 302.396 568.589 301.633C568.589 300.87 569.511 300.391 571.994 300.391C578.185 300.391 585.316 300.852 587.178 300.852C588.101 300.852 594.77 300.391 599.258 300.391C601.031 300.391 601.901 300.693 601.901 301.473C601.901 302.254 601.28 302.555 600.127 302.555C597.533 302.448 594.961 303.062 592.695 304.329C590.672 305.73 588.349 308.355 584.18 318.892C582.406 323.238 574.726 341.827 566.832 360.878C557.378 383.494 550.407 400.221 546.842 407.813C542.496 417.107 541.893 419.591 540.332 419.591C538.558 419.591 537.707 417.427 534.762 409.994L496.697 315.078Z" fill="#00303E"/>
<path d="M315.22 526.232C315.22 502.072 315.22 497.727 314.919 492.778C314.617 487.456 313.376 485.026 308.249 483.909C306.494 483.592 304.712 483.437 302.928 483.448C302.786 483.47 302.64 483.464 302.5 483.43C302.36 483.395 302.229 483.333 302.113 483.247C301.997 483.162 301.9 483.053 301.827 482.929C301.753 482.805 301.705 482.668 301.686 482.525C301.686 481.603 302.467 481.284 304.169 481.284C311.141 481.284 320.896 481.745 321.677 481.745C323.451 481.745 335.158 481.284 339.947 481.284C349.703 481.284 360.08 482.206 368.328 488.095C371.575 490.578 374.219 493.763 376.062 497.413C377.905 501.062 378.9 505.08 378.971 509.168C378.971 520.626 374.164 532.103 360.221 544.945C372.922 561.211 383.459 574.994 392.434 584.608C400.806 593.477 407.458 595.144 411.325 595.765C413.325 596.083 415.348 596.237 417.374 596.226C417.679 596.185 417.989 596.255 418.247 596.425C418.504 596.594 418.692 596.851 418.775 597.148C418.775 598.071 417.853 598.39 415.05 598.39H404.052C395.379 598.39 391.512 597.609 387.485 595.445C380.815 591.898 375.405 584.288 366.572 572.67C360.062 564.156 352.789 553.779 349.685 549.735C349.442 549.435 349.133 549.196 348.782 549.036C348.431 548.876 348.049 548.8 347.663 548.812L328.613 548.511C328.453 548.499 328.293 548.524 328.145 548.585C327.997 548.646 327.866 548.74 327.761 548.861C327.656 548.981 327.58 549.125 327.54 549.279C327.5 549.434 327.497 549.596 327.53 549.752V553.477C327.53 568.342 327.53 580.581 328.311 587.18C328.772 591.667 329.712 595.073 334.36 595.694C336.671 596.021 338.998 596.228 341.331 596.315C341.474 596.281 341.623 596.279 341.768 596.308C341.912 596.338 342.048 596.399 342.166 596.487C342.284 596.575 342.382 596.687 342.452 596.817C342.522 596.947 342.563 597.09 342.572 597.237C342.572 598.017 341.792 598.479 340.089 598.479C331.575 598.479 321.801 598.017 321.038 598.017C320.879 598.017 311.123 598.479 306.476 598.479C304.702 598.479 303.992 598.177 303.992 597.237C304.001 597.09 304.042 596.947 304.112 596.817C304.183 596.687 304.28 596.575 304.398 596.487C304.516 596.399 304.653 596.338 304.797 596.308C304.941 596.279 305.09 596.281 305.234 596.315C306.799 596.261 308.356 596.053 309.881 595.694C312.985 595.073 313.748 591.667 314.369 587.18C315.149 580.67 315.149 568.43 315.149 553.477V526.232H315.22ZM327.637 539.713C327.64 540.078 327.742 540.437 327.933 540.749C328.123 541.061 328.395 541.316 328.719 541.486C331.042 542.888 338.173 543.97 344.985 543.97C349.067 544.195 353.121 543.168 356.603 541.025C362.031 537.3 366.057 528.946 366.057 517.168C366.057 497.798 355.84 486.179 339.255 486.179C335.773 486.099 332.292 486.409 328.878 487.102C328.512 487.231 328.196 487.471 327.973 487.789C327.751 488.108 327.633 488.487 327.637 488.875V539.535V539.713Z" fill="#00303E"/>
<path d="M152.384 416.54C150.22 415.458 150.061 414.766 150.061 410.651C150.061 402.899 150.682 396.709 150.841 394.225C151.001 392.452 151.302 391.742 152.083 391.742C152.863 391.742 153.165 392.203 153.165 393.516C153.116 395.437 153.271 397.357 153.626 399.245C155.95 410.704 166.167 415.05 176.561 415.05C191.426 415.05 198.716 404.407 198.716 394.438C198.716 383.795 194.229 377.552 180.978 366.554L174.007 360.825C157.581 347.344 153.874 337.765 153.874 327.122C153.874 310.555 166.291 299.238 185.945 299.238C190.79 299.17 195.627 299.688 200.348 300.781C202.124 301.237 203.944 301.499 205.776 301.562C207.018 301.562 207.319 301.863 207.319 302.644C207.319 303.424 206.698 308.533 206.698 319.069C206.698 321.553 206.397 322.617 205.616 322.617C204.836 322.617 204.534 321.836 204.375 320.595C204.087 317.925 203.405 315.313 202.352 312.843C201.43 311.069 197.244 304.631 182.982 304.631C172.34 304.631 163.932 311.3 163.932 322.599C163.932 331.468 167.958 337.002 182.823 348.621L187.169 352.027C205.457 366.43 209.785 376.044 209.785 388.425C209.753 393.442 208.546 398.383 206.261 402.849C203.975 407.316 200.674 411.185 196.623 414.145C189.666 418.64 181.505 420.91 173.227 420.655C166.056 420.892 158.927 419.484 152.384 416.54V416.54Z" fill="#00303E"/>
<path d="M185.574 185.272L535.031 534.729" stroke="#323E42" stroke-width="2" stroke-miterlimit="10"/>
<path d="M535.031 185.272L185.574 534.729" stroke="#323E42" stroke-width="2" stroke-miterlimit="10"/>
</g>
</svg>
