<svg width="19" height="13" viewBox="0 0 19 13" fill="none" xmlns="http://www.w3.org/2000/svg">
<path d="M1.5826 0.477539H16.4212C16.6648 0.477539 16.8928 0.529936 17.0991 0.6163L9.03707 7.67059L7.2301 6.15109C7.2301 6.15109 7.22996 6.15094 7.22992 6.15087C7.22989 6.15081 7.22975 6.15075 7.22975 6.15075L0.904449 0.616423C1.11078 0.529997 1.33895 0.477539 1.5826 0.477539Z" fill="#00303E"/>
<path d="M0.158407 1.2688L6.11084 6.4769L0.158618 11.6851C0.059917 11.5046 3.48091e-05 11.3051 3.48091e-05 11.0919V1.86175C3.48091e-05 1.64874 0.0597758 1.44925 0.158407 1.2688Z" fill="#00303E"/>
<path d="M17.8448 1.2688C17.9435 1.44931 18.0034 1.64884 18.0034 1.86196V11.0922C18.0034 11.3052 17.9436 11.5047 17.845 11.6852L11.8925 6.47706L17.8448 1.2688Z" fill="#00303E"/>
<path d="M6.85692 7.13043L8.66413 8.65012C8.76716 8.74027 8.90211 8.78534 9.03703 8.78534C9.17195 8.78534 9.30694 8.74027 9.40993 8.65012L11.1468 7.13037L17.0994 12.3385C16.893 12.4249 16.6649 12.4774 16.4212 12.4774H1.58259C1.33902 12.4774 1.11099 12.425 0.904694 12.3386L6.85692 7.13043Z" fill="#00303E"/>
</svg>
