<svg width="24" height="22" viewBox="0 0 24 22" fill="none" xmlns="http://www.w3.org/2000/svg">
<path d="M15.2973 5.39126L15.2975 5.39123L15.2962 5.38669C15.0841 4.64454 14.4455 4.16416 13.7 4.16416H11.25C10.5061 4.16416 9.86327 4.64384 9.70243 5.39222L9.5208 6.16416H7.5C5.72848 6.16416 4.25695 7.45849 3.96467 9.16416H2.3C1.54477 9.16416 0.9 9.80893 0.9 10.5642C0.9 10.7814 0.954443 10.9967 1.06056 11.2089L1.06055 11.2089L1.06128 11.2103L1.71056 12.4589C1.71067 12.4591 1.71079 12.4594 1.71091 12.4596C1.97641 12.99 2.50904 13.3642 3.15 13.3642H3.9V19.2642C3.9 20.4194 4.84477 21.3642 6 21.3642H18C19.1552 21.3642 20.1 20.4194 20.1 19.2642V13.3642H20.9C21.4841 13.3642 22.0719 13.0458 22.3402 12.4573L22.9894 11.1589C23.0956 10.9467 23.15 10.7314 23.15 10.5142H23.1503L23.1497 10.5065C23.0959 9.80659 22.4544 9.16416 21.7 9.16416H20.0353C19.743 7.45849 18.2715 6.16416 16.5 6.16416H15.4792L15.2973 5.39126ZM14.153 5.68841L14.2719 6.16416H10.818L10.8979 5.68479C10.9403 5.52283 11.1048 5.36416 11.3 5.36416H13.75C13.956 5.36416 14.112 5.48397 14.1519 5.68377L14.1518 5.68379L14.153 5.68841ZM2.73944 11.9194L2.73945 11.9194L2.73872 11.918L2.1 10.6897V10.6896V10.6893V10.689V10.6887V10.6884V10.6881V10.6878V10.6875V10.6872V10.6869V10.6866V10.6863V10.686V10.6857V10.6854V10.6852V10.6849V10.6846V10.6843V10.684V10.6837V10.6834V10.6831V10.6828V10.6825V10.6822V10.6819V10.6816V10.6813V10.6811V10.6808V10.6805V10.6802V10.6799V10.6796V10.6793V10.679V10.6787V10.6784V10.6781V10.6778V10.6775V10.6772V10.677V10.6767V10.6764V10.6761V10.6758V10.6755V10.6752V10.6749V10.6746V10.6743V10.674V10.6737V10.6734V10.6731V10.6729V10.6726V10.6723V10.672V10.6717V10.6714V10.6711V10.6708V10.6705V10.6702V10.6699V10.6696V10.6693V10.669V10.6687V10.6685V10.6682V10.6679V10.6676V10.6673V10.667V10.6667V10.6664V10.6661V10.6658V10.6655V10.6652V10.6649V10.6646V10.6644V10.6641V10.6638V10.6635V10.6632V10.6629V10.6626V10.6623V10.662V10.6617V10.6614V10.6611V10.6608V10.6605V10.6603V10.66V10.6597V10.6594V10.6591V10.6588V10.6585V10.6582V10.6579V10.6576V10.6573V10.657V10.6567V10.6564V10.6562V10.6559V10.6556V10.6553V10.655V10.6547V10.6544V10.6541V10.6538V10.6535V10.6532V10.6529V10.6526V10.6523V10.6521V10.6518V10.6515V10.6512V10.6509V10.6506V10.6503V10.65V10.6497V10.6494V10.6491V10.6488V10.6485V10.6482V10.6479V10.6477V10.6474V10.6471V10.6468V10.6465V10.6462V10.6459V10.6456V10.6453V10.645V10.6447V10.6444V10.6441V10.6438V10.6436V10.6433V10.643V10.6427V10.6424V10.6421V10.6418V10.6415V10.6412V10.6409V10.6406V10.6403V10.64V10.6397V10.6395V10.6392V10.6389V10.6386V10.6383V10.638V10.6377V10.6374V10.6371V10.6368V10.6365V10.6362V10.6359V10.6356V10.6354V10.6351V10.6348V10.6345V10.6342V10.6339V10.6336V10.6333V10.633V10.6327V10.6324V10.6321V10.6318V10.6315V10.6313V10.631V10.6307V10.6304V10.6301V10.6298V10.6295V10.6292V10.6289V10.6286V10.6283V10.628V10.6277V10.6274V10.6271V10.6269V10.6266V10.6263V10.626V10.6257V10.6254V10.6251V10.6248V10.6245V10.6242V10.6239V10.6236V10.6233V10.623V10.6228V10.6225V10.6222V10.6219V10.6216V10.6213V10.621V10.6207V10.6204V10.6201V10.6198V10.6195V10.6192V10.6189V10.6187V10.6184V10.6181V10.6178V10.6175V10.6172V10.6169V10.6166V10.6163V10.616V10.6157V10.6154V10.6151V10.6148V10.6146V10.6143V10.614V10.6137V10.6134V10.6131V10.6128V10.6125V10.6122V10.6119V10.6116V10.6113V10.611V10.6107V10.6104V10.6102V10.6099V10.6096V10.6093V10.609V10.6087V10.6084V10.6081V10.6078V10.6075V10.6072V10.6069V10.6066V10.6063V10.6061V10.6058V10.6055V10.6052V10.6049V10.6046V10.6043V10.604V10.6037V10.6034V10.6031V10.6028V10.6025V10.6022V10.602V10.6017V10.6014V10.6011V10.6008V10.6005V10.6002V10.5999V10.5996V10.5993V10.599V10.5987V10.5984V10.5981V10.5979V10.5976V10.5973V10.597V10.5967V10.5964V10.5961V10.5958V10.5955V10.5952V10.5949V10.5946V10.5943V10.594V10.5938V10.5935V10.5932V10.5929V10.5926V10.5923V10.592V10.5917V10.5914V10.5911V10.5908V10.5905V10.5902V10.5899V10.5896V10.5894V10.5891V10.5888V10.5885V10.5882V10.5879V10.5876V10.5873V10.587V10.5867V10.5864V10.5861V10.5858V10.5855V10.5853V10.585V10.5847V10.5844V10.5841V10.5838V10.5835V10.5832V10.5829V10.5826V10.5823V10.582V10.5817V10.5814V10.5812V10.5809V10.5806V10.5803V10.58V10.5797V10.5794V10.5791V10.5788V10.5785V10.5782V10.5779V10.5776V10.5773V10.5771V10.5768V10.5765V10.5762V10.5759V10.5756V10.5753V10.575V10.5747V10.5744V10.5741V10.5738V10.5735V10.5732V10.5729V10.5727V10.5724V10.5721V10.5718V10.5715V10.5712V10.5709V10.5706V10.5703V10.57V10.5697V10.5694V10.5691V10.5688V10.5686V10.5683V10.568V10.5677V10.5674V10.5671V10.5668V10.5665V10.5662V10.5659V10.5656V10.5653V10.565V10.5647V10.5645V10.5642C2.1 10.5217 2.12225 10.4708 2.16446 10.4286C2.20668 10.3864 2.25752 10.3642 2.3 10.3642H3.9V12.1642H3.1C3.0175 12.1642 2.94977 12.1438 2.89297 12.106C2.83554 12.0677 2.78351 12.0076 2.73944 11.9194ZM21.8793 10.6434L21.8678 10.6549L21.8606 10.6694L21.2134 11.9638C21.1179 12.1053 20.9952 12.2142 20.85 12.2142H20.1V10.4142H21.7C21.7425 10.4142 21.7933 10.4364 21.8355 10.4786C21.8764 10.5195 21.8986 10.5685 21.8999 10.6101C21.8997 10.611 21.8994 10.6122 21.8989 10.6138C21.897 10.6196 21.8921 10.6307 21.8793 10.6434ZM18.14 4.28416L18.1343 4.28842L18.1293 4.29345C17.9042 4.51857 17.8276 4.88321 18.0793 5.13487C18.1858 5.24136 18.3601 5.36416 18.55 5.36416C18.614 5.36416 18.6875 5.34872 18.7504 5.32778C18.8099 5.30795 18.8785 5.27703 18.9207 5.23487C19.3329 4.82269 19.6 4.34872 19.6 3.76416C19.6 3.17928 19.3325 2.70445 18.8685 2.29129C18.7442 2.16837 18.5765 2.12487 18.4218 2.13961C18.2695 2.15411 18.1191 2.22591 18.0243 2.34847C17.9036 2.47253 17.8608 2.6388 17.8755 2.79239C17.8901 2.94643 17.9634 3.09855 18.0887 3.19315C18.2056 3.28686 18.2824 3.37652 18.3304 3.4672C18.3781 3.55731 18.4 3.6534 18.4 3.76416C18.4 3.98268 18.3148 4.15305 18.14 4.28416ZM16.05 3.16416V3.22078L16.0985 3.24991C16.2115 3.31767 16.2853 3.39345 16.3316 3.47569C16.3779 3.55793 16.4 3.65283 16.4 3.76416C16.4 3.98268 16.3148 4.15305 16.14 4.28416L16.1343 4.28842L16.1293 4.29345C15.9042 4.51857 15.8276 4.88321 16.0793 5.13487C16.1858 5.24136 16.3601 5.36416 16.55 5.36416C16.614 5.36416 16.6875 5.34872 16.7504 5.32778C16.8099 5.30795 16.8785 5.27703 16.9207 5.23487C17.3329 4.82269 17.6 4.34872 17.6 3.76416C17.6 3.23598 17.3881 2.75954 16.9684 2.39113L16.9207 2.34345L16.9211 2.34301L16.9125 2.33607C16.7949 2.24204 16.7178 2.15209 16.6696 2.06112C16.6219 1.97101 16.6 1.87492 16.6 1.76416C16.6 1.54564 16.6852 1.37527 16.86 1.24416L16.8657 1.2399L16.8707 1.23487C17.091 1.01462 17.169 0.660825 16.9366 0.409944C16.8587 0.215572 16.6578 0.16416 16.5 0.16416C16.3773 0.16416 16.2109 0.221887 16.1053 0.274717L16.0908 0.281975L16.0793 0.29345C15.6671 0.705631 15.4 1.1796 15.4 1.76416C15.4 2.29233 15.6119 2.76876 16.0316 3.13717C16.0399 3.14552 16.0457 3.15131 16.05 3.15578L16.05 3.16416ZM7.5 7.36416H16.5C17.6084 7.36416 18.5406 8.12028 18.8227 9.16416H5.17726C5.45935 8.12028 6.39157 7.36416 7.5 7.36416ZM18.9 19.2642C18.9 19.7589 18.4948 20.1642 18 20.1642H6C5.50523 20.1642 5.1 19.7589 5.1 19.2642V12.7642V10.3642H18.9V12.7642V19.2642Z" fill="#0D0D0D" stroke="black" stroke-width="0.2"/>
<path d="M18.5 1.86416C18.8314 1.86416 19.1 1.59553 19.1 1.26416C19.1 0.932789 18.8314 0.66416 18.5 0.66416C18.1686 0.66416 17.9 0.932789 17.9 1.26416C17.9 1.59553 18.1686 1.86416 18.5 1.86416Z" fill="#0D0D0D" stroke="black" stroke-width="0.2"/>
</svg>
