<svg width="11" height="12" viewBox="0 0 11 12" fill="none" xmlns="http://www.w3.org/2000/svg">
<path d="M10.1173 7.72024C9.44388 7.72024 8.78262 7.61491 8.15599 7.40783C7.84894 7.3031 7.47147 7.39918 7.28407 7.59165L6.04723 8.52533C4.61285 7.75966 3.72931 6.87639 2.97409 5.45278L3.8803 4.24816C4.11574 4.01304 4.20018 3.66958 4.09901 3.34731C3.89104 2.71739 3.78539 2.05644 3.78539 1.38269C3.78542 0.895971 3.38945 0.5 2.90276 0.5H0.882662C0.39597 0.5 0 0.895971 0 1.38266C0 6.96144 4.53858 11.5 10.1173 11.5C10.604 11.5 11 11.104 11 10.6173V8.60288C11 8.11621 10.604 7.72024 10.1173 7.72024Z" fill="#0D0D0D"/>
</svg>
