<svg width="370" height="526" viewBox="0 0 370 526" fill="none" xmlns="http://www.w3.org/2000/svg">
<g filter="url(#filter0_d_484_191)">
<path fill-rule="evenodd" clip-rule="evenodd" d="M24.5 497.407L24.5 20.6821C63.5491 24.7161 120.976 27.2645 185 27.2645C249.024 27.2645 306.451 24.7161 345.5 20.6822L345.5 497.407C306.451 493.373 249.024 490.825 185 490.825C120.976 490.825 63.5491 493.373 24.5 497.407Z" fill="white"/>
</g>
<mask id="mask0_484_191" style="mask-type:alpha" maskUnits="userSpaceOnUse" x="24" y="20" width="322" height="478">
<path fill-rule="evenodd" clip-rule="evenodd" d="M24.5 497.407L24.5 20.6821C63.5491 24.7161 120.976 27.2645 185 27.2645C249.024 27.2645 306.451 24.7161 345.5 20.6822L345.5 497.407C306.451 493.373 249.024 490.825 185 490.825C120.976 490.825 63.5491 493.373 24.5 497.407Z" fill="white"/>
</mask>
<g mask="url(#mask0_484_191)">
<g opacity="0.15">
<path d="M185 358.349L79.665 463.684L185 569.018L290.335 463.684L185 358.349Z" fill="#C6CED5"/>
<path d="M175.769 409.963C177.175 408.603 183.336 402.121 186.102 399.266C188.869 396.412 189.004 396.002 189.004 395.457C189.003 395.27 188.946 395.089 188.84 394.935C188.735 394.781 188.586 394.663 188.412 394.595C188.095 394.46 188.002 394.367 188.002 394.185C188.002 394.004 188.272 393.915 188.682 393.915C189.995 393.915 189.86 394.05 191.401 394.05C192.808 394.05 195.481 393.915 196.207 393.915C196.841 393.915 196.976 394.05 196.976 394.232C196.976 394.414 196.887 394.502 196.457 394.548C195.666 394.61 194.888 394.784 194.147 395.067C193.015 395.519 192.154 396.064 189.434 398.701C185.443 402.552 180.279 407.674 179.101 408.987C181.955 412.101 190.208 420.499 192.336 422.482C196.052 425.969 197.64 426.971 199.815 427.376C200.246 427.468 200.686 427.513 201.128 427.511C201.491 427.511 201.761 427.599 201.761 427.827C201.761 428.056 201.579 428.144 201.081 428.144H197.728C193.784 428.144 192.74 427.625 190.613 425.969C187.893 423.841 179.713 415.07 175.748 410.332V415.003C175.748 419.352 175.748 422.933 175.976 424.864C176.111 426.177 176.386 427.173 177.746 427.355C178.379 427.443 179.303 427.537 179.558 427.537C179.968 427.537 180.077 427.718 180.077 427.853C180.077 428.082 179.895 428.17 179.397 428.17C176.905 428.17 174.051 428.035 173.823 428.035C173.594 428.035 170.921 428.17 169.561 428.17C169.042 428.17 168.835 428.123 168.835 427.853C168.835 427.718 168.923 427.537 169.354 427.537C169.75 427.529 170.144 427.484 170.532 427.402C171.44 427.22 171.71 426.177 171.892 424.864C172.12 422.959 172.12 419.378 172.12 415.003V407.067C172.12 399.998 172.12 398.727 172.032 397.278C171.944 395.721 171.513 394.969 170.475 394.741C169.94 394.623 169.393 394.562 168.845 394.559C168.482 394.559 168.326 394.471 168.326 394.289C168.326 394.019 168.555 393.926 169.053 393.926C170.548 393.926 173.584 394.061 173.812 394.061C174.04 394.061 176.895 393.926 178.255 393.926C178.774 393.926 178.981 394.014 178.981 394.242C178.981 394.471 178.893 394.512 178.462 394.559L177.466 394.647C176.241 394.782 175.878 395.685 175.79 397.278C175.696 398.727 175.696 399.998 175.696 407.067V409.963H175.769Z" fill="#00303E"/>
<path d="M224.997 450.54C224.001 448.002 223.321 447.503 221.733 447.052C221.168 446.921 220.589 446.86 220.01 446.87C219.964 446.88 219.917 446.879 219.871 446.867C219.826 446.856 219.784 446.834 219.749 446.803C219.713 446.772 219.686 446.734 219.668 446.69C219.65 446.647 219.643 446.6 219.646 446.554C219.646 446.284 220.098 446.237 220.824 446.237C222.999 446.237 225.449 446.372 226.015 446.372C226.466 446.372 228.418 446.237 230.141 446.237C230.956 446.237 231.366 446.325 231.366 446.554C231.366 446.782 231.231 446.87 230.914 446.87C230.331 446.851 229.749 446.928 229.191 447.099C229.008 447.166 228.851 447.291 228.745 447.455C228.638 447.618 228.587 447.812 228.599 448.007C228.79 449.005 229.095 449.979 229.508 450.908L238.756 474.975C241.388 468.902 247.46 453.083 248.457 449.818C248.671 449.265 248.809 448.685 248.867 448.095C248.876 447.884 248.826 447.674 248.721 447.49C248.617 447.306 248.462 447.156 248.275 447.057C247.713 446.909 247.132 446.848 246.552 446.875C246.282 446.875 246.033 446.829 246.033 446.606C246.033 446.382 246.303 446.242 247.029 446.242C248.841 446.242 250.927 446.377 251.472 446.377C251.742 446.377 253.693 446.242 255.006 446.242C255.525 446.242 255.78 446.33 255.78 446.559C255.78 446.787 255.598 446.875 255.261 446.875C254.502 446.844 253.749 447.024 253.086 447.394C252.494 447.804 251.814 448.573 250.595 451.656C250.076 452.927 247.828 458.366 245.519 463.94C242.753 470.558 240.713 475.452 239.67 477.673C238.398 480.393 238.222 481.12 237.765 481.12C237.246 481.12 236.997 480.486 236.135 478.312L224.997 450.54Z" fill="#00303E"/>
<path d="M124.252 480.227C123.619 479.91 123.572 479.708 123.572 478.504C123.572 476.236 123.754 474.424 123.801 473.698C123.847 473.179 123.936 472.971 124.164 472.971C124.392 472.971 124.481 473.106 124.481 473.49C124.466 474.052 124.512 474.614 124.615 475.167C125.295 478.519 128.285 479.791 131.326 479.791C135.676 479.791 137.809 476.677 137.809 473.76C137.809 470.646 136.496 468.819 132.619 465.601L130.579 463.925C125.773 459.98 124.688 457.178 124.688 454.064C124.688 449.216 128.321 445.905 134.072 445.905C135.49 445.885 136.905 446.036 138.286 446.356C138.806 446.49 139.338 446.566 139.874 446.585C140.238 446.585 140.326 446.673 140.326 446.901C140.326 447.13 140.144 448.624 140.144 451.707C140.144 452.434 140.056 452.745 139.828 452.745C139.599 452.745 139.511 452.517 139.464 452.154C139.38 451.373 139.181 450.608 138.873 449.886C138.603 449.367 137.378 447.483 133.205 447.483C130.091 447.483 127.631 449.434 127.631 452.74C127.631 455.335 128.809 456.955 133.158 460.354L134.43 461.351C139.781 465.565 141.047 468.378 141.047 472.001C141.038 473.469 140.685 474.914 140.016 476.221C139.347 477.528 138.382 478.66 137.196 479.526C135.161 480.841 132.773 481.506 130.351 481.431C128.253 481.5 126.166 481.088 124.252 480.227Z" fill="#00303E"/>
<path d="M133.963 412.559L236.213 514.809" stroke="#323E42" stroke-width="2" stroke-miterlimit="10"/>
<path d="M236.213 412.559L133.963 514.809" stroke="#323E42" stroke-width="2" stroke-miterlimit="10"/>
</g>
</g>
<defs>
<filter id="filter0_d_484_191" x="0.5" y="0.682129" width="369" height="524.725" filterUnits="userSpaceOnUse" color-interpolation-filters="sRGB">
<feFlood flood-opacity="0" result="BackgroundImageFix"/>
<feColorMatrix in="SourceAlpha" type="matrix" values="0 0 0 0 0 0 0 0 0 0 0 0 0 0 0 0 0 0 127 0" result="hardAlpha"/>
<feOffset dy="4"/>
<feGaussianBlur stdDeviation="12"/>
<feComposite in2="hardAlpha" operator="out"/>
<feColorMatrix type="matrix" values="0 0 0 0 0 0 0 0 0 0 0 0 0 0 0 0 0 0 0.05 0"/>
<feBlend mode="normal" in2="BackgroundImageFix" result="effect1_dropShadow_484_191"/>
<feBlend mode="normal" in="SourceGraphic" in2="effect1_dropShadow_484_191" result="shape"/>
</filter>
</defs>
</svg>
