<svg width="849" height="481" viewBox="0 0 849 481" fill="none" xmlns="http://www.w3.org/2000/svg">
<g filter="url(#filter0_d_379_229)">
<path fill-rule="evenodd" clip-rule="evenodd" d="M24.0374 451.138V20.0254C126.65 29.5752 276.78 35.5984 444.037 35.5984C590.704 35.5984 724.202 30.9669 824.037 23.3873V453C724.331 444.771 590.992 439.264 444.469 438.296C276.99 437.189 126.655 442.239 24.0374 451.138Z" fill="white"/>
</g>
<mask id="mask0_379_229" style="mask-type:alpha" maskUnits="userSpaceOnUse" x="24" y="20" width="801" height="433">
<path fill-rule="evenodd" clip-rule="evenodd" d="M24.0374 451.138V20.0254C126.65 29.5752 276.78 35.5984 444.037 35.5984C590.704 35.5984 724.202 30.9669 824.037 23.3873V453C724.331 444.771 590.992 439.264 444.469 438.296C276.99 437.189 126.655 442.239 24.0374 451.138Z" fill="white"/>
</mask>
<g mask="url(#mask0_379_229)">
<g opacity="0.15">
<path d="M424.037 184.49L214.177 394.35L424.037 604.21L633.897 394.35L424.037 184.49Z" fill="#C6CED5"/>
<path d="M405.647 287.322C408.449 284.613 420.723 271.698 426.234 266.011C431.745 260.324 432.014 259.507 432.014 258.421C432.013 258.05 431.899 257.688 431.689 257.381C431.479 257.075 431.182 256.84 430.836 256.705C430.205 256.436 430.019 256.25 430.019 255.888C430.019 255.526 430.557 255.35 431.373 255.35C433.99 255.35 433.721 255.619 436.792 255.619C439.594 255.619 444.919 255.35 446.367 255.35C447.628 255.35 447.897 255.619 447.897 255.981C447.897 256.343 447.721 256.519 446.863 256.612C445.288 256.733 443.738 257.082 442.262 257.646C440.007 258.545 438.291 259.631 432.873 264.884C424.921 272.556 414.632 282.762 412.285 285.378C417.972 291.582 434.413 308.313 438.653 312.263C446.056 319.212 449.221 321.207 453.553 322.014C454.413 322.197 455.29 322.287 456.169 322.283C456.893 322.283 457.431 322.459 457.431 322.914C457.431 323.369 457.069 323.544 456.076 323.544H449.396C441.538 323.544 439.459 322.51 435.22 319.212C429.802 314.972 413.505 297.497 405.605 288.056V297.363C405.605 306.028 405.605 313.163 406.06 317.009C406.329 319.625 406.877 321.611 409.586 321.973C410.848 322.148 412.688 322.334 413.195 322.334C414.012 322.334 414.229 322.696 414.229 322.965C414.229 323.42 413.867 323.596 412.875 323.596C407.911 323.596 402.224 323.327 401.769 323.327C401.314 323.327 395.989 323.596 393.28 323.596C392.246 323.596 391.832 323.503 391.832 322.965C391.832 322.696 392.008 322.334 392.866 322.334C393.655 322.319 394.441 322.229 395.213 322.066C397.023 321.704 397.561 319.625 397.923 317.009C398.377 313.214 398.377 306.08 398.377 297.363V281.552C398.377 267.469 398.377 264.936 398.202 262.051C398.026 258.949 397.168 257.449 395.1 256.994C394.033 256.76 392.945 256.638 391.853 256.632C391.129 256.632 390.819 256.457 390.819 256.095C390.819 255.557 391.274 255.371 392.266 255.371C395.244 255.371 401.293 255.64 401.748 255.64C402.203 255.64 407.891 255.371 410.6 255.371C411.634 255.371 412.047 255.547 412.047 256.002C412.047 256.457 411.871 256.539 411.013 256.632L409.028 256.808C406.588 257.077 405.864 258.876 405.688 262.051C405.502 264.936 405.502 267.469 405.502 281.552V287.322H405.647Z" fill="#00303E"/>
<path d="M503.724 368.163C501.739 363.107 500.384 362.114 497.22 361.215C496.095 360.953 494.942 360.832 493.787 360.853C493.696 360.872 493.601 360.87 493.511 360.847C493.421 360.824 493.337 360.78 493.267 360.719C493.197 360.657 493.142 360.581 493.106 360.494C493.071 360.408 493.056 360.315 493.063 360.222C493.063 359.684 493.963 359.591 495.41 359.591C499.743 359.591 504.623 359.86 505.751 359.86C506.65 359.86 510.538 359.591 513.971 359.591C515.594 359.591 516.411 359.767 516.411 360.222C516.411 360.677 516.142 360.853 515.512 360.853C514.35 360.814 513.19 360.968 512.079 361.308C511.714 361.443 511.402 361.691 511.19 362.017C510.977 362.343 510.876 362.729 510.9 363.117C511.28 365.107 511.887 367.046 512.71 368.898L531.136 416.845C536.379 404.747 548.477 373.23 550.462 366.726C550.889 365.624 551.164 364.469 551.279 363.293C551.299 362.872 551.198 362.454 550.99 362.088C550.781 361.722 550.472 361.423 550.1 361.225C548.981 360.93 547.823 360.808 546.667 360.863C546.129 360.863 545.633 360.77 545.633 360.325C545.633 359.881 546.171 359.602 547.618 359.602C551.227 359.602 555.384 359.87 556.47 359.87C557.007 359.87 560.895 359.602 563.511 359.602C564.545 359.602 565.052 359.777 565.052 360.232C565.052 360.687 564.69 360.863 564.018 360.863C562.506 360.801 561.006 361.159 559.685 361.897C558.507 362.714 557.152 364.244 554.722 370.387C553.688 372.92 549.211 383.757 544.609 394.862C539.098 408.046 535.034 417.797 532.956 422.222C530.423 427.641 530.071 429.088 529.161 429.088C528.127 429.088 527.631 427.827 525.914 423.494L503.724 368.163Z" fill="#00303E"/>
<path d="M303.009 427.31C301.747 426.679 301.654 426.276 301.654 423.877C301.654 419.358 302.016 415.749 302.11 414.302C302.203 413.267 302.378 412.854 302.833 412.854C303.288 412.854 303.464 413.123 303.464 413.888C303.436 415.008 303.526 416.127 303.733 417.228C305.087 423.908 311.044 426.441 317.103 426.441C325.768 426.441 330.018 420.237 330.018 414.426C330.018 408.221 327.402 404.582 319.678 398.171L315.614 394.831C306.039 386.972 303.878 381.388 303.878 375.184C303.878 365.526 311.116 358.929 322.573 358.929C325.398 358.889 328.217 359.191 330.969 359.829C332.004 360.095 333.065 360.247 334.133 360.284C334.857 360.284 335.033 360.46 335.033 360.915C335.033 361.37 334.671 364.348 334.671 370.49C334.671 371.937 334.495 372.558 334.04 372.558C333.585 372.558 333.409 372.103 333.316 371.379C333.149 369.823 332.751 368.3 332.137 366.86C331.6 365.826 329.16 362.073 320.846 362.073C314.642 362.073 309.741 365.961 309.741 372.547C309.741 377.718 312.088 380.944 320.753 387.717L323.286 389.702C333.947 398.098 336.47 403.703 336.47 410.92C336.452 413.845 335.748 416.725 334.416 419.329C333.083 421.933 331.159 424.188 328.798 425.914C324.742 428.534 319.985 429.857 315.159 429.709C310.979 429.847 306.823 429.026 303.009 427.31V427.31Z" fill="#00303E"/>
<path d="M322.357 292.493L526.071 496.207" stroke="#323E42" stroke-width="2" stroke-miterlimit="10"/>
<path d="M526.071 292.493L322.357 496.207" stroke="#323E42" stroke-width="2" stroke-miterlimit="10"/>
</g>
</g>
<defs>
<filter id="filter0_d_379_229" x="0.0373535" y="0.0253906" width="848" height="480.975" filterUnits="userSpaceOnUse" color-interpolation-filters="sRGB">
<feFlood flood-opacity="0" result="BackgroundImageFix"/>
<feColorMatrix in="SourceAlpha" type="matrix" values="0 0 0 0 0 0 0 0 0 0 0 0 0 0 0 0 0 0 127 0" result="hardAlpha"/>
<feOffset dy="4"/>
<feGaussianBlur stdDeviation="12"/>
<feComposite in2="hardAlpha" operator="out"/>
<feColorMatrix type="matrix" values="0 0 0 0 0 0 0 0 0 0 0 0 0 0 0 0 0 0 0.05 0"/>
<feBlend mode="normal" in2="BackgroundImageFix" result="effect1_dropShadow_379_229"/>
<feBlend mode="normal" in="SourceGraphic" in2="effect1_dropShadow_379_229" result="shape"/>
</filter>
</defs>
</svg>
