<svg width="849" height="482" viewBox="0 0 849 482" fill="none" xmlns="http://www.w3.org/2000/svg">
<g filter="url(#filter0_d_379_230)">
<path fill-rule="evenodd" clip-rule="evenodd" d="M24.0374 451.163V20.0508C126.65 29.6006 276.78 35.6238 444.037 35.6238C590.704 35.6238 724.202 30.9923 824.037 23.4127V453.025C724.331 444.796 590.992 439.29 444.469 438.322C276.99 437.215 126.655 442.265 24.0374 451.163Z" fill="white"/>
</g>
<circle cx="114.037" cy="102.624" r="30" fill="#00303E"/>
<path d="M175.981 84.5918C175.581 83.6638 175.205 83.0318 174.853 82.6958C174.501 82.3438 173.997 82.1358 173.341 82.0718V81.5918C173.421 81.5918 173.541 81.5838 173.701 81.5678C173.845 81.5518 173.997 81.5438 174.157 81.5438C174.957 81.5438 175.725 81.7518 176.461 82.1678C177.197 82.5678 177.821 83.3758 178.333 84.5918L182.437 94.2638L183.853 90.9758C184.525 89.4238 185.813 86.3598 187.717 81.7838H188.869L181.981 97.8638H181.549L175.981 84.5918Z" fill="#0D0D0D"/>
<path d="M176.629 113.618H183.937V124.364H185.305V128.144H184.045V125.624H175.549V128.144H174.289V124.364C174.697 124.376 175.069 124.232 175.405 123.932C175.741 123.62 176.005 123.224 176.197 122.744C176.485 122.012 176.629 120.962 176.629 119.594V113.618ZM177.961 114.878V119.594C177.961 121.07 177.817 122.186 177.529 122.942C177.325 123.482 177.019 123.956 176.611 124.364H182.605V114.878H177.961ZM192.499 119.216V118.154H193.795V125.624H192.499V124.58C191.851 125.42 190.999 125.84 189.943 125.84C188.935 125.84 188.077 125.492 187.369 124.796C186.661 124.1 186.307 123.128 186.307 121.88C186.307 120.656 186.655 119.702 187.351 119.018C188.059 118.322 188.923 117.974 189.943 117.974C191.023 117.974 191.875 118.388 192.499 119.216ZM190.087 119.126C189.403 119.126 188.821 119.372 188.341 119.864C187.873 120.344 187.639 121.016 187.639 121.88C187.639 122.708 187.855 123.386 188.287 123.914C188.731 124.43 189.331 124.688 190.087 124.688C190.843 124.688 191.443 124.418 191.887 123.878C192.343 123.338 192.571 122.678 192.571 121.898C192.571 121.01 192.319 120.326 191.815 119.846C191.311 119.366 190.735 119.126 190.087 119.126ZM201.146 119.342H198.806V125.624H197.51V119.342H195.17V118.154H201.146V119.342ZM208.003 119.216V118.154H209.299V125.624H208.003V124.58C207.355 125.42 206.503 125.84 205.447 125.84C204.439 125.84 203.581 125.492 202.873 124.796C202.165 124.1 201.811 123.128 201.811 121.88C201.811 120.656 202.159 119.702 202.855 119.018C203.563 118.322 204.427 117.974 205.447 117.974C206.527 117.974 207.379 118.388 208.003 119.216ZM205.591 119.126C204.907 119.126 204.325 119.372 203.845 119.864C203.377 120.344 203.143 121.016 203.143 121.88C203.143 122.708 203.359 123.386 203.791 123.914C204.235 124.43 204.835 124.688 205.591 124.688C206.347 124.688 206.947 124.418 207.391 123.878C207.847 123.338 208.075 122.678 208.075 121.898C208.075 121.01 207.823 120.326 207.319 119.846C206.815 119.366 206.239 119.126 205.591 119.126ZM215.955 118.154H218.781C219.465 118.154 219.987 118.298 220.347 118.586C220.779 118.934 220.995 119.402 220.995 119.99C220.995 120.638 220.725 121.136 220.185 121.484C220.557 121.58 220.869 121.748 221.121 121.988C221.517 122.372 221.715 122.852 221.715 123.428C221.715 124.148 221.457 124.712 220.941 125.12C220.497 125.456 219.909 125.624 219.177 125.624H215.955V118.154ZM217.251 121.196H218.619C218.967 121.196 219.243 121.124 219.447 120.98C219.687 120.8 219.807 120.542 219.807 120.206C219.807 119.906 219.687 119.666 219.447 119.486C219.267 119.366 218.919 119.306 218.403 119.306H217.251V121.196ZM217.251 124.472H218.853C219.405 124.472 219.795 124.388 220.023 124.22C220.311 124.004 220.455 123.728 220.455 123.392C220.455 123.032 220.329 122.75 220.077 122.546C219.849 122.366 219.459 122.276 218.907 122.276H217.251V124.472ZM223.689 118.154H224.985V125.624H223.689V118.154ZM223.689 115.976C223.509 115.796 223.419 115.58 223.419 115.328C223.419 115.076 223.509 114.86 223.689 114.68C223.869 114.5 224.085 114.41 224.337 114.41C224.589 114.41 224.805 114.5 224.985 114.68C225.165 114.86 225.255 115.076 225.255 115.328C225.255 115.58 225.165 115.796 224.985 115.976C224.805 116.156 224.589 116.246 224.337 116.246C224.085 116.246 223.869 116.156 223.689 115.976ZM227.973 118.154H233.229V124.436H234.345V127.604H233.157V125.624H227.469V127.604H226.281V124.436C226.905 124.424 227.367 124.1 227.667 123.464C227.871 123.044 227.973 122.384 227.973 121.484V118.154ZM231.933 124.436V119.342H229.269V122.15C229.269 123.146 228.969 123.908 228.369 124.436H231.933ZM235.713 125.624V118.154H240.141V119.342H237.009V125.624H235.713ZM241.812 129.764L244.188 124.922L240.75 118.154H242.226L244.872 123.5L247.302 118.154H248.742L243.252 129.764H241.812ZM250.109 118.154H251.405V121.214L254.429 118.154H256.013L252.773 121.484L256.409 125.624H254.717L251.801 122.348L251.405 122.726V125.624H250.109V118.154ZM257.685 129.764L260.061 124.922L256.623 118.154H258.099L260.745 123.5L263.175 118.154H264.615L259.125 129.764H257.685ZM266.356 119.504C266.176 119.324 266.086 119.114 266.086 118.874C266.086 118.634 266.176 118.424 266.356 118.244C266.536 118.064 266.746 117.974 266.986 117.974C267.226 117.974 267.436 118.064 267.616 118.244C267.796 118.424 267.886 118.634 267.886 118.874C267.886 119.114 267.796 119.324 267.616 119.504C267.436 119.684 267.226 119.774 266.986 119.774C266.746 119.774 266.536 119.684 266.356 119.504ZM266.356 125.57C266.176 125.39 266.086 125.18 266.086 124.94C266.086 124.7 266.176 124.49 266.356 124.31C266.536 124.13 266.746 124.04 266.986 124.04C267.226 124.04 267.436 124.13 267.616 124.31C267.796 124.49 267.886 124.7 267.886 124.94C267.886 125.18 267.796 125.39 267.616 125.57C267.436 125.75 267.226 125.84 266.986 125.84C266.746 125.84 266.536 125.75 266.356 125.57ZM281.889 125.624H274.131L278.505 120.566C279.249 119.69 279.717 119.108 279.909 118.82C280.353 118.184 280.575 117.572 280.575 116.984C280.575 116.3 280.353 115.742 279.909 115.31C279.465 114.866 278.889 114.644 278.181 114.644C277.317 114.644 276.651 114.998 276.183 115.706C275.931 116.09 275.799 116.564 275.787 117.128H274.455C274.503 116.108 274.803 115.28 275.355 114.644C276.075 113.828 277.023 113.42 278.199 113.42C279.267 113.42 280.149 113.762 280.845 114.446C281.553 115.118 281.907 115.97 281.907 117.002C281.907 117.806 281.589 118.664 280.953 119.576C280.629 120.02 280.083 120.686 279.315 121.574L276.813 124.4H281.889V125.624ZM291.194 124.04C290.366 125.24 289.34 125.84 288.116 125.84C286.892 125.84 285.866 125.24 285.038 124.04C284.234 122.876 283.832 121.406 283.832 119.63C283.832 117.854 284.234 116.384 285.038 115.22C285.866 114.02 286.892 113.42 288.116 113.42C289.34 113.42 290.366 114.02 291.194 115.22C291.998 116.384 292.4 117.854 292.4 119.63C292.4 121.406 291.998 122.876 291.194 124.04ZM290.186 115.976C289.634 115.088 288.944 114.644 288.116 114.644C287.288 114.644 286.598 115.088 286.046 115.976C285.458 116.912 285.164 118.13 285.164 119.63C285.164 121.13 285.458 122.348 286.046 123.284C286.598 124.172 287.288 124.616 288.116 124.616C288.944 124.616 289.634 124.172 290.186 123.284C290.774 122.348 291.068 121.13 291.068 119.63C291.068 118.13 290.774 116.912 290.186 115.976ZM301.893 125.624H294.135L298.509 120.566C299.253 119.69 299.721 119.108 299.913 118.82C300.357 118.184 300.579 117.572 300.579 116.984C300.579 116.3 300.357 115.742 299.913 115.31C299.469 114.866 298.893 114.644 298.185 114.644C297.321 114.644 296.655 114.998 296.187 115.706C295.935 116.09 295.803 116.564 295.791 117.128H294.459C294.507 116.108 294.807 115.28 295.359 114.644C296.079 113.828 297.027 113.42 298.203 113.42C299.271 113.42 300.153 113.762 300.849 114.446C301.557 115.118 301.911 115.97 301.911 117.002C301.911 117.806 301.593 118.664 300.957 119.576C300.633 120.02 300.087 120.686 299.319 121.574L296.817 124.4H301.893V125.624ZM305.66 116.588H304.328C304.364 115.952 304.55 115.364 304.886 114.824C305.486 113.888 306.416 113.42 307.676 113.42C308.744 113.42 309.572 113.738 310.16 114.374C310.76 115.01 311.06 115.772 311.06 116.66C311.06 117.92 310.544 118.808 309.512 119.324C309.668 119.384 309.818 119.468 309.962 119.576C310.118 119.672 310.304 119.828 310.52 120.044C310.736 120.26 310.91 120.56 311.042 120.944C311.174 121.316 311.24 121.742 311.24 122.222C311.24 123.314 310.886 124.19 310.178 124.85C309.482 125.51 308.606 125.84 307.55 125.84C306.842 125.84 306.182 125.678 305.57 125.354C304.958 125.018 304.502 124.49 304.202 123.77C304.046 123.386 303.956 122.966 303.932 122.51H305.264C305.324 123.002 305.468 123.404 305.696 123.716C306.104 124.316 306.722 124.616 307.55 124.616C308.21 124.616 308.768 124.382 309.224 123.914C309.68 123.434 309.908 122.858 309.908 122.186C309.908 121.202 309.512 120.53 308.72 120.17C308.324 119.978 307.868 119.894 307.352 119.918V118.73C307.868 118.766 308.324 118.682 308.72 118.478C309.392 118.13 309.728 117.536 309.728 116.696C309.728 116.108 309.56 115.622 309.224 115.238C308.888 114.842 308.372 114.644 307.676 114.644C307.004 114.644 306.488 114.872 306.128 115.328C305.852 115.688 305.696 116.108 305.66 116.588ZM313.91 122.456V121.124H317.87V122.456H313.91ZM326.966 124.04C326.138 125.24 325.112 125.84 323.888 125.84C322.664 125.84 321.638 125.24 320.81 124.04C320.006 122.876 319.604 121.406 319.604 119.63C319.604 117.854 320.006 116.384 320.81 115.22C321.638 114.02 322.664 113.42 323.888 113.42C325.112 113.42 326.138 114.02 326.966 115.22C327.77 116.384 328.172 117.854 328.172 119.63C328.172 121.406 327.77 122.876 326.966 124.04ZM325.958 115.976C325.406 115.088 324.716 114.644 323.888 114.644C323.06 114.644 322.37 115.088 321.818 115.976C321.23 116.912 320.936 118.13 320.936 119.63C320.936 121.13 321.23 122.348 321.818 123.284C322.37 124.172 323.06 124.616 323.888 124.616C324.716 124.616 325.406 124.172 325.958 123.284C326.546 122.348 326.84 121.13 326.84 119.63C326.84 118.13 326.546 116.912 325.958 115.976ZM332.001 125.624V114.878H329.985L330.687 113.618H333.333V125.624H332.001ZM338.344 122.456V121.124H342.304V122.456H338.344ZM347.997 125.624V114.878H345.981L346.683 113.618H349.329V125.624H347.997ZM355.594 125.912L354.586 125.174L357.34 121.34C356.992 121.448 356.638 121.502 356.278 121.502C355.138 121.502 354.202 121.124 353.47 120.368C352.75 119.612 352.39 118.67 352.39 117.542C352.39 116.342 352.774 115.358 353.542 114.59C354.322 113.81 355.312 113.42 356.512 113.42C357.4 113.42 358.168 113.636 358.816 114.068C359.476 114.488 359.95 115.004 360.238 115.616C360.526 116.216 360.67 116.846 360.67 117.506C360.67 118.43 360.34 119.348 359.68 120.26L355.594 125.912ZM356.53 114.644C355.714 114.644 355.042 114.92 354.514 115.472C353.986 116.012 353.722 116.69 353.722 117.506C353.722 118.31 353.986 118.976 354.514 119.504C355.054 120.02 355.732 120.278 356.548 120.278C357.364 120.278 358.03 120.014 358.546 119.486C359.074 118.958 359.338 118.298 359.338 117.506C359.338 116.69 359.074 116.012 358.546 115.472C358.03 114.92 357.358 114.644 356.53 114.644Z" fill="#B0B0B0"/>
<path d="M85.0934 285.107V282.227H90.5334V276.787H93.5414V282.227H98.9814V285.107H93.5414V290.547H90.5334V285.107H85.0934Z" fill="#00303E"/>
<path d="M131.629 254.781H138.937V265.527H140.305V269.307H139.045V266.787H130.549V269.307H129.289V265.527C129.697 265.539 130.069 265.395 130.405 265.095C130.741 264.783 131.005 264.387 131.197 263.907C131.485 263.175 131.629 262.125 131.629 260.757V254.781ZM132.961 256.041V260.757C132.961 262.233 132.817 263.349 132.529 264.105C132.325 264.645 132.019 265.119 131.611 265.527H137.605V256.041H132.961ZM141.757 270.927L144.133 266.085L140.695 259.317H142.171L144.817 264.663L147.247 259.317H148.687L143.197 270.927H141.757ZM153.546 259.317H154.842V262.377L157.65 259.317H159.162L155.922 262.773L159.486 266.787H157.866L155.094 263.637L154.842 263.889V266.787H153.546V263.889L153.294 263.637L150.522 266.787H148.902L152.466 262.773L149.226 259.317H150.738L153.546 262.377V259.317ZM166.145 264.285L167.225 264.879C166.973 265.359 166.667 265.761 166.307 266.085C165.623 266.697 164.795 267.003 163.823 267.003C162.815 267.003 161.945 266.679 161.213 266.031C160.493 265.371 160.133 264.393 160.133 263.097C160.133 261.957 160.457 261.015 161.105 260.271C161.765 259.515 162.647 259.137 163.751 259.137C164.999 259.137 165.941 259.593 166.577 260.505C167.081 261.225 167.315 262.161 167.279 263.313H161.465C161.477 264.069 161.711 264.681 162.167 265.149C162.623 265.617 163.181 265.851 163.841 265.851C164.429 265.851 164.939 265.671 165.371 265.311C165.707 265.023 165.965 264.681 166.145 264.285ZM161.555 262.233H165.947C165.839 261.645 165.581 261.177 165.173 260.829C164.777 260.469 164.303 260.289 163.751 260.289C163.211 260.289 162.731 260.475 162.311 260.847C161.903 261.207 161.651 261.669 161.555 262.233ZM174.44 261.225L173.54 260.487C173.828 260.067 174.146 259.755 174.494 259.551C174.962 259.275 175.508 259.137 176.132 259.137C176.888 259.137 177.476 259.311 177.896 259.659C178.328 260.031 178.544 260.505 178.544 261.081C178.544 261.777 178.262 262.299 177.698 262.647C178.058 262.731 178.346 262.893 178.562 263.133C178.91 263.505 179.084 263.961 179.084 264.501C179.084 265.305 178.76 265.947 178.112 266.427C177.584 266.811 176.876 267.003 175.988 267.003C175.196 267.003 174.53 266.793 173.99 266.373C173.582 266.073 173.252 265.647 173 265.095L174.116 264.627C174.248 264.963 174.47 265.245 174.782 265.473C175.118 265.725 175.526 265.851 176.006 265.851C176.57 265.851 176.99 265.755 177.266 265.563C177.614 265.335 177.788 264.987 177.788 264.519C177.788 264.135 177.638 263.847 177.338 263.655C177.086 263.487 176.678 263.403 176.114 263.403H175.358V262.215H175.988C176.444 262.215 176.768 262.149 176.96 262.017C177.224 261.849 177.356 261.621 177.356 261.333C177.356 260.997 177.248 260.739 177.032 260.559C176.828 260.379 176.51 260.289 176.078 260.289C175.706 260.289 175.364 260.385 175.052 260.577C174.788 260.745 174.584 260.961 174.44 261.225ZM186.786 260.379V259.317H188.082V266.787H186.786V265.743C186.138 266.583 185.286 267.003 184.23 267.003C183.222 267.003 182.364 266.655 181.656 265.959C180.948 265.263 180.594 264.291 180.594 263.043C180.594 261.819 180.942 260.865 181.638 260.181C182.346 259.485 183.21 259.137 184.23 259.137C185.31 259.137 186.162 259.551 186.786 260.379ZM184.374 260.289C183.69 260.289 183.108 260.535 182.628 261.027C182.16 261.507 181.926 262.179 181.926 263.043C181.926 263.871 182.142 264.549 182.574 265.077C183.018 265.593 183.618 265.851 184.374 265.851C185.13 265.851 185.73 265.581 186.174 265.041C186.63 264.501 186.858 263.841 186.858 263.061C186.858 262.173 186.606 261.489 186.102 261.009C185.598 260.529 185.022 260.289 184.374 260.289ZM195.433 260.505H193.093V266.787H191.797V260.505H189.457V259.317H195.433V260.505ZM196.795 259.317H198.091V264.249L203.203 258.741V266.787H201.907V261.801L196.795 267.309V259.317ZM205.654 266.787V259.317H206.95V265.599H209.83V259.317H211.126V265.599H214.006V259.317H215.302V266.787H205.654ZM217.748 266.787V259.317H219.044V262.377H222.572V259.317H223.868V266.787H222.572V263.565H219.044V266.787H217.748ZM226.308 259.317H227.604V264.249L232.716 258.741V266.787H231.42V261.801L226.308 267.309V259.317ZM235.168 259.317H236.464V264.249L241.576 258.741V266.787H240.28V261.801L235.168 267.309V259.317ZM235.816 256.095L236.896 255.681C237.112 256.401 237.622 256.761 238.426 256.761C239.23 256.761 239.74 256.401 239.956 255.681L241.036 256.095C240.844 256.635 240.514 257.061 240.046 257.373C239.59 257.685 239.05 257.841 238.426 257.841C237.802 257.841 237.256 257.685 236.788 257.373C236.332 257.061 236.008 256.635 235.816 256.095ZM253.124 260.505H250.784V266.787H249.488V260.505H247.148V259.317H253.124V260.505ZM259.981 260.379V259.317H261.277V266.787H259.981V265.743C259.333 266.583 258.481 267.003 257.425 267.003C256.417 267.003 255.559 266.655 254.851 265.959C254.143 265.263 253.789 264.291 253.789 263.043C253.789 261.819 254.137 260.865 254.833 260.181C255.541 259.485 256.405 259.137 257.425 259.137C258.505 259.137 259.357 259.551 259.981 260.379ZM257.569 260.289C256.885 260.289 256.303 260.535 255.823 261.027C255.355 261.507 255.121 262.179 255.121 263.043C255.121 263.871 255.337 264.549 255.769 265.077C256.213 265.593 256.813 265.851 257.569 265.851C258.325 265.851 258.925 265.581 259.369 265.041C259.825 264.501 260.053 263.841 260.053 263.061C260.053 262.173 259.801 261.489 259.297 261.009C258.793 260.529 258.217 260.289 257.569 260.289ZM267.933 266.787V259.317H272.361V260.505H269.229V266.787H267.933ZM279.388 260.379V259.317H280.684V266.787H279.388V265.743C278.74 266.583 277.888 267.003 276.832 267.003C275.824 267.003 274.966 266.655 274.258 265.959C273.55 265.263 273.196 264.291 273.196 263.043C273.196 261.819 273.544 260.865 274.24 260.181C274.948 259.485 275.812 259.137 276.832 259.137C277.912 259.137 278.764 259.551 279.388 260.379ZM276.976 260.289C276.292 260.289 275.71 260.535 275.23 261.027C274.762 261.507 274.528 262.179 274.528 263.043C274.528 263.871 274.744 264.549 275.176 265.077C275.62 265.593 276.22 265.851 276.976 265.851C277.732 265.851 278.332 265.581 278.776 265.041C279.232 264.501 279.46 263.841 279.46 263.061C279.46 262.173 279.208 261.489 278.704 261.009C278.2 260.529 277.624 260.289 276.976 260.289ZM284.434 265.743V270.927H283.138V259.317H284.434V260.361C285.094 259.545 285.946 259.137 286.99 259.137C288.106 259.137 288.988 259.533 289.636 260.325C290.296 261.105 290.626 262.029 290.626 263.097C290.626 264.177 290.302 265.101 289.654 265.869C289.006 266.625 288.136 267.003 287.044 267.003C285.952 267.003 285.082 266.583 284.434 265.743ZM286.864 265.851C287.596 265.851 288.184 265.587 288.628 265.059C289.072 264.519 289.294 263.865 289.294 263.097C289.294 262.233 289.048 261.549 288.556 261.045C288.064 260.541 287.494 260.289 286.846 260.289C286.198 260.289 285.622 260.541 285.118 261.045C284.614 261.549 284.362 262.227 284.362 263.079C284.362 263.859 284.59 264.519 285.046 265.059C285.514 265.587 286.12 265.851 286.864 265.851ZM292.613 266.787V259.317H293.909V262.377H297.437V259.317H298.733V266.787H297.437V263.565H293.909V266.787H292.613ZM301.173 259.317H302.469V264.249L307.581 258.741V266.787H306.285V261.801L301.173 267.309V259.317ZM310.033 259.317H311.329V264.249L316.441 258.741V266.787H315.145V261.801L310.033 267.309V259.317ZM310.681 256.095L311.761 255.681C311.977 256.401 312.487 256.761 313.291 256.761C314.095 256.761 314.605 256.401 314.821 255.681L315.901 256.095C315.709 256.635 315.379 257.061 314.911 257.373C314.455 257.685 313.915 257.841 313.291 257.841C312.667 257.841 312.121 257.685 311.653 257.373C311.197 257.061 310.873 256.635 310.681 256.095ZM323.093 266.787V259.317H327.521V260.505H324.389V266.787H323.093ZM334.755 265.887C334.011 266.631 333.069 267.003 331.929 267.003C330.789 267.003 329.841 266.631 329.085 265.887C328.341 265.143 327.969 264.207 327.969 263.079C327.969 261.939 328.341 260.997 329.085 260.253C329.841 259.509 330.789 259.137 331.929 259.137C333.069 259.137 334.011 259.509 334.755 260.253C335.511 260.997 335.889 261.939 335.889 263.079C335.889 264.207 335.511 265.143 334.755 265.887ZM333.783 261.027C333.279 260.535 332.661 260.289 331.929 260.289C331.197 260.289 330.573 260.541 330.057 261.045C329.553 261.537 329.301 262.215 329.301 263.079C329.301 263.943 329.559 264.621 330.075 265.113C330.591 265.605 331.209 265.851 331.929 265.851C332.649 265.851 333.267 265.605 333.783 265.113C334.299 264.621 334.557 263.943 334.557 263.079C334.557 262.203 334.299 261.519 333.783 261.027ZM342.597 260.505H340.257V266.787H338.961V260.505H336.621V259.317H342.597V260.505ZM349.327 264.285L350.407 264.879C350.155 265.359 349.849 265.761 349.489 266.085C348.805 266.697 347.977 267.003 347.005 267.003C345.997 267.003 345.127 266.679 344.395 266.031C343.675 265.371 343.315 264.393 343.315 263.097C343.315 261.957 343.639 261.015 344.287 260.271C344.947 259.515 345.829 259.137 346.933 259.137C348.181 259.137 349.123 259.593 349.759 260.505C350.263 261.225 350.497 262.161 350.461 263.313H344.647C344.659 264.069 344.893 264.681 345.349 265.149C345.805 265.617 346.363 265.851 347.023 265.851C347.611 265.851 348.121 265.671 348.553 265.311C348.889 265.023 349.147 264.681 349.327 264.285ZM344.737 262.233H349.129C349.021 261.645 348.763 261.177 348.355 260.829C347.959 260.469 347.485 260.289 346.933 260.289C346.393 260.289 345.913 260.475 345.493 260.847C345.085 261.207 344.833 261.669 344.737 262.233ZM358.101 259.317V266.787H356.805V260.505H354.141V263.871C354.141 264.843 353.949 265.563 353.565 266.031C353.133 266.559 352.533 266.823 351.765 266.823C351.669 266.823 351.537 266.811 351.369 266.787V265.599C351.489 265.623 351.585 265.635 351.657 265.635C352.077 265.635 352.389 265.473 352.593 265.149C352.761 264.885 352.845 264.459 352.845 263.871V259.317H358.101ZM360.552 266.787V259.317H361.848V262.179H363.18C364.212 262.179 364.968 262.425 365.448 262.917C365.832 263.301 366.024 263.823 366.024 264.483C366.024 265.179 365.802 265.737 365.358 266.157C364.914 266.577 364.182 266.787 363.162 266.787H360.552ZM361.848 265.635H363.054C363.594 265.635 363.978 265.569 364.206 265.437C364.53 265.221 364.692 264.903 364.692 264.483C364.692 264.051 364.536 263.739 364.224 263.547C364.008 263.403 363.624 263.331 363.072 263.331H361.848V265.635ZM367.957 266.697C367.777 266.517 367.687 266.307 367.687 266.067C367.687 265.827 367.777 265.617 367.957 265.437C368.137 265.257 368.347 265.167 368.587 265.167C368.827 265.167 369.037 265.257 369.217 265.437C369.397 265.617 369.487 265.827 369.487 266.067C369.487 266.307 369.397 266.517 369.217 266.697C369.037 266.877 368.827 266.967 368.587 266.967C368.347 266.967 368.137 266.877 367.957 266.697ZM377.658 257.139L376.632 256.329C377.412 255.165 378.558 254.583 380.07 254.583C381.15 254.583 381.996 254.865 382.608 255.429C383.232 255.993 383.544 256.731 383.544 257.643C383.544 258.231 383.388 258.747 383.076 259.191C382.776 259.623 382.38 259.953 381.888 260.181C382.668 260.361 383.262 260.733 383.67 261.297C384.09 261.861 384.3 262.521 384.3 263.277C384.3 264.525 383.802 265.503 382.806 266.211C382.038 266.739 381.126 267.003 380.07 267.003C378.978 267.003 378.072 266.727 377.352 266.175C376.632 265.623 376.092 264.939 375.732 264.123L377.028 263.547C377.268 264.219 377.664 264.753 378.216 265.149C378.768 265.545 379.404 265.743 380.124 265.743C380.856 265.743 381.468 265.575 381.96 265.239C382.608 264.783 382.932 264.141 382.932 263.313C382.932 261.741 381.864 260.955 379.728 260.955H378.648V259.695H379.728C380.52 259.695 381.126 259.503 381.546 259.119C381.966 258.735 382.176 258.249 382.176 257.661C382.176 257.145 382.014 256.725 381.69 256.401C381.33 256.029 380.79 255.843 380.07 255.843C379.062 255.843 378.258 256.275 377.658 257.139ZM387.723 265.743V270.927H386.427V259.317H387.723V260.361C388.383 259.545 389.235 259.137 390.279 259.137C391.395 259.137 392.277 259.533 392.925 260.325C393.585 261.105 393.915 262.029 393.915 263.097C393.915 264.177 393.591 265.101 392.943 265.869C392.295 266.625 391.425 267.003 390.333 267.003C389.241 267.003 388.371 266.583 387.723 265.743ZM390.153 265.851C390.885 265.851 391.473 265.587 391.917 265.059C392.361 264.519 392.583 263.865 392.583 263.097C392.583 262.233 392.337 261.549 391.845 261.045C391.353 260.541 390.783 260.289 390.135 260.289C389.487 260.289 388.911 260.541 388.407 261.045C387.903 261.549 387.651 262.227 387.651 263.079C387.651 263.859 387.879 264.519 388.335 265.059C388.803 265.587 389.409 265.851 390.153 265.851ZM395.884 270.927L398.26 266.085L394.822 259.317H396.298L398.944 264.663L401.374 259.317H402.814L397.324 270.927H395.884ZM408.001 266.787V263.853C407.293 263.961 406.705 264.015 406.237 264.015C405.421 264.015 404.815 263.835 404.419 263.475C403.999 263.103 403.789 262.491 403.789 261.639V259.317H405.085V261.459C405.085 261.867 405.139 262.161 405.247 262.341C405.415 262.665 405.793 262.827 406.381 262.827C406.909 262.827 407.449 262.773 408.001 262.665V259.317H409.297V266.787H408.001ZM411.74 266.787V259.317H413.036V262.377H416.564V259.317H417.86V266.787H416.564V263.565H413.036V266.787H411.74ZM425.844 264.285L426.924 264.879C426.672 265.359 426.366 265.761 426.006 266.085C425.322 266.697 424.494 267.003 423.522 267.003C422.514 267.003 421.644 266.679 420.912 266.031C420.192 265.371 419.832 264.393 419.832 263.097C419.832 261.957 420.156 261.015 420.804 260.271C421.464 259.515 422.346 259.137 423.45 259.137C424.698 259.137 425.64 259.593 426.276 260.505C426.78 261.225 427.014 262.161 426.978 263.313H421.164C421.176 264.069 421.41 264.681 421.866 265.149C422.322 265.617 422.88 265.851 423.54 265.851C424.128 265.851 424.638 265.671 425.07 265.311C425.406 265.023 425.664 264.681 425.844 264.285ZM421.254 262.233H425.646C425.538 261.645 425.28 261.177 424.872 260.829C424.476 260.469 424.002 260.289 423.45 260.289C422.91 260.289 422.43 260.475 422.01 260.847C421.602 261.207 421.35 261.669 421.254 262.233ZM434.464 265.743V270.927H433.168V259.317H434.464V260.361C435.124 259.545 435.976 259.137 437.02 259.137C438.136 259.137 439.018 259.533 439.666 260.325C440.326 261.105 440.656 262.029 440.656 263.097C440.656 264.177 440.332 265.101 439.684 265.869C439.036 266.625 438.166 267.003 437.074 267.003C435.982 267.003 435.112 266.583 434.464 265.743ZM436.894 265.851C437.626 265.851 438.214 265.587 438.658 265.059C439.102 264.519 439.324 263.865 439.324 263.097C439.324 262.233 439.078 261.549 438.586 261.045C438.094 260.541 437.524 260.289 436.876 260.289C436.228 260.289 435.652 260.541 435.148 261.045C434.644 261.549 434.392 262.227 434.392 263.079C434.392 263.859 434.62 264.519 435.076 265.059C435.544 265.587 436.15 265.851 436.894 265.851ZM448.96 265.887C448.216 266.631 447.274 267.003 446.134 267.003C444.994 267.003 444.046 266.631 443.29 265.887C442.546 265.143 442.174 264.207 442.174 263.079C442.174 261.939 442.546 260.997 443.29 260.253C444.046 259.509 444.994 259.137 446.134 259.137C447.274 259.137 448.216 259.509 448.96 260.253C449.716 260.997 450.094 261.939 450.094 263.079C450.094 264.207 449.716 265.143 448.96 265.887ZM447.988 261.027C447.484 260.535 446.866 260.289 446.134 260.289C445.402 260.289 444.778 260.541 444.262 261.045C443.758 261.537 443.506 262.215 443.506 263.079C443.506 263.943 443.764 264.621 444.28 265.113C444.796 265.605 445.414 265.851 446.134 265.851C446.854 265.851 447.472 265.605 447.988 265.113C448.504 264.621 448.762 263.943 448.762 263.079C448.762 262.203 448.504 261.519 447.988 261.027ZM453.054 261.225L452.154 260.487C452.442 260.067 452.76 259.755 453.108 259.551C453.576 259.275 454.122 259.137 454.746 259.137C455.502 259.137 456.09 259.311 456.51 259.659C456.942 260.031 457.158 260.505 457.158 261.081C457.158 261.777 456.876 262.299 456.312 262.647C456.672 262.731 456.96 262.893 457.176 263.133C457.524 263.505 457.698 263.961 457.698 264.501C457.698 265.305 457.374 265.947 456.726 266.427C456.198 266.811 455.49 267.003 454.602 267.003C453.81 267.003 453.144 266.793 452.604 266.373C452.196 266.073 451.866 265.647 451.614 265.095L452.73 264.627C452.862 264.963 453.084 265.245 453.396 265.473C453.732 265.725 454.14 265.851 454.62 265.851C455.184 265.851 455.604 265.755 455.88 265.563C456.228 265.335 456.402 264.987 456.402 264.519C456.402 264.135 456.252 263.847 455.952 263.655C455.7 263.487 455.292 263.403 454.728 263.403H453.972V262.215H454.602C455.058 262.215 455.382 262.149 455.574 262.017C455.838 261.849 455.97 261.621 455.97 261.333C455.97 260.997 455.862 260.739 455.646 260.559C455.442 260.379 455.124 260.289 454.692 260.289C454.32 260.289 453.978 260.385 453.666 260.577C453.402 260.745 453.198 260.961 453.054 261.225ZM464.571 260.505H462.231V266.787H460.935V260.505H458.595V259.317H464.571V260.505ZM471.429 260.379V259.317H472.725V266.787H471.429V265.743C470.781 266.583 469.929 267.003 468.873 267.003C467.865 267.003 467.007 266.655 466.299 265.959C465.591 265.263 465.237 264.291 465.237 263.043C465.237 261.819 465.585 260.865 466.281 260.181C466.989 259.485 467.853 259.137 468.873 259.137C469.953 259.137 470.805 259.551 471.429 260.379ZM469.017 260.289C468.333 260.289 467.751 260.535 467.271 261.027C466.803 261.507 466.569 262.179 466.569 263.043C466.569 263.871 466.785 264.549 467.217 265.077C467.661 265.593 468.261 265.851 469.017 265.851C469.773 265.851 470.373 265.581 470.817 265.041C471.273 264.501 471.501 263.841 471.501 263.061C471.501 262.173 471.249 261.489 470.745 261.009C470.241 260.529 469.665 260.289 469.017 260.289ZM475.179 266.787V259.317H476.475V265.599H479.355V259.317H480.651V265.599H483.531V259.317H484.827V266.787H475.179ZM487.255 270.927L489.631 266.085L486.193 259.317H487.669L490.315 264.663L492.745 259.317H494.185L488.695 270.927H487.255ZM495.552 259.317H498.378C499.062 259.317 499.584 259.461 499.944 259.749C500.376 260.097 500.592 260.565 500.592 261.153C500.592 261.801 500.322 262.299 499.782 262.647C500.154 262.743 500.466 262.911 500.718 263.151C501.114 263.535 501.312 264.015 501.312 264.591C501.312 265.311 501.054 265.875 500.538 266.283C500.094 266.619 499.506 266.787 498.774 266.787H495.552V259.317ZM496.848 262.359H498.216C498.564 262.359 498.84 262.287 499.044 262.143C499.284 261.963 499.404 261.705 499.404 261.369C499.404 261.069 499.284 260.829 499.044 260.649C498.864 260.529 498.516 260.469 498 260.469H496.848V262.359ZM496.848 265.635H498.45C499.002 265.635 499.392 265.551 499.62 265.383C499.908 265.167 500.052 264.891 500.052 264.555C500.052 264.195 499.926 263.913 499.674 263.709C499.446 263.529 499.056 263.439 498.504 263.439H496.848V265.635ZM509.011 260.379V259.317H510.307V266.787H509.011V265.743C508.363 266.583 507.511 267.003 506.455 267.003C505.447 267.003 504.589 266.655 503.881 265.959C503.173 265.263 502.819 264.291 502.819 263.043C502.819 261.819 503.167 260.865 503.863 260.181C504.571 259.485 505.435 259.137 506.455 259.137C507.535 259.137 508.387 259.551 509.011 260.379ZM506.599 260.289C505.915 260.289 505.333 260.535 504.853 261.027C504.385 261.507 504.151 262.179 504.151 263.043C504.151 263.871 504.367 264.549 504.799 265.077C505.243 265.593 505.843 265.851 506.599 265.851C507.355 265.851 507.955 265.581 508.399 265.041C508.855 264.501 509.083 263.841 509.083 263.061C509.083 262.173 508.831 261.489 508.327 261.009C507.823 260.529 507.247 260.289 506.599 260.289ZM512.761 266.787V259.317H514.057V262.377H517.585V259.317H518.881V266.787H517.585V263.565H514.057V266.787H512.761ZM521.322 266.787V259.317H522.618V262.377H526.146V259.317H527.442V266.787H526.146V263.565H522.618V266.787H521.322ZM529.018 266.787L531.34 263.709C531.268 263.709 531.166 263.697 531.034 263.673C530.914 263.649 530.734 263.589 530.494 263.493C530.254 263.397 530.056 263.271 529.9 263.115C529.504 262.743 529.306 262.245 529.306 261.621C529.306 260.913 529.528 260.355 529.972 259.947C530.416 259.527 531.148 259.317 532.168 259.317H534.778V266.787H533.482V263.781H532.69L530.566 266.787H529.018ZM533.482 262.701V260.469H532.276C531.712 260.469 531.322 260.535 531.106 260.667C530.794 260.871 530.638 261.177 530.638 261.585C530.638 261.993 530.794 262.293 531.106 262.485C531.334 262.629 531.718 262.701 532.258 262.701H533.482ZM537.428 266.697C537.248 266.517 537.158 266.307 537.158 266.067C537.158 265.827 537.248 265.617 537.428 265.437C537.608 265.257 537.818 265.167 538.058 265.167C538.298 265.167 538.508 265.257 538.688 265.437C538.868 265.617 538.958 265.827 538.958 266.067C538.958 266.307 538.868 266.517 538.688 266.697C538.508 266.877 538.298 266.967 538.058 266.967C537.818 266.967 537.608 266.877 537.428 266.697ZM545.851 254.781H554.671V266.787H553.339V256.041H547.183V266.787H545.851V254.781ZM563.763 265.887C563.019 266.631 562.077 267.003 560.937 267.003C559.797 267.003 558.849 266.631 558.093 265.887C557.349 265.143 556.977 264.207 556.977 263.079C556.977 261.939 557.349 260.997 558.093 260.253C558.849 259.509 559.797 259.137 560.937 259.137C562.077 259.137 563.019 259.509 563.763 260.253C564.519 260.997 564.897 261.939 564.897 263.079C564.897 264.207 564.519 265.143 563.763 265.887ZM562.791 261.027C562.287 260.535 561.669 260.289 560.937 260.289C560.205 260.289 559.581 260.541 559.065 261.045C558.561 261.537 558.309 262.215 558.309 263.079C558.309 263.943 558.567 264.621 559.083 265.113C559.599 265.605 560.217 265.851 560.937 265.851C561.657 265.851 562.275 265.605 562.791 265.113C563.307 264.621 563.565 263.943 563.565 263.079C563.565 262.203 563.307 261.519 562.791 261.027ZM568.18 265.743V270.927H566.884V259.317H568.18V260.361C568.84 259.545 569.692 259.137 570.736 259.137C571.852 259.137 572.734 259.533 573.382 260.325C574.042 261.105 574.372 262.029 574.372 263.097C574.372 264.177 574.048 265.101 573.4 265.869C572.752 266.625 571.882 267.003 570.79 267.003C569.698 267.003 568.828 266.583 568.18 265.743ZM570.61 265.851C571.342 265.851 571.93 265.587 572.374 265.059C572.818 264.519 573.04 263.865 573.04 263.097C573.04 262.233 572.794 261.549 572.302 261.045C571.81 260.541 571.24 260.289 570.592 260.289C569.944 260.289 569.368 260.541 568.864 261.045C568.36 261.549 568.108 262.227 568.108 263.079C568.108 263.859 568.336 264.519 568.792 265.059C569.26 265.587 569.866 265.851 570.61 265.851ZM575.495 266.787L577.817 263.709C577.745 263.709 577.643 263.697 577.511 263.673C577.391 263.649 577.211 263.589 576.971 263.493C576.731 263.397 576.533 263.271 576.377 263.115C575.981 262.743 575.783 262.245 575.783 261.621C575.783 260.913 576.005 260.355 576.449 259.947C576.893 259.527 577.625 259.317 578.645 259.317H581.255V266.787H579.959V263.781H579.167L577.043 266.787H575.495ZM579.959 262.701V260.469H578.753C578.189 260.469 577.799 260.535 577.583 260.667C577.271 260.871 577.115 261.177 577.115 261.585C577.115 261.993 577.271 262.293 577.583 262.485C577.811 262.629 578.195 262.701 578.735 262.701H579.959ZM584.247 259.317H589.503V265.599H590.619V268.767H589.431V266.787H583.743V268.767H582.555V265.599C583.179 265.587 583.641 265.263 583.941 264.627C584.145 264.207 584.247 263.547 584.247 262.647V259.317ZM588.207 265.599V260.505H585.543V263.313C585.543 264.309 585.243 265.071 584.643 265.599H588.207ZM596.187 259.317H599.013C599.697 259.317 600.219 259.461 600.579 259.749C601.011 260.097 601.227 260.565 601.227 261.153C601.227 261.801 600.957 262.299 600.417 262.647C600.789 262.743 601.101 262.911 601.353 263.151C601.749 263.535 601.947 264.015 601.947 264.591C601.947 265.311 601.689 265.875 601.173 266.283C600.729 266.619 600.141 266.787 599.409 266.787H596.187V259.317ZM597.483 262.359H598.851C599.199 262.359 599.475 262.287 599.679 262.143C599.919 261.963 600.039 261.705 600.039 261.369C600.039 261.069 599.919 260.829 599.679 260.649C599.499 260.529 599.151 260.469 598.635 260.469H597.483V262.359ZM597.483 265.635H599.085C599.637 265.635 600.027 265.551 600.255 265.383C600.543 265.167 600.687 264.891 600.687 264.555C600.687 264.195 600.561 263.913 600.309 263.709C600.081 263.529 599.691 263.439 599.139 263.439H597.483V265.635ZM610.24 265.887C609.496 266.631 608.554 267.003 607.414 267.003C606.274 267.003 605.326 266.631 604.57 265.887C603.826 265.143 603.454 264.207 603.454 263.079C603.454 261.939 603.826 260.997 604.57 260.253C605.326 259.509 606.274 259.137 607.414 259.137C608.554 259.137 609.496 259.509 610.24 260.253C610.996 260.997 611.374 261.939 611.374 263.079C611.374 264.207 610.996 265.143 610.24 265.887ZM609.268 261.027C608.764 260.535 608.146 260.289 607.414 260.289C606.682 260.289 606.058 260.541 605.542 261.045C605.038 261.537 604.786 262.215 604.786 263.079C604.786 263.943 605.044 264.621 605.56 265.113C606.076 265.605 606.694 265.851 607.414 265.851C608.134 265.851 608.752 265.605 609.268 265.113C609.784 264.621 610.042 263.943 610.042 263.079C610.042 262.203 609.784 261.519 609.268 261.027ZM613.361 259.317H614.657V262.377L617.681 259.317H619.265L616.025 262.647L619.661 266.787H617.969L615.053 263.511L614.657 263.889V266.787H613.361V259.317ZM621.54 261.225L620.64 260.487C620.928 260.067 621.246 259.755 621.594 259.551C622.062 259.275 622.608 259.137 623.232 259.137C623.988 259.137 624.576 259.311 624.996 259.659C625.428 260.031 625.644 260.505 625.644 261.081C625.644 261.777 625.362 262.299 624.798 262.647C625.158 262.731 625.446 262.893 625.662 263.133C626.01 263.505 626.184 263.961 626.184 264.501C626.184 265.305 625.86 265.947 625.212 266.427C624.684 266.811 623.976 267.003 623.088 267.003C622.296 267.003 621.63 266.793 621.09 266.373C620.682 266.073 620.352 265.647 620.1 265.095L621.216 264.627C621.348 264.963 621.57 265.245 621.882 265.473C622.218 265.725 622.626 265.851 623.106 265.851C623.67 265.851 624.09 265.755 624.366 265.563C624.714 265.335 624.888 264.987 624.888 264.519C624.888 264.135 624.738 263.847 624.438 263.655C624.186 263.487 623.778 263.403 623.214 263.403H622.458V262.215H623.088C623.544 262.215 623.868 262.149 624.06 262.017C624.324 261.849 624.456 261.621 624.456 261.333C624.456 260.997 624.348 260.739 624.132 260.559C623.928 260.379 623.61 260.289 623.178 260.289C622.806 260.289 622.464 260.385 622.152 260.577C621.888 260.745 621.684 260.961 621.54 261.225ZM633.886 260.379V259.317H635.182V266.787H633.886V265.743C633.238 266.583 632.386 267.003 631.33 267.003C630.322 267.003 629.464 266.655 628.756 265.959C628.048 265.263 627.694 264.291 627.694 263.043C627.694 261.819 628.042 260.865 628.738 260.181C629.446 259.485 630.31 259.137 631.33 259.137C632.41 259.137 633.262 259.551 633.886 260.379ZM631.474 260.289C630.79 260.289 630.208 260.535 629.728 261.027C629.26 261.507 629.026 262.179 629.026 263.043C629.026 263.871 629.242 264.549 629.674 265.077C630.118 265.593 630.718 265.851 631.474 265.851C632.23 265.851 632.83 265.581 633.274 265.041C633.73 264.501 633.958 263.841 633.958 263.061C633.958 262.173 633.706 261.489 633.202 261.009C632.698 260.529 632.122 260.289 631.474 260.289ZM643.288 259.317V266.787H641.992V260.505H639.328V263.871C639.328 264.843 639.136 265.563 638.752 266.031C638.32 266.559 637.72 266.823 636.952 266.823C636.856 266.823 636.724 266.811 636.556 266.787V265.599C636.676 265.623 636.772 265.635 636.844 265.635C637.264 265.635 637.576 265.473 637.78 265.149C637.948 264.885 638.032 264.459 638.032 263.871V259.317H643.288ZM644.948 269.181L646.424 265.023L647.612 265.455L645.794 269.523L644.948 269.181ZM129.397 289.787L131.197 281.741L134.293 287.825L137.317 281.741L139.117 289.787H137.785L136.795 285.161L134.257 290.309L131.683 285.161L130.729 289.787H129.397ZM146.427 283.379V282.317H147.723V289.787H146.427V288.743C145.779 289.583 144.927 290.003 143.871 290.003C142.863 290.003 142.005 289.655 141.297 288.959C140.589 288.263 140.235 287.291 140.235 286.043C140.235 284.819 140.583 283.865 141.279 283.181C141.987 282.485 142.851 282.137 143.871 282.137C144.951 282.137 145.803 282.551 146.427 283.379ZM144.015 283.289C143.331 283.289 142.749 283.535 142.269 284.027C141.801 284.507 141.567 285.179 141.567 286.043C141.567 286.871 141.783 287.549 142.215 288.077C142.659 288.593 143.259 288.851 144.015 288.851C144.771 288.851 145.371 288.581 145.815 288.041C146.271 287.501 146.499 286.841 146.499 286.061C146.499 285.173 146.247 284.489 145.743 284.009C145.239 283.529 144.663 283.289 144.015 283.289ZM150.177 289.787V282.317H154.605V283.505H151.473V289.787H150.177ZM161.632 283.379V282.317H162.928V289.787H161.632V288.743C160.984 289.583 160.132 290.003 159.076 290.003C158.068 290.003 157.21 289.655 156.502 288.959C155.794 288.263 155.44 287.291 155.44 286.043C155.44 284.819 155.788 283.865 156.484 283.181C157.192 282.485 158.056 282.137 159.076 282.137C160.156 282.137 161.008 282.551 161.632 283.379ZM159.22 283.289C158.536 283.289 157.954 283.535 157.474 284.027C157.006 284.507 156.772 285.179 156.772 286.043C156.772 286.871 156.988 287.549 157.42 288.077C157.864 288.593 158.464 288.851 159.22 288.851C159.976 288.851 160.576 288.581 161.02 288.041C161.476 287.501 161.704 286.841 161.704 286.061C161.704 285.173 161.452 284.489 160.948 284.009C160.444 283.529 159.868 283.289 159.22 283.289ZM166.354 284.225L165.454 283.487C165.742 283.067 166.06 282.755 166.408 282.551C166.876 282.275 167.422 282.137 168.046 282.137C168.802 282.137 169.39 282.311 169.81 282.659C170.242 283.031 170.458 283.505 170.458 284.081C170.458 284.777 170.176 285.299 169.612 285.647C169.972 285.731 170.26 285.893 170.476 286.133C170.824 286.505 170.998 286.961 170.998 287.501C170.998 288.305 170.674 288.947 170.026 289.427C169.498 289.811 168.79 290.003 167.902 290.003C167.11 290.003 166.444 289.793 165.904 289.373C165.496 289.073 165.166 288.647 164.914 288.095L166.03 287.627C166.162 287.963 166.384 288.245 166.696 288.473C167.032 288.725 167.44 288.851 167.92 288.851C168.484 288.851 168.904 288.755 169.18 288.563C169.528 288.335 169.702 287.987 169.702 287.519C169.702 287.135 169.552 286.847 169.252 286.655C169 286.487 168.592 286.403 168.028 286.403H167.272V285.215H167.902C168.358 285.215 168.682 285.149 168.874 285.017C169.138 284.849 169.27 284.621 169.27 284.333C169.27 283.997 169.162 283.739 168.946 283.559C168.742 283.379 168.424 283.289 167.992 283.289C167.62 283.289 167.278 283.385 166.966 283.577C166.702 283.745 166.498 283.961 166.354 284.225ZM172.976 282.317H174.272V287.249L179.384 281.741V289.787H178.088V284.801L172.976 290.309V282.317ZM181.836 289.787V282.317H183.132V285.377H186.66V282.317H187.956V289.787H186.66V286.565H183.132V289.787H181.836ZM190.396 282.317H191.692V287.249L196.804 281.741V289.787H195.508V284.801L190.396 290.309V282.317ZM198.463 292.181L199.939 288.023L201.127 288.455L199.309 292.523L198.463 292.181ZM208.396 282.317H209.692V285.377L212.716 282.317H214.3L211.06 285.647L214.696 289.787H213.004L210.088 286.511L209.692 286.889V289.787H208.396V282.317ZM221.714 283.379V282.317H223.01V289.787H221.714V288.743C221.066 289.583 220.214 290.003 219.158 290.003C218.15 290.003 217.292 289.655 216.584 288.959C215.876 288.263 215.522 287.291 215.522 286.043C215.522 284.819 215.87 283.865 216.566 283.181C217.274 282.485 218.138 282.137 219.158 282.137C220.238 282.137 221.09 282.551 221.714 283.379ZM219.302 283.289C218.618 283.289 218.036 283.535 217.556 284.027C217.088 284.507 216.854 285.179 216.854 286.043C216.854 286.871 217.07 287.549 217.502 288.077C217.946 288.593 218.546 288.851 219.302 288.851C220.058 288.851 220.658 288.581 221.102 288.041C221.558 287.501 221.786 286.841 221.786 286.061C221.786 285.173 221.534 284.489 221.03 284.009C220.526 283.529 219.95 283.289 219.302 283.289ZM229.442 293.927V289.913C228.134 289.913 227.084 289.589 226.292 288.941C225.428 288.245 224.996 287.279 224.996 286.043C224.996 284.819 225.422 283.859 226.274 283.163C227.042 282.515 228.098 282.191 229.442 282.191V277.781H230.738V282.191C232.082 282.191 233.138 282.515 233.906 283.163C234.758 283.859 235.184 284.819 235.184 286.043C235.184 287.279 234.752 288.245 233.888 288.941C233.096 289.589 232.046 289.913 230.738 289.913V293.927H229.442ZM229.442 288.761V283.343C228.59 283.343 227.924 283.499 227.444 283.811C226.7 284.279 226.328 285.023 226.328 286.043C226.328 287.003 226.676 287.729 227.372 288.221C227.876 288.581 228.566 288.761 229.442 288.761ZM230.738 283.343V288.761C231.614 288.761 232.304 288.581 232.808 288.221C233.504 287.729 233.852 287.003 233.852 286.043C233.852 285.023 233.48 284.279 232.736 283.811C232.256 283.499 231.59 283.343 230.738 283.343ZM242.716 287.285L243.796 287.879C243.544 288.359 243.238 288.761 242.878 289.085C242.194 289.697 241.366 290.003 240.394 290.003C239.386 290.003 238.516 289.679 237.784 289.031C237.064 288.371 236.704 287.393 236.704 286.097C236.704 284.957 237.028 284.015 237.676 283.271C238.336 282.515 239.218 282.137 240.322 282.137C241.57 282.137 242.512 282.593 243.148 283.505C243.652 284.225 243.886 285.161 243.85 286.313H238.036C238.048 287.069 238.282 287.681 238.738 288.149C239.194 288.617 239.752 288.851 240.412 288.851C241 288.851 241.51 288.671 241.942 288.311C242.278 288.023 242.536 287.681 242.716 287.285ZM238.126 285.233H242.518C242.41 284.645 242.152 284.177 241.744 283.829C241.348 283.469 240.874 283.289 240.322 283.289C239.782 283.289 239.302 283.475 238.882 283.847C238.474 284.207 238.222 284.669 238.126 285.233ZM246.036 289.697C245.856 289.517 245.766 289.307 245.766 289.067C245.766 288.827 245.856 288.617 246.036 288.437C246.216 288.257 246.426 288.167 246.666 288.167C246.906 288.167 247.116 288.257 247.296 288.437C247.476 288.617 247.566 288.827 247.566 289.067C247.566 289.307 247.476 289.517 247.296 289.697C247.116 289.877 246.906 289.967 246.666 289.967C246.426 289.967 246.216 289.877 246.036 289.697ZM262.486 289.787L261.082 286.403H255.97L254.53 289.787H253.054L258.58 277.205L263.962 289.787H262.486ZM256.492 285.143H260.56L258.544 280.337L256.492 285.143ZM269.533 289.787V282.317H270.829V285.377H274.357V282.317H275.653V289.787H274.357V286.565H270.829V289.787H269.533ZM284.411 288.887C283.667 289.631 282.725 290.003 281.585 290.003C280.445 290.003 279.497 289.631 278.741 288.887C277.997 288.143 277.625 287.207 277.625 286.079C277.625 284.939 277.997 283.997 278.741 283.253C279.497 282.509 280.445 282.137 281.585 282.137C282.725 282.137 283.667 282.509 284.411 283.253C285.167 283.997 285.545 284.939 285.545 286.079C285.545 287.207 285.167 288.143 284.411 288.887ZM283.439 284.027C282.935 283.535 282.317 283.289 281.585 283.289C280.853 283.289 280.229 283.541 279.713 284.045C279.209 284.537 278.957 285.215 278.957 286.079C278.957 286.943 279.215 287.621 279.731 288.113C280.247 288.605 280.865 288.851 281.585 288.851C282.305 288.851 282.923 288.605 283.439 288.113C283.955 287.621 284.213 286.943 284.213 286.079C284.213 285.203 283.955 284.519 283.439 284.027ZM286.669 289.787L288.469 281.741L291.565 287.825L294.589 281.741L296.389 289.787H295.057L294.067 285.161L291.529 290.309L288.955 285.161L288.001 289.787H286.669ZM303.518 287.285L304.598 287.879C304.346 288.359 304.04 288.761 303.68 289.085C302.996 289.697 302.168 290.003 301.196 290.003C300.188 290.003 299.318 289.679 298.586 289.031C297.866 288.371 297.506 287.393 297.506 286.097C297.506 284.957 297.83 284.015 298.478 283.271C299.138 282.515 300.02 282.137 301.124 282.137C302.372 282.137 303.314 282.593 303.95 283.505C304.454 284.225 304.688 285.161 304.652 286.313H298.838C298.85 287.069 299.084 287.681 299.54 288.149C299.996 288.617 300.554 288.851 301.214 288.851C301.802 288.851 302.312 288.671 302.744 288.311C303.08 288.023 303.338 287.681 303.518 287.285ZM298.928 285.233H303.32C303.212 284.645 302.954 284.177 302.546 283.829C302.15 283.469 301.676 283.289 301.124 283.289C300.584 283.289 300.104 283.475 299.684 283.847C299.276 284.207 299.024 284.669 298.928 285.233ZM307.936 288.743V293.927H306.64V282.317H307.936V283.361C308.596 282.545 309.448 282.137 310.492 282.137C311.608 282.137 312.49 282.533 313.138 283.325C313.798 284.105 314.128 285.029 314.128 286.097C314.128 287.177 313.804 288.101 313.156 288.869C312.508 289.625 311.638 290.003 310.546 290.003C309.454 290.003 308.584 289.583 307.936 288.743ZM310.366 288.851C311.098 288.851 311.686 288.587 312.13 288.059C312.574 287.519 312.796 286.865 312.796 286.097C312.796 285.233 312.55 284.549 312.058 284.045C311.566 283.541 310.996 283.289 310.348 283.289C309.7 283.289 309.124 283.541 308.62 284.045C308.116 284.549 307.864 285.227 307.864 286.079C307.864 286.859 308.092 287.519 308.548 288.059C309.016 288.587 309.622 288.851 310.366 288.851ZM316.115 282.317H317.411V289.787H316.115V282.317ZM316.115 280.139C315.935 279.959 315.845 279.743 315.845 279.491C315.845 279.239 315.935 279.023 316.115 278.843C316.295 278.663 316.511 278.573 316.763 278.573C317.015 278.573 317.231 278.663 317.411 278.843C317.591 279.023 317.681 279.239 317.681 279.491C317.681 279.743 317.591 279.959 317.411 280.139C317.231 280.319 317.015 280.409 316.763 280.409C316.511 280.409 316.295 280.319 316.115 280.139ZM329.91 282.857V284.405C329.286 283.661 328.506 283.289 327.57 283.289C326.958 283.289 326.4 283.481 325.896 283.865C325.404 284.237 325.098 284.747 324.978 285.395H328.884V286.547H324.96C325.044 287.231 325.332 287.789 325.824 288.221C326.316 288.641 326.892 288.851 327.552 288.851C328.512 288.851 329.316 288.461 329.964 287.681V289.229C329.256 289.745 328.464 290.003 327.588 290.003C326.424 290.003 325.464 289.637 324.708 288.905C323.964 288.161 323.592 287.225 323.592 286.097C323.592 284.957 323.97 284.015 324.726 283.271C325.482 282.515 326.436 282.137 327.588 282.137C328.452 282.137 329.226 282.377 329.91 282.857ZM336.154 282.317H338.98C339.664 282.317 340.186 282.461 340.546 282.749C340.978 283.097 341.194 283.565 341.194 284.153C341.194 284.801 340.924 285.299 340.384 285.647C340.756 285.743 341.068 285.911 341.32 286.151C341.716 286.535 341.914 287.015 341.914 287.591C341.914 288.311 341.656 288.875 341.14 289.283C340.696 289.619 340.108 289.787 339.376 289.787H336.154V282.317ZM337.45 285.359H338.818C339.166 285.359 339.442 285.287 339.646 285.143C339.886 284.963 340.006 284.705 340.006 284.369C340.006 284.069 339.886 283.829 339.646 283.649C339.466 283.529 339.118 283.469 338.602 283.469H337.45V285.359ZM337.45 288.635H339.052C339.604 288.635 339.994 288.551 340.222 288.383C340.51 288.167 340.654 287.891 340.654 287.555C340.654 287.195 340.528 286.913 340.276 286.709C340.048 286.529 339.658 286.439 339.106 286.439H337.45V288.635ZM349.738 282.857V284.405C349.15 283.661 348.37 283.289 347.398 283.289C346.666 283.289 346.042 283.541 345.526 284.045C345.01 284.537 344.752 285.215 344.752 286.079C344.752 286.943 345.01 287.621 345.526 288.113C346.042 288.605 346.66 288.851 347.38 288.851C348.34 288.851 349.144 288.461 349.792 287.681V289.229C349.084 289.745 348.292 290.003 347.416 290.003C346.252 290.003 345.292 289.637 344.536 288.905C343.792 288.161 343.42 287.225 343.42 286.097C343.42 284.957 343.798 284.015 344.554 283.271C345.31 282.515 346.264 282.137 347.416 282.137C348.28 282.137 349.054 282.377 349.738 282.857ZM357.325 287.285L358.405 287.879C358.153 288.359 357.847 288.761 357.487 289.085C356.803 289.697 355.975 290.003 355.003 290.003C353.995 290.003 353.125 289.679 352.393 289.031C351.673 288.371 351.313 287.393 351.313 286.097C351.313 284.957 351.637 284.015 352.285 283.271C352.945 282.515 353.827 282.137 354.931 282.137C356.179 282.137 357.121 282.593 357.757 283.505C358.261 284.225 358.495 285.161 358.459 286.313H352.645C352.657 287.069 352.891 287.681 353.347 288.149C353.803 288.617 354.361 288.851 355.021 288.851C355.609 288.851 356.119 288.671 356.551 288.311C356.887 288.023 357.145 287.681 357.325 287.285ZM352.735 285.233H357.127C357.019 284.645 356.761 284.177 356.353 283.829C355.957 283.469 355.483 283.289 354.931 283.289C354.391 283.289 353.911 283.475 353.491 283.847C353.083 284.207 352.831 284.669 352.735 285.233ZM364.648 289.787V282.317H365.944V285.377H369.472V282.317H370.768V289.787H369.472V286.565H365.944V289.787H364.648ZM378.753 287.285L379.833 287.879C379.581 288.359 379.275 288.761 378.915 289.085C378.231 289.697 377.403 290.003 376.431 290.003C375.423 290.003 374.553 289.679 373.821 289.031C373.101 288.371 372.741 287.393 372.741 286.097C372.741 284.957 373.065 284.015 373.713 283.271C374.373 282.515 375.255 282.137 376.359 282.137C377.607 282.137 378.549 282.593 379.185 283.505C379.689 284.225 379.923 285.161 379.887 286.313H374.073C374.085 287.069 374.319 287.681 374.775 288.149C375.231 288.617 375.789 288.851 376.449 288.851C377.037 288.851 377.547 288.671 377.979 288.311C378.315 288.023 378.573 287.681 378.753 287.285ZM374.163 285.233H378.555C378.447 284.645 378.189 284.177 377.781 283.829C377.385 283.469 376.911 283.289 376.359 283.289C375.819 283.289 375.339 283.475 374.919 283.847C374.511 284.207 374.259 284.669 374.163 285.233ZM388.193 288.887C387.449 289.631 386.507 290.003 385.367 290.003C384.227 290.003 383.279 289.631 382.523 288.887C381.779 288.143 381.407 287.207 381.407 286.079C381.407 284.939 381.779 283.997 382.523 283.253C383.279 282.509 384.227 282.137 385.367 282.137C386.507 282.137 387.449 282.509 388.193 283.253C388.949 283.997 389.327 284.939 389.327 286.079C389.327 287.207 388.949 288.143 388.193 288.887ZM387.221 284.027C386.717 283.535 386.099 283.289 385.367 283.289C384.635 283.289 384.011 283.541 383.495 284.045C382.991 284.537 382.739 285.215 382.739 286.079C382.739 286.943 382.997 287.621 383.513 288.113C384.029 288.605 384.647 288.851 385.367 288.851C386.087 288.851 386.705 288.605 387.221 288.113C387.737 287.621 387.995 286.943 387.995 286.079C387.995 285.203 387.737 284.519 387.221 284.027ZM397.074 277.187H398.514C398.382 277.631 398.154 278.009 397.83 278.321C397.518 278.621 397.23 278.825 396.966 278.933C396.714 279.041 396.414 279.137 396.066 279.221C396.006 279.233 395.862 279.269 395.634 279.329C395.406 279.377 395.232 279.419 395.112 279.455C394.992 279.491 394.836 279.539 394.644 279.599C394.452 279.659 394.278 279.731 394.122 279.815C393.966 279.899 393.822 279.989 393.69 280.085C393.234 280.433 392.862 280.919 392.574 281.543C392.298 282.155 392.148 282.809 392.124 283.505H392.16C392.7 282.593 393.606 282.137 394.878 282.137C395.994 282.137 396.918 282.515 397.65 283.271C398.394 284.027 398.766 284.963 398.766 286.079C398.766 287.207 398.388 288.143 397.632 288.887C396.876 289.631 395.892 290.003 394.68 290.003C393.636 290.003 392.778 289.691 392.106 289.067C391.266 288.299 390.846 287.015 390.846 285.215C390.846 282.083 391.554 280.031 392.97 279.059C393.078 278.987 393.192 278.921 393.312 278.861C393.432 278.789 393.558 278.729 393.69 278.681C393.834 278.621 393.954 278.573 394.05 278.537C394.146 278.489 394.278 278.447 394.446 278.411C394.626 278.363 394.746 278.333 394.806 278.321C394.878 278.297 395.01 278.267 395.202 278.231C395.406 278.183 395.532 278.153 395.58 278.141C396.06 278.033 396.408 277.907 396.624 277.763C396.84 277.607 396.99 277.415 397.074 277.187ZM396.66 284.027C396.156 283.535 395.538 283.289 394.806 283.289C394.074 283.289 393.45 283.541 392.934 284.045C392.43 284.537 392.178 285.215 392.178 286.079C392.178 286.943 392.436 287.621 392.952 288.113C393.468 288.605 394.086 288.851 394.806 288.851C395.526 288.851 396.144 288.605 396.66 288.113C397.176 287.621 397.434 286.943 397.434 286.079C397.434 285.203 397.176 284.519 396.66 284.027ZM399.498 289.787L402.684 285.791L399.966 282.317H401.55L403.476 284.855L405.438 282.317H407.022L404.286 285.809L407.382 289.787H405.798L403.44 286.745L401.082 289.787H399.498ZM408.752 282.317H410.048V289.787H408.752V282.317ZM408.752 280.139C408.572 279.959 408.482 279.743 408.482 279.491C408.482 279.239 408.572 279.023 408.752 278.843C408.932 278.663 409.148 278.573 409.4 278.573C409.652 278.573 409.868 278.663 410.048 278.843C410.228 279.023 410.318 279.239 410.318 279.491C410.318 279.743 410.228 279.959 410.048 280.139C409.868 280.319 409.652 280.409 409.4 280.409C409.148 280.409 408.932 280.319 408.752 280.139ZM413.036 282.317H418.292V288.599H419.408V291.767H418.22V289.787H412.532V291.767H411.344V288.599C411.968 288.587 412.43 288.263 412.73 287.627C412.934 287.207 413.036 286.547 413.036 285.647V282.317ZM416.996 288.599V283.505H414.332V286.313C414.332 287.309 414.032 288.071 413.432 288.599H416.996ZM420.775 289.787V282.317H422.071V285.377H425.599V282.317H426.895V289.787H425.599V286.565H422.071V289.787H420.775ZM434.88 287.285L435.96 287.879C435.708 288.359 435.402 288.761 435.042 289.085C434.358 289.697 433.53 290.003 432.558 290.003C431.55 290.003 430.68 289.679 429.948 289.031C429.228 288.371 428.868 287.393 428.868 286.097C428.868 284.957 429.192 284.015 429.84 283.271C430.5 282.515 431.382 282.137 432.486 282.137C433.734 282.137 434.676 282.593 435.312 283.505C435.816 284.225 436.05 285.161 436.014 286.313H430.2C430.212 287.069 430.446 287.681 430.902 288.149C431.358 288.617 431.916 288.851 432.576 288.851C433.164 288.851 433.674 288.671 434.106 288.311C434.442 288.023 434.7 287.681 434.88 287.285ZM430.29 285.233H434.682C434.574 284.645 434.316 284.177 433.908 283.829C433.512 283.469 433.038 283.289 432.486 283.289C431.946 283.289 431.466 283.475 431.046 283.847C430.638 284.207 430.386 284.669 430.29 285.233ZM438.2 289.697C438.02 289.517 437.93 289.307 437.93 289.067C437.93 288.827 438.02 288.617 438.2 288.437C438.38 288.257 438.59 288.167 438.83 288.167C439.07 288.167 439.28 288.257 439.46 288.437C439.64 288.617 439.73 288.827 439.73 289.067C439.73 289.307 439.64 289.517 439.46 289.697C439.28 289.877 439.07 289.967 438.83 289.967C438.59 289.967 438.38 289.877 438.2 289.697ZM452.814 289.787V284.639C451.698 284.723 450.87 284.765 450.33 284.765C448.902 284.765 447.912 284.549 447.36 284.117C446.628 283.553 446.262 282.623 446.262 281.327V277.781H447.594V281.147C447.594 282.119 447.834 282.779 448.314 283.127C448.65 283.379 449.346 283.505 450.402 283.505C451.11 283.505 451.914 283.463 452.814 283.379V277.781H454.146V289.787H452.814ZM456.916 282.317H458.212V287.249L463.324 281.741V289.787H462.028V284.801L456.916 290.309V282.317ZM471.625 282.857V284.405C471.037 283.661 470.257 283.289 469.285 283.289C468.553 283.289 467.929 283.541 467.413 284.045C466.897 284.537 466.639 285.215 466.639 286.079C466.639 286.943 466.897 287.621 467.413 288.113C467.929 288.605 468.547 288.851 469.267 288.851C470.227 288.851 471.031 288.461 471.679 287.681V289.229C470.971 289.745 470.179 290.003 469.303 290.003C468.139 290.003 467.179 289.637 466.423 288.905C465.679 288.161 465.307 287.225 465.307 286.097C465.307 284.957 465.685 284.015 466.441 283.271C467.197 282.515 468.151 282.137 469.303 282.137C470.167 282.137 470.941 282.377 471.625 282.857ZM478.564 283.505H476.224V289.787H474.928V283.505H472.588V282.317H478.564V283.505ZM486.068 288.887C485.324 289.631 484.382 290.003 483.242 290.003C482.102 290.003 481.154 289.631 480.398 288.887C479.654 288.143 479.282 287.207 479.282 286.079C479.282 284.939 479.654 283.997 480.398 283.253C481.154 282.509 482.102 282.137 483.242 282.137C484.382 282.137 485.324 282.509 486.068 283.253C486.824 283.997 487.202 284.939 487.202 286.079C487.202 287.207 486.824 288.143 486.068 288.887ZM485.096 284.027C484.592 283.535 483.974 283.289 483.242 283.289C482.51 283.289 481.886 283.541 481.37 284.045C480.866 284.537 480.614 285.215 480.614 286.079C480.614 286.943 480.872 287.621 481.388 288.113C481.904 288.605 482.522 288.851 483.242 288.851C483.962 288.851 484.58 288.605 485.096 288.113C485.612 287.621 485.87 286.943 485.87 286.079C485.87 285.203 485.612 284.519 485.096 284.027ZM498.286 283.505H495.946V289.787H494.65V283.505H492.31V282.317H498.286V283.505ZM505.144 283.379V282.317H506.44V289.787H505.144V288.743C504.496 289.583 503.644 290.003 502.588 290.003C501.58 290.003 500.722 289.655 500.014 288.959C499.306 288.263 498.952 287.291 498.952 286.043C498.952 284.819 499.3 283.865 499.996 283.181C500.704 282.485 501.568 282.137 502.588 282.137C503.668 282.137 504.52 282.551 505.144 283.379ZM502.732 283.289C502.048 283.289 501.466 283.535 500.986 284.027C500.518 284.507 500.284 285.179 500.284 286.043C500.284 286.871 500.5 287.549 500.932 288.077C501.376 288.593 501.976 288.851 502.732 288.851C503.488 288.851 504.088 288.581 504.532 288.041C504.988 287.501 505.216 286.841 505.216 286.061C505.216 285.173 504.964 284.489 504.46 284.009C503.956 283.529 503.38 283.289 502.732 283.289ZM514.067 284.225L513.167 283.487C513.455 283.067 513.773 282.755 514.121 282.551C514.589 282.275 515.135 282.137 515.759 282.137C516.515 282.137 517.103 282.311 517.523 282.659C517.955 283.031 518.171 283.505 518.171 284.081C518.171 284.777 517.889 285.299 517.325 285.647C517.685 285.731 517.973 285.893 518.189 286.133C518.537 286.505 518.711 286.961 518.711 287.501C518.711 288.305 518.387 288.947 517.739 289.427C517.211 289.811 516.503 290.003 515.615 290.003C514.823 290.003 514.157 289.793 513.617 289.373C513.209 289.073 512.879 288.647 512.627 288.095L513.743 287.627C513.875 287.963 514.097 288.245 514.409 288.473C514.745 288.725 515.153 288.851 515.633 288.851C516.197 288.851 516.617 288.755 516.893 288.563C517.241 288.335 517.415 287.987 517.415 287.519C517.415 287.135 517.265 286.847 516.965 286.655C516.713 286.487 516.305 286.403 515.741 286.403H514.985V285.215H515.615C516.071 285.215 516.395 285.149 516.587 285.017C516.851 284.849 516.983 284.621 516.983 284.333C516.983 283.997 516.875 283.739 516.659 283.559C516.455 283.379 516.137 283.289 515.705 283.289C515.333 283.289 514.991 283.385 514.679 283.577C514.415 283.745 514.211 283.961 514.067 284.225ZM521.985 288.743V293.927H520.689V282.317H521.985V283.361C522.645 282.545 523.497 282.137 524.541 282.137C525.657 282.137 526.539 282.533 527.187 283.325C527.847 284.105 528.177 285.029 528.177 286.097C528.177 287.177 527.853 288.101 527.205 288.869C526.557 289.625 525.687 290.003 524.595 290.003C523.503 290.003 522.633 289.583 521.985 288.743ZM524.415 288.851C525.147 288.851 525.735 288.587 526.179 288.059C526.623 287.519 526.845 286.865 526.845 286.097C526.845 285.233 526.599 284.549 526.107 284.045C525.615 283.541 525.045 283.289 524.397 283.289C523.749 283.289 523.173 283.541 522.669 284.045C522.165 284.549 521.913 285.227 521.913 286.079C521.913 286.859 522.141 287.519 522.597 288.059C523.065 288.587 523.671 288.851 524.415 288.851ZM530.146 293.927L532.522 289.085L529.084 282.317H530.56L533.206 287.663L535.636 282.317H537.076L531.586 293.927H530.146ZM542.263 289.787V286.853C541.555 286.961 540.967 287.015 540.499 287.015C539.683 287.015 539.077 286.835 538.681 286.475C538.261 286.103 538.051 285.491 538.051 284.639V282.317H539.347V284.459C539.347 284.867 539.401 285.161 539.509 285.341C539.677 285.665 540.055 285.827 540.643 285.827C541.171 285.827 541.711 285.773 542.263 285.665V282.317H543.559V289.787H542.263ZM546.002 289.787V282.317H547.298V285.377H550.826V282.317H552.122V289.787H550.826V286.565H547.298V289.787H546.002ZM560.88 288.887C560.136 289.631 559.194 290.003 558.054 290.003C556.914 290.003 555.966 289.631 555.21 288.887C554.466 288.143 554.094 287.207 554.094 286.079C554.094 284.939 554.466 283.997 555.21 283.253C555.966 282.509 556.914 282.137 558.054 282.137C559.194 282.137 560.136 282.509 560.88 283.253C561.636 283.997 562.014 284.939 562.014 286.079C562.014 287.207 561.636 288.143 560.88 288.887ZM559.908 284.027C559.404 283.535 558.786 283.289 558.054 283.289C557.322 283.289 556.698 283.541 556.182 284.045C555.678 284.537 555.426 285.215 555.426 286.079C555.426 286.943 555.684 287.621 556.2 288.113C556.716 288.605 557.334 288.851 558.054 288.851C558.774 288.851 559.392 288.605 559.908 288.113C560.424 287.621 560.682 286.943 560.682 286.079C560.682 285.203 560.424 284.519 559.908 284.027ZM564.2 289.697C564.02 289.517 563.93 289.307 563.93 289.067C563.93 288.827 564.02 288.617 564.2 288.437C564.38 288.257 564.59 288.167 564.83 288.167C565.07 288.167 565.28 288.257 565.46 288.437C565.64 288.617 565.73 288.827 565.73 289.067C565.73 289.307 565.64 289.517 565.46 289.697C565.28 289.877 565.07 289.967 564.83 289.967C564.59 289.967 564.38 289.877 564.2 289.697ZM572.622 289.787V277.781H573.954V288.527H578.706V277.781H580.038V288.527H584.79V277.781H586.122V289.787H572.622ZM588.892 282.317H590.188V287.249L595.3 281.741V289.787H594.004V284.801L588.892 290.309V282.317ZM597.752 282.317H599.048V285.377L602.072 282.317H603.656L600.416 285.647L604.052 289.787H602.36L599.444 286.511L599.048 286.889V289.787H597.752V282.317ZM611.069 283.379V282.317H612.365V289.787H611.069V288.743C610.421 289.583 609.569 290.003 608.513 290.003C607.505 290.003 606.647 289.655 605.939 288.959C605.231 288.263 604.877 287.291 604.877 286.043C604.877 284.819 605.225 283.865 605.921 283.181C606.629 282.485 607.493 282.137 608.513 282.137C609.593 282.137 610.445 282.551 611.069 283.379ZM608.657 283.289C607.973 283.289 607.391 283.535 606.911 284.027C606.443 284.507 606.209 285.179 606.209 286.043C606.209 286.871 606.425 287.549 606.857 288.077C607.301 288.593 607.901 288.851 608.657 288.851C609.413 288.851 610.013 288.581 610.457 288.041C610.913 287.501 611.141 286.841 611.141 286.061C611.141 285.173 610.889 284.489 610.385 284.009C609.881 283.529 609.305 283.289 608.657 283.289ZM616.116 288.743V293.927H614.82V282.317H616.116V283.361C616.776 282.545 617.628 282.137 618.672 282.137C619.788 282.137 620.67 282.533 621.318 283.325C621.978 284.105 622.308 285.029 622.308 286.097C622.308 287.177 621.984 288.101 621.336 288.869C620.688 289.625 619.818 290.003 618.726 290.003C617.634 290.003 616.764 289.583 616.116 288.743ZM618.546 288.851C619.278 288.851 619.866 288.587 620.31 288.059C620.754 287.519 620.976 286.865 620.976 286.097C620.976 285.233 620.73 284.549 620.238 284.045C619.746 283.541 619.176 283.289 618.528 283.289C617.88 283.289 617.304 283.541 616.8 284.045C616.296 284.549 616.044 285.227 616.044 286.079C616.044 286.859 616.272 287.519 616.728 288.059C617.196 288.587 617.802 288.851 618.546 288.851ZM624.295 289.787V282.317H625.591V285.377H629.119V282.317H630.415V289.787H629.119V286.565H625.591V289.787H624.295ZM632.855 282.317H634.151V287.249L639.263 281.741V289.787H637.967V284.801L632.855 290.309V282.317ZM641.714 282.317H643.01V287.249L648.122 281.741V289.787H646.826V284.801L641.714 290.309V282.317ZM642.362 279.095L643.442 278.681C643.658 279.401 644.168 279.761 644.972 279.761C645.776 279.761 646.286 279.401 646.502 278.681L647.582 279.095C647.39 279.635 647.06 280.061 646.592 280.373C646.136 280.685 645.596 280.841 644.972 280.841C644.348 280.841 643.802 280.685 643.334 280.373C642.878 280.061 642.554 279.635 642.362 279.095ZM130.261 305.317H131.557V308.377L134.581 305.317H136.165L132.925 308.647L136.561 312.787H134.869L131.953 309.511L131.557 309.889V312.787H130.261V305.317ZM139.151 311.743V316.927H137.855V305.317H139.151V306.361C139.811 305.545 140.663 305.137 141.707 305.137C142.823 305.137 143.705 305.533 144.353 306.325C145.013 307.105 145.343 308.029 145.343 309.097C145.343 310.177 145.019 311.101 144.371 311.869C143.723 312.625 142.853 313.003 141.761 313.003C140.669 313.003 139.799 312.583 139.151 311.743ZM141.581 311.851C142.313 311.851 142.901 311.587 143.345 311.059C143.789 310.519 144.011 309.865 144.011 309.097C144.011 308.233 143.765 307.549 143.273 307.045C142.781 306.541 142.211 306.289 141.563 306.289C140.915 306.289 140.339 306.541 139.835 307.045C139.331 307.549 139.079 308.227 139.079 309.079C139.079 309.859 139.307 310.519 139.763 311.059C140.231 311.587 140.837 311.851 141.581 311.851ZM153.054 306.379V305.317H154.35V312.787H153.054V311.743C152.406 312.583 151.554 313.003 150.498 313.003C149.49 313.003 148.632 312.655 147.924 311.959C147.216 311.263 146.862 310.291 146.862 309.043C146.862 307.819 147.21 306.865 147.906 306.181C148.614 305.485 149.478 305.137 150.498 305.137C151.578 305.137 152.43 305.551 153.054 306.379ZM150.642 306.289C149.958 306.289 149.376 306.535 148.896 307.027C148.428 307.507 148.194 308.179 148.194 309.043C148.194 309.871 148.41 310.549 148.842 311.077C149.286 311.593 149.886 311.851 150.642 311.851C151.398 311.851 151.998 311.581 152.442 311.041C152.898 310.501 153.126 309.841 153.126 309.061C153.126 308.173 152.874 307.489 152.37 307.009C151.866 306.529 151.29 306.289 150.642 306.289ZM162.654 305.857V307.405C162.03 306.661 161.25 306.289 160.314 306.289C159.702 306.289 159.144 306.481 158.64 306.865C158.148 307.237 157.842 307.747 157.722 308.395H161.628V309.547H157.704C157.788 310.231 158.076 310.789 158.568 311.221C159.06 311.641 159.636 311.851 160.296 311.851C161.256 311.851 162.06 311.461 162.708 310.681V312.229C162 312.745 161.208 313.003 160.332 313.003C159.168 313.003 158.208 312.637 157.452 311.905C156.708 311.161 156.336 310.225 156.336 309.097C156.336 307.957 156.714 307.015 157.47 306.271C158.226 305.515 159.18 305.137 160.332 305.137C161.196 305.137 161.97 305.377 162.654 305.857ZM164.697 305.317H167.523C168.207 305.317 168.729 305.461 169.089 305.749C169.521 306.097 169.737 306.565 169.737 307.153C169.737 307.801 169.467 308.299 168.927 308.647C169.299 308.743 169.611 308.911 169.863 309.151C170.259 309.535 170.457 310.015 170.457 310.591C170.457 311.311 170.199 311.875 169.683 312.283C169.239 312.619 168.651 312.787 167.919 312.787H164.697V305.317ZM165.993 308.359H167.361C167.709 308.359 167.985 308.287 168.189 308.143C168.429 307.963 168.549 307.705 168.549 307.369C168.549 307.069 168.429 306.829 168.189 306.649C168.009 306.529 167.661 306.469 167.145 306.469H165.993V308.359ZM165.993 311.635H167.595C168.147 311.635 168.537 311.551 168.765 311.383C169.053 311.167 169.197 310.891 169.197 310.555C169.197 310.195 169.071 309.913 168.819 309.709C168.591 309.529 168.201 309.439 167.649 309.439H165.993V311.635ZM172.431 305.317H173.727V310.249L178.839 304.741V312.787H177.543V307.801L172.431 313.309V305.317ZM181.831 305.317H187.087V311.599H188.203V314.767H187.015V312.787H181.327V314.767H180.139V311.599C180.763 311.587 181.225 311.263 181.525 310.627C181.729 310.207 181.831 309.547 181.831 308.647V305.317ZM185.791 311.599V306.505H183.127V309.313C183.127 310.309 182.827 311.071 182.227 311.599H185.791ZM191.514 310.357H190.218V300.781H191.514V310.357ZM190.236 312.697C190.056 312.517 189.966 312.307 189.966 312.067C189.966 311.827 190.056 311.617 190.236 311.437C190.416 311.257 190.626 311.167 190.866 311.167C191.106 311.167 191.316 311.257 191.496 311.437C191.676 311.617 191.766 311.827 191.766 312.067C191.766 312.307 191.676 312.517 191.496 312.697C191.316 312.877 191.106 312.967 190.866 312.967C190.626 312.967 190.416 312.877 190.236 312.697ZM199.14 300.781H201.318C202.686 300.781 203.694 301.063 204.342 301.627C205.074 302.251 205.44 303.109 205.44 304.201C205.44 305.137 205.122 305.935 204.486 306.595C203.862 307.243 202.914 307.567 201.642 307.567H200.472V312.787H199.14V300.781ZM200.472 302.041V306.307H201.57C202.362 306.307 202.98 306.115 203.424 305.731C203.88 305.347 204.108 304.813 204.108 304.129C204.108 302.737 203.226 302.041 201.462 302.041H200.472ZM212.024 310.285L213.104 310.879C212.852 311.359 212.546 311.761 212.186 312.085C211.502 312.697 210.674 313.003 209.702 313.003C208.694 313.003 207.824 312.679 207.092 312.031C206.372 311.371 206.012 310.393 206.012 309.097C206.012 307.957 206.336 307.015 206.984 306.271C207.644 305.515 208.526 305.137 209.63 305.137C210.878 305.137 211.82 305.593 212.456 306.505C212.96 307.225 213.194 308.161 213.158 309.313H207.344C207.356 310.069 207.59 310.681 208.046 311.149C208.502 311.617 209.06 311.851 209.72 311.851C210.308 311.851 210.818 311.671 211.25 311.311C211.586 311.023 211.844 310.681 212.024 310.285ZM207.434 308.233H211.826C211.718 307.645 211.46 307.177 211.052 306.829C210.656 306.469 210.182 306.289 209.63 306.289C209.09 306.289 208.61 306.475 208.19 306.847C207.782 307.207 207.53 307.669 207.434 308.233ZM215.146 305.317H216.442V308.377L219.466 305.317H221.05L217.81 308.647L221.446 312.787H219.754L216.838 309.511L216.442 309.889V312.787H215.146V305.317ZM228.706 311.887C227.962 312.631 227.02 313.003 225.88 313.003C224.74 313.003 223.792 312.631 223.036 311.887C222.292 311.143 221.92 310.207 221.92 309.079C221.92 307.939 222.292 306.997 223.036 306.253C223.792 305.509 224.74 305.137 225.88 305.137C227.02 305.137 227.962 305.509 228.706 306.253C229.462 306.997 229.84 307.939 229.84 309.079C229.84 310.207 229.462 311.143 228.706 311.887ZM227.734 307.027C227.23 306.535 226.612 306.289 225.88 306.289C225.148 306.289 224.524 306.541 224.008 307.045C223.504 307.537 223.252 308.215 223.252 309.079C223.252 309.943 223.51 310.621 224.026 311.113C224.542 311.605 225.16 311.851 225.88 311.851C226.6 311.851 227.218 311.605 227.734 311.113C228.25 310.621 228.508 309.943 228.508 309.079C228.508 308.203 228.25 307.519 227.734 307.027ZM230.964 312.787L232.764 304.741L235.86 310.825L238.884 304.741L240.684 312.787H239.352L238.362 308.161L235.824 313.309L233.25 308.161L232.296 312.787H230.964ZM247.813 310.285L248.893 310.879C248.641 311.359 248.335 311.761 247.975 312.085C247.291 312.697 246.463 313.003 245.491 313.003C244.483 313.003 243.613 312.679 242.881 312.031C242.161 311.371 241.801 310.393 241.801 309.097C241.801 307.957 242.125 307.015 242.773 306.271C243.433 305.515 244.315 305.137 245.419 305.137C246.667 305.137 247.609 305.593 248.245 306.505C248.749 307.225 248.983 308.161 248.947 309.313H243.133C243.145 310.069 243.379 310.681 243.835 311.149C244.291 311.617 244.849 311.851 245.509 311.851C246.097 311.851 246.607 311.671 247.039 311.311C247.375 311.023 247.633 310.681 247.813 310.285ZM243.223 308.233H247.615C247.507 307.645 247.249 307.177 246.841 306.829C246.445 306.469 245.971 306.289 245.419 306.289C244.879 306.289 244.399 306.475 243.979 306.847C243.571 307.207 243.319 307.669 243.223 308.233ZM250.935 312.787V305.317H252.231V308.377H255.759V305.317H257.055V312.787H255.759V309.565H252.231V312.787H250.935ZM260.036 305.317H265.292V311.599H266.408V314.767H265.22V312.787H259.532V314.767H258.344V311.599C258.968 311.587 259.43 311.263 259.73 310.627C259.934 310.207 260.036 309.547 260.036 308.647V305.317ZM263.996 311.599V306.505H261.332V309.313C261.332 310.309 261.032 311.071 260.432 311.599H263.996ZM267.757 316.927L270.133 312.085L266.695 305.317H268.171L270.817 310.663L273.247 305.317H274.687L269.197 316.927H267.757ZM277.35 308.377H278.7C278.82 307.537 279.156 306.829 279.708 306.253C280.416 305.509 281.358 305.137 282.534 305.137C283.686 305.137 284.634 305.509 285.378 306.253C286.122 306.997 286.494 307.939 286.494 309.079C286.494 310.207 286.116 311.143 285.36 311.887C284.616 312.631 283.674 313.003 282.534 313.003C281.226 313.003 280.2 312.535 279.456 311.599C278.976 310.999 278.7 310.321 278.628 309.565H277.35V312.787H276.054V305.317H277.35V308.377ZM282.534 306.289C281.814 306.289 281.202 306.541 280.698 307.045C280.206 307.537 279.96 308.215 279.96 309.079C279.96 309.955 280.212 310.639 280.716 311.131C281.22 311.611 281.826 311.851 282.534 311.851C283.254 311.851 283.872 311.605 284.388 311.113C284.904 310.621 285.162 309.943 285.162 309.079C285.162 308.215 284.904 307.537 284.388 307.045C283.884 306.541 283.266 306.289 282.534 306.289ZM290.426 310.357H289.13V300.781H290.426V310.357ZM289.148 312.697C288.968 312.517 288.878 312.307 288.878 312.067C288.878 311.827 288.968 311.617 289.148 311.437C289.328 311.257 289.538 311.167 289.778 311.167C290.018 311.167 290.228 311.257 290.408 311.437C290.588 311.617 290.678 311.827 290.678 312.067C290.678 312.307 290.588 312.517 290.408 312.697C290.228 312.877 290.018 312.967 289.778 312.967C289.538 312.967 289.328 312.877 289.148 312.697Z" fill="#0D0D0D"/>
<path d="M86.6373 362.051V358.787H94.3173V362.051H86.6373Z" fill="#00303E"/>
<path d="M131.539 364.787H130.171L132.169 352.115L136.777 362.249L141.475 352.097L143.347 364.787H141.979L140.845 356.435L136.759 365.291L132.727 356.435L131.539 364.787ZM145.8 357.317H147.096V364.787H145.8V357.317ZM145.8 355.139C145.62 354.959 145.53 354.743 145.53 354.491C145.53 354.239 145.62 354.023 145.8 353.843C145.98 353.663 146.196 353.573 146.448 353.573C146.7 353.573 146.916 353.663 147.096 353.843C147.276 354.023 147.366 354.239 147.366 354.491C147.366 354.743 147.276 354.959 147.096 355.139C146.916 355.319 146.7 355.409 146.448 355.409C146.196 355.409 145.98 355.319 145.8 355.139ZM149.545 364.787V357.317H150.841V360.377H154.369V357.317H155.665V364.787H154.369V361.565H150.841V364.787H149.545ZM158.087 368.927L160.463 364.085L157.025 357.317H158.501L161.147 362.663L163.577 357.317H165.017L159.527 368.927H158.087ZM172.234 357.857V359.405C171.646 358.661 170.866 358.289 169.894 358.289C169.162 358.289 168.538 358.541 168.022 359.045C167.506 359.537 167.248 360.215 167.248 361.079C167.248 361.943 167.506 362.621 168.022 363.113C168.538 363.605 169.156 363.851 169.876 363.851C170.836 363.851 171.64 363.461 172.288 362.681V364.229C171.58 364.745 170.788 365.003 169.912 365.003C168.748 365.003 167.788 364.637 167.032 363.905C166.288 363.161 165.916 362.225 165.916 361.097C165.916 359.957 166.294 359.015 167.05 358.271C167.806 357.515 168.76 357.137 169.912 357.137C170.776 357.137 171.55 357.377 172.234 357.857ZM174.277 357.317H175.573V364.787H174.277V357.317ZM174.277 355.139C174.097 354.959 174.007 354.743 174.007 354.491C174.007 354.239 174.097 354.023 174.277 353.843C174.457 353.663 174.673 353.573 174.925 353.573C175.177 353.573 175.393 353.663 175.573 353.843C175.753 354.023 175.843 354.239 175.843 354.491C175.843 354.743 175.753 354.959 175.573 355.139C175.393 355.319 175.177 355.409 174.925 355.409C174.673 355.409 174.457 355.319 174.277 355.139ZM178.021 357.317H180.847C181.531 357.317 182.053 357.461 182.413 357.749C182.845 358.097 183.061 358.565 183.061 359.153C183.061 359.801 182.791 360.299 182.251 360.647C182.623 360.743 182.935 360.911 183.187 361.151C183.583 361.535 183.781 362.015 183.781 362.591C183.781 363.311 183.523 363.875 183.007 364.283C182.563 364.619 181.975 364.787 181.243 364.787H178.021V357.317ZM179.317 360.359H180.685C181.033 360.359 181.309 360.287 181.513 360.143C181.753 359.963 181.873 359.705 181.873 359.369C181.873 359.069 181.753 358.829 181.513 358.649C181.333 358.529 180.985 358.469 180.469 358.469H179.317V360.359ZM179.317 363.635H180.919C181.471 363.635 181.861 363.551 182.089 363.383C182.377 363.167 182.521 362.891 182.521 362.555C182.521 362.195 182.395 361.913 182.143 361.709C181.915 361.529 181.525 361.439 180.973 361.439H179.317V363.635ZM189.957 364.787V357.317H191.253V360.377H194.781V357.317H196.077V364.787H194.781V361.565H191.253V364.787H189.957ZM204.061 362.285L205.141 362.879C204.889 363.359 204.583 363.761 204.223 364.085C203.539 364.697 202.711 365.003 201.739 365.003C200.731 365.003 199.861 364.679 199.129 364.031C198.409 363.371 198.049 362.393 198.049 361.097C198.049 359.957 198.373 359.015 199.021 358.271C199.681 357.515 200.563 357.137 201.667 357.137C202.915 357.137 203.857 357.593 204.493 358.505C204.997 359.225 205.231 360.161 205.195 361.313H199.381C199.393 362.069 199.627 362.681 200.083 363.149C200.539 363.617 201.097 363.851 201.757 363.851C202.345 363.851 202.855 363.671 203.287 363.311C203.623 363.023 203.881 362.681 204.061 362.285ZM199.471 360.233H203.863C203.755 359.645 203.497 359.177 203.089 358.829C202.693 358.469 202.219 358.289 201.667 358.289C201.127 358.289 200.647 358.475 200.227 358.847C199.819 359.207 199.567 359.669 199.471 360.233ZM206.319 364.787L208.119 356.741L211.215 362.825L214.239 356.741L216.039 364.787H214.707L213.717 360.161L211.179 365.309L208.605 360.161L207.651 364.787H206.319ZM223.349 358.379V357.317H224.645V364.787H223.349V363.743C222.701 364.583 221.849 365.003 220.793 365.003C219.785 365.003 218.927 364.655 218.219 363.959C217.511 363.263 217.157 362.291 217.157 361.043C217.157 359.819 217.505 358.865 218.201 358.181C218.909 357.485 219.773 357.137 220.793 357.137C221.873 357.137 222.725 357.551 223.349 358.379ZM220.937 358.289C220.253 358.289 219.671 358.535 219.191 359.027C218.723 359.507 218.489 360.179 218.489 361.043C218.489 361.871 218.705 362.549 219.137 363.077C219.581 363.593 220.181 363.851 220.937 363.851C221.693 363.851 222.293 363.581 222.737 363.041C223.193 362.501 223.421 361.841 223.421 361.061C223.421 360.173 223.169 359.489 222.665 359.009C222.161 358.529 221.585 358.289 220.937 358.289ZM232.949 357.857V359.405C232.325 358.661 231.545 358.289 230.609 358.289C229.997 358.289 229.439 358.481 228.935 358.865C228.443 359.237 228.137 359.747 228.017 360.395H231.923V361.547H227.999C228.083 362.231 228.371 362.789 228.863 363.221C229.355 363.641 229.931 363.851 230.591 363.851C231.551 363.851 232.355 363.461 233.003 362.681V364.229C232.295 364.745 231.503 365.003 230.627 365.003C229.463 365.003 228.503 364.637 227.747 363.905C227.003 363.161 226.631 362.225 226.631 361.097C226.631 359.957 227.009 359.015 227.765 358.271C228.521 357.515 229.475 357.137 230.627 357.137C231.491 357.137 232.265 357.377 232.949 357.857ZM234.92 351.989L236.054 351.467C236.498 352.643 236.852 353.795 237.116 354.923C237.452 356.387 237.62 357.947 237.62 359.603C237.62 361.055 237.494 362.447 237.242 363.779C237.002 365.039 236.606 366.395 236.054 367.847L234.92 367.325C235.328 366.185 235.64 365.087 235.856 364.031C236.144 362.663 236.288 361.199 236.288 359.639C236.288 358.067 236.138 356.555 235.838 355.103C235.622 354.071 235.316 353.033 234.92 351.989Z" fill="#0D0D0D"/>
<path d="M86.5814 184.664C86.5814 183.848 86.4694 183.248 86.2454 182.864C86.0214 182.464 85.5734 182.264 84.9014 182.264H84.4214V181.784H90.6614C92.4054 181.784 93.9174 182.072 95.1974 182.648C96.4934 183.224 97.1414 184.336 97.1414 185.984C97.1414 186.736 96.8854 187.416 96.3734 188.024C95.8614 188.632 95.0774 189.112 94.0214 189.464C95.4934 189.704 96.5174 190.144 97.0934 190.784C97.6854 191.408 97.9814 192.248 97.9814 193.304C97.9814 194.92 97.3414 196.048 96.0614 196.688C94.7974 197.312 93.2374 197.624 91.3814 197.624H86.5814V184.664ZM91.0214 189.104C91.6774 189.104 92.2934 188.984 92.8694 188.744C93.4614 188.488 93.9414 188.12 94.3094 187.64C94.6774 187.144 94.8614 186.552 94.8614 185.864C94.8614 185.144 94.6454 184.544 94.2134 184.064C93.7814 183.568 93.2294 183.208 92.5574 182.984C91.9014 182.744 91.2294 182.624 90.5414 182.624C89.9814 182.624 89.3814 182.704 88.7414 182.864V189.104H91.0214ZM91.0214 196.784C92.4774 196.784 93.5974 196.496 94.3814 195.92C95.1814 195.344 95.5814 194.512 95.5814 193.424C95.5814 192.336 95.1894 191.504 94.4054 190.928C93.6374 190.352 92.5094 190.064 91.0214 190.064H88.7414V196.448C89.5094 196.672 90.2694 196.784 91.0214 196.784ZM101.967 184.904C101.599 184.904 101.279 184.752 101.007 184.448C100.751 184.144 100.623 183.784 100.623 183.368C100.623 183.032 100.719 182.768 100.911 182.576C101.119 182.384 101.391 182.288 101.727 182.288C102.095 182.288 102.407 182.44 102.663 182.744C102.935 183.048 103.071 183.408 103.071 183.824C103.071 184.16 102.967 184.424 102.759 184.616C102.567 184.808 102.303 184.904 101.967 184.904ZM101.055 189.224C101.055 188.408 100.943 187.808 100.719 187.424C100.495 187.024 100.047 186.824 99.375 186.824H98.895V186.344H101.055C101.647 186.344 102.087 186.424 102.375 186.584C102.679 186.728 102.895 187 103.023 187.4C103.151 187.8 103.215 188.408 103.215 189.224V197.624H101.055V189.224ZM105.257 197.504C105.257 197.264 105.337 197.064 105.497 196.904C105.657 196.744 105.857 196.664 106.097 196.664H106.817C107.313 195.56 107.673 194.352 107.897 193.04C108.137 191.712 108.257 190.44 108.257 189.224C108.257 188.408 108.145 187.808 107.921 187.424C107.697 187.024 107.249 186.824 106.577 186.824V186.344H116.177V196.664H117.137C117.377 196.664 117.577 196.744 117.737 196.904C117.897 197.064 117.977 197.264 117.977 197.504V201.344H117.017C116.889 200 116.633 199.04 116.249 198.464C115.865 197.904 115.281 197.624 114.497 197.624H108.737C107.953 197.624 107.369 197.904 106.985 198.464C106.601 199.04 106.345 200 106.217 201.344H105.257V197.504ZM114.017 196.664V187.304H109.817C109.817 189.4 109.713 191.192 109.505 192.68C109.297 194.152 108.961 195.48 108.497 196.664H114.017ZM133.729 198.104C132.305 198.104 131.289 197.76 130.681 197.072C130.073 196.368 129.769 195.352 129.769 194.024V188.864L125.809 197.624H125.329L121.249 188.624V197.624H120.289V186.344H122.569L126.169 194.264L129.769 186.344H131.929V194.024C131.929 194.968 132.097 195.808 132.433 196.544C132.785 197.264 133.217 197.624 133.729 197.624V198.104ZM137.147 184.904C136.779 184.904 136.459 184.752 136.187 184.448C135.931 184.144 135.803 183.784 135.803 183.368C135.803 183.032 135.899 182.768 136.091 182.576C136.299 182.384 136.571 182.288 136.907 182.288C137.275 182.288 137.587 182.44 137.843 182.744C138.115 183.048 138.251 183.408 138.251 183.824C138.251 184.16 138.147 184.424 137.939 184.616C137.747 184.808 137.483 184.904 137.147 184.904ZM136.235 189.224C136.235 188.408 136.123 187.808 135.899 187.424C135.675 187.024 135.227 186.824 134.555 186.824H134.075V186.344H136.235C136.827 186.344 137.267 186.424 137.555 186.584C137.859 186.728 138.075 187 138.203 187.4C138.331 187.8 138.395 188.408 138.395 189.224V197.624H136.235V189.224ZM142.117 189.224C142.117 188.408 142.005 187.808 141.781 187.424C141.557 187.024 141.109 186.824 140.437 186.824H140.077V186.344H142.117C142.709 186.344 143.149 186.424 143.437 186.584C143.741 186.728 143.957 187 144.085 187.4C144.213 187.8 144.277 188.408 144.277 189.224V191.504H149.077V186.344H151.237V194.744C151.237 195.56 151.349 196.168 151.573 196.568C151.797 196.952 152.245 197.144 152.917 197.144H153.277V197.624H151.237C150.645 197.624 150.197 197.552 149.893 197.408C149.605 197.248 149.397 196.968 149.269 196.568C149.141 196.168 149.077 195.56 149.077 194.744V192.464H144.277V197.624H142.117V189.224ZM155.383 189.224C155.383 188.408 155.271 187.808 155.047 187.424C154.823 187.024 154.375 186.824 153.703 186.824H153.343V186.344H155.383C155.975 186.344 156.415 186.424 156.703 186.584C157.007 186.728 157.223 187 157.351 187.4C157.479 187.8 157.543 188.408 157.543 189.224V191.504H162.343V186.344H164.503V194.744C164.503 195.56 164.615 196.168 164.839 196.568C165.063 196.952 165.511 197.144 166.183 197.144H166.543V197.624H164.503C163.911 197.624 163.463 197.552 163.159 197.408C162.871 197.248 162.663 196.968 162.535 196.568C162.407 196.168 162.343 195.56 162.343 194.744V192.464H157.543V197.624H155.383V189.224ZM172.944 197.864C171.856 197.864 170.912 197.608 170.112 197.096C169.312 196.568 168.704 195.856 168.288 194.96C167.872 194.064 167.664 193.072 167.664 191.984C167.664 190.896 167.872 189.904 168.288 189.008C168.704 188.112 169.312 187.408 170.112 186.896C170.912 186.368 171.856 186.104 172.944 186.104C174.032 186.104 174.976 186.368 175.776 186.896C176.576 187.408 177.184 188.112 177.6 189.008C178.016 189.904 178.224 190.896 178.224 191.984C178.224 193.072 178.016 194.064 177.6 194.96C177.184 195.856 176.576 196.568 175.776 197.096C174.976 197.608 174.032 197.864 172.944 197.864ZM172.944 196.904C173.536 196.904 174.056 196.688 174.504 196.256C174.968 195.824 175.32 195.232 175.56 194.48C175.816 193.728 175.944 192.896 175.944 191.984C175.944 191.072 175.816 190.24 175.56 189.488C175.32 188.736 174.968 188.144 174.504 187.712C174.056 187.28 173.536 187.064 172.944 187.064C172.352 187.064 171.824 187.28 171.36 187.712C170.912 188.144 170.56 188.736 170.304 189.488C170.064 190.24 169.944 191.072 169.944 191.984C169.944 192.896 170.064 193.728 170.304 194.48C170.56 195.232 170.912 195.824 171.36 196.256C171.824 196.688 172.352 196.904 172.944 196.904Z" fill="black"/>
<path d="M724.037 87.6238C724.037 84.8624 726.276 82.6238 729.037 82.6238H764.037V117.624C764.037 120.385 761.799 122.624 759.037 122.624H724.037V87.6238Z" fill="#00303E"/>
<path d="M738.422 109.624V98.1638H736.102L737.222 96.2838H740.462V109.624H738.422ZM751.985 108.404C751.145 109.364 750.139 109.844 748.965 109.844C747.792 109.844 746.785 109.364 745.945 108.404C744.812 107.11 744.245 105.297 744.245 102.964C744.245 100.617 744.812 98.7971 745.945 97.5038C746.785 96.5438 747.792 96.0638 748.965 96.0638C750.139 96.0638 751.145 96.5438 751.985 97.5038C753.119 98.7971 753.685 100.617 753.685 102.964C753.685 105.297 753.119 107.11 751.985 108.404ZM750.765 98.9638C750.285 98.2304 749.685 97.8638 748.965 97.8638C748.245 97.8638 747.645 98.2304 747.165 98.9638C746.552 99.8704 746.245 101.197 746.245 102.944C746.245 104.677 746.552 106.01 747.165 106.944C747.645 107.677 748.245 108.044 748.965 108.044C749.685 108.044 750.285 107.677 750.765 106.944C751.379 106.01 751.685 104.677 751.685 102.944C751.685 101.197 751.379 99.8704 750.765 98.9638Z" fill="white"/>
<path d="M104.165 91.2798H107.685L113.637 106.16L119.589 91.2798H123.109L113.637 114L104.165 91.2798Z" fill="white"/>
<defs>
<filter id="filter0_d_379_230" x="0.0373535" y="0.0507812" width="848" height="480.975" filterUnits="userSpaceOnUse" color-interpolation-filters="sRGB">
<feFlood flood-opacity="0" result="BackgroundImageFix"/>
<feColorMatrix in="SourceAlpha" type="matrix" values="0 0 0 0 0 0 0 0 0 0 0 0 0 0 0 0 0 0 127 0" result="hardAlpha"/>
<feOffset dy="4"/>
<feGaussianBlur stdDeviation="12"/>
<feComposite in2="hardAlpha" operator="out"/>
<feColorMatrix type="matrix" values="0 0 0 0 0 0 0 0 0 0 0 0 0 0 0 0 0 0 0.05 0"/>
<feBlend mode="normal" in2="BackgroundImageFix" result="effect1_dropShadow_379_230"/>
<feBlend mode="normal" in="SourceGraphic" in2="effect1_dropShadow_379_230" result="shape"/>
</filter>
</defs>
</svg>
