<svg width="16" height="17" viewBox="0 0 16 17" fill="none" xmlns="http://www.w3.org/2000/svg">
<path d="M14.7161 10.9797C13.7365 10.9797 12.7747 10.8265 11.8633 10.5253C11.4166 10.373 10.8676 10.5127 10.595 10.7927L8.79598 12.1507C6.70961 11.037 5.42444 9.75229 4.32595 7.68158L5.64407 5.92941C5.98653 5.58741 6.10936 5.08783 5.96219 4.61908C5.65969 3.70283 5.50603 2.74146 5.50603 1.76146C5.50607 1.0535 4.93011 0.477539 4.2222 0.477539H1.28387C0.575957 0.477539 0 1.0535 0 1.76141C0 9.876 6.60157 16.4775 14.7161 16.4775C15.424 16.4775 16 15.9016 16 15.1937V12.2635C16 11.5557 15.424 10.9797 14.7161 10.9797Z" fill="#00303E"/>
</svg>
