<svg width="19" height="21" viewBox="0 0 19 21" fill="none" xmlns="http://www.w3.org/2000/svg">
<path fill-rule="evenodd" clip-rule="evenodd" d="M12.5646 1.90286C12.6841 1.54308 13.5979 0.19274 13.8023 0.0736958C13.8759 0.0308279 14.633 0.00330771 15.7735 0.0020177L16.8535 0.000826928C16.8596 0.000264617 16.8658 0 16.8721 0H17.6251H17.8207C17.933 0 18.024 0.0909952 18.024 0.203226V1.15161C18.024 1.16296 18.0231 1.17407 18.0213 1.18489V10.0206V19.6452H18.2214C18.6234 19.6452 18.9699 19.9573 18.9699 20.3195C18.9699 20.5463 18.7943 20.8302 18.5991 20.9191C18.4642 20.9805 16.259 21 9.43975 21H0.458051L0.227659 20.7697C-0.0188449 20.5232 -0.0594906 20.3181 0.0782613 20.0159C0.101008 19.9659 0.116624 19.9227 0.141107 19.8854C0.305344 19.6346 0.868793 19.6452 6.66033 19.6452H12.7881L12.6188 19.2263C12.4725 18.8643 12.4534 18.7288 12.4774 18.2266C12.5027 17.6968 12.5302 17.6003 12.79 17.1298C12.9605 16.821 13.0748 16.5255 13.0748 16.3935C13.0748 16.2604 12.9608 15.9687 12.7869 15.6567C12.4991 15.1408 12.4989 15.1397 12.4989 14.429C12.4989 13.7207 12.5 13.7156 12.7869 13.187C12.9452 12.8951 13.0748 12.5672 13.0748 12.4584C13.0748 12.3496 12.9452 12.0129 12.7869 11.7104C12.5033 11.1685 12.4989 11.1496 12.4989 10.4744C12.4989 9.79387 12.501 9.78484 12.7869 9.27231C12.9608 8.96036 13.0748 8.66865 13.0748 8.53548C13.0748 8.40232 12.9608 8.11061 12.7869 7.79866C12.501 7.28613 12.4989 7.2771 12.4989 6.59657C12.4989 5.9214 12.5033 5.90248 12.7869 5.36061C12.9452 5.05802 13.0748 4.71862 13.0748 4.60645C13.0748 4.49429 12.9453 4.15515 12.787 3.85282C12.5332 3.36814 12.4963 3.24063 12.4751 2.77391C12.4583 2.40438 12.4853 2.14145 12.5646 1.90286ZM16.6661 19.6452V10.5V1.35484H15.5841H14.502L14.2398 1.71048C13.7046 2.43633 13.6886 2.64891 14.1082 3.45573C14.3833 3.9848 14.3961 4.03627 14.3961 4.60645C14.3961 5.17664 14.3833 5.2281 14.1082 5.75717C13.9157 6.12747 13.8202 6.39715 13.8202 6.57097C13.8202 6.74479 13.9157 7.01447 14.1082 7.38476C14.3833 7.91383 14.3961 7.9653 14.3961 8.53548C14.3961 9.10567 14.3833 9.15714 14.1082 9.6862C13.9157 10.0565 13.8202 10.3262 13.8202 10.5C13.8202 10.6738 13.9157 10.9435 14.1082 11.3138C14.3833 11.8429 14.3961 11.8943 14.3961 12.4645C14.3961 13.0347 14.3833 13.0862 14.1082 13.6152C13.9157 13.9855 13.8202 14.2552 13.8202 14.429C13.8202 14.6029 13.9157 14.8725 14.1082 15.2428C14.3833 15.7719 14.3961 15.8234 14.3961 16.3935C14.3961 16.9637 14.3833 17.0152 14.1082 17.5443C13.6886 18.3511 13.7046 18.5637 14.2398 19.2895L14.502 19.6452H15.5841H16.6661ZM6.12462 4.84573C6.16975 4.60529 6.31002 4.44758 6.57136 4.34336C6.66372 4.30648 6.77031 4.27439 6.80819 4.27201C7.19435 4.24796 8.19833 5.42865 8.79895 6.61324C9.46766 7.93216 9.71946 8.99519 9.71946 10.5C9.71946 11.9781 9.50289 12.9178 8.8411 14.3112C8.43238 15.1719 7.52358 16.3632 7.08463 16.6137C6.77396 16.7911 6.58559 16.7615 6.31733 16.4933C6.10416 16.2802 6.08221 16.2253 6.11418 15.9864C6.14231 15.7773 6.24537 15.6143 6.58451 15.2428C7.34727 14.4073 7.89308 13.345 8.21201 12.0752C8.42166 11.2405 8.42119 9.77488 8.21093 8.92791C7.89998 7.67495 7.35812 6.60646 6.62056 5.79194C6.15404 5.27669 6.07286 5.12176 6.12462 4.84573ZM4.00559 7.6085C3.84493 7.30468 3.96805 6.90257 4.27358 6.73328C4.65322 6.52287 4.95448 6.64886 5.40448 7.20625C6.14949 8.12903 6.50089 9.04471 6.55361 10.2007C6.6087 11.4081 6.35101 12.4195 5.76116 13.3113C5.08492 14.3337 4.57246 14.5998 4.1306 14.1581C3.81796 13.8455 3.86966 13.502 4.30569 12.9952C5.50409 11.6024 5.52462 9.39718 4.3515 8.06129C4.20425 7.89362 4.04862 7.68987 4.00559 7.6085ZM2.16681 9.95128C1.85471 9.49085 1.90126 9.05655 2.28585 8.84092C3.14687 8.35819 4.05376 10.0349 3.59247 11.2565C3.51271 11.4677 3.33023 11.7725 3.18692 11.934C2.94943 12.2016 2.89833 12.2274 2.60792 12.2274C2.34291 12.2274 2.26186 12.1954 2.12581 12.0373C1.89597 11.7702 1.91013 11.4273 2.16681 11.0487C2.3009 10.8509 2.36886 10.6663 2.36886 10.5C2.36886 10.3337 2.3009 10.1491 2.16681 9.95128Z" fill="#0D0D0D"/>
</svg>
